<?xml version="1.0" encoding="UTF-8"?>
<svg xmlns:xlink="http://www.w3.org/1999/xlink" width="105px" height="106px" viewBox="0 0 105 106" version="1.1"
     xmlns="http://www.w3.org/2000/svg">
    <!-- Generator: sketchtool 45.1 (43504) - http://www.bohemiancoding.com/sketch -->
    <title>1BBB423B-B3BB-4C5B-A5F3-EAE853A063E3</title>
    <desc>Created with sketchtool.</desc>
    <defs>
        <polygon id="path-1"
                 points="0.435509059 105.248203 0.435509059 132.909522 104.918354 132.909522 104.918354 0.256325507 0.435509059 0.256325507 0.435509059 105.248203 0.43456434 0.256009056 104.917409 0.256009056 104.917409 105.248203 0.435509059 105.248203"></polygon>
        <path d="M0.0133117664,22.3230597 C8.36080201,28.0034595 18.4301521,31.3212538 29.2703347,31.3212538 C40.1094741,31.3212538 50.1770405,28.004098 58.5229489,22.3246995 L58.5229489,0.18561594 L0.0133117664,0.18561594 L0.0133117664,22.3230597 L0.0133117664,22.3230597 Z"
              id="path-3"></path>
    </defs>
    <g id="首页" stroke="none" stroke-width="1" fill="none" fill-rule="evenodd">
        <g id="个人中心首页" transform="translate(-558.000000, -36.000000)">
            <g id="Group-15" transform="translate(558.000000, 36.000000)">
                <g id="Group-26">
                    <g id="Group-3" transform="translate(0.000000, 0.183717)">
                        <mask id="mask-2" fill="white">
                            <use xlink:href="#path-1"></use>
                        </mask>
                        <g id="Clip-2"></g>
                        <path d="M104.917409,52.7521059 C104.917409,81.7453689 81.5292993,105.248203 52.6775611,105.248203 C23.8258229,105.248203 0.43456434,81.7453689 0.43456434,52.7521059 C0.43456434,23.7588429 23.8258229,0.256009056 52.6775611,0.256009056 C81.5292993,0.256009056 104.917409,23.7588429 104.917409,52.7521059"
                              id="Fill-1" fill="#C8C8C7"></path>
                    </g>
                    <path d="M77.6420928,52.745003 C77.6420928,66.5992385 66.4660593,77.8332576 52.6763015,77.8332576 C38.8896927,77.8332576 27.7105101,66.5992385 27.7105101,52.745003 C27.7105101,38.8907676 38.8896927,27.6567484 52.6763015,27.6567484 C66.4660593,27.6567484 77.6420928,38.8907676 77.6420928,52.745003"
                          id="Fill-4" fill="#E9E8E8"></path>
                    <path d="M44.7034974,62.4432843 C45.8686517,65.7407063 48.9956737,68.1077616 52.6769313,68.1077616 C56.3581889,68.1077616 59.4820618,65.7407063 60.6503651,62.4432843"
                          id="Stroke-6" stroke="#C8C8C7" stroke-linecap="round"></path>
                    <g id="Group-11" transform="translate(23.408171, 74.110983)">
                        <mask id="mask-4" fill="white">
                            <use xlink:href="#path-3"></use>
                        </mask>
                        <g id="Clip-10"></g>
                        <path d="M58.5229489,29.5839365 C58.5229489,45.8210498 45.4259854,58.982257 29.2681303,58.982257 C13.1102752,58.982257 0.0133117664,45.8210498 0.0133117664,29.5839365 C0.0133117664,13.3468232 13.1102752,0.18561594 29.2681303,0.18561594 C45.4259854,0.18561594 58.5229489,13.3468232 58.5229489,29.5839365"
                              id="Fill-9" fill="#E9E8E8" mask="url(#mask-4)"></path>
                    </g>
                </g>
            </g>
        </g>
    </g>
</svg>