<?xml version="1.0" encoding="UTF-8"?>
<svg width="96px" height="24px" viewBox="0 0 96 24" version="1.1" xmlns="http://www.w3.org/2000/svg">
    <!-- Generator: sketchtool 45.1 (43504) - http://www.bohemiancoding.com/sketch -->
    <title>40586810-AA16-4B97-A2D4-8ED14A8D582A</title>
    <desc>Created with sketchtool.</desc>
    <defs></defs>
    <g id="首页" stroke="none" stroke-width="1" fill="none" fill-rule="evenodd">
        <g id="首页-最新" transform="translate(-15.000000, -1636.000000)">
            <g id="Group-46" transform="translate(15.000000, 1636.000000)">
                <g id="Group-49" transform="translate(0.000000, 1.000000)">
                    <g id="Group-48">
                        <g id="Page-1">
                            <path d="M95.0007,16.9954993 C93.2637,16.9954993 91.8557,15.7584244 91.8557,14.2312706 C91.8557,12.7041168 93.2637,11.4661493 95.0007,11.4661493 C93.2637,11.4661493 91.8557,10.2281819 91.8557,8.70102804 C91.8557,7.17387422 93.2637,5.9367993 95.0007,5.9367993 L95.0007,5.74847116 C93.2637,5.74847116 91.8557,4.50961114 91.8557,2.98334987 C91.8557,1.45619605 93.2637,0.218228584 95.0007,0.218228584 L95.0007,0.111122531 L0.1257,0.111122531 L0.1257,0.218228584 C1.8617,0.218228584 3.2697,1.45619605 3.2697,2.98334987 C3.2697,4.50961114 1.8617,5.74847116 0.1257,5.74847116 L0.1257,5.9367993 C1.8617,5.9367993 3.2697,7.17387422 3.2697,8.70102804 C3.2697,10.2281819 1.8617,11.4661493 0.1257,11.4661493 C1.8617,11.4661493 3.2697,12.7041168 3.2697,14.2312706 C3.2697,15.7584244 1.8617,16.9954993 0.1257,16.9954993 C1.8617,16.9954993 3.2697,18.2334668 3.2697,19.7606206 C3.2697,21.2868819 1.8617,22.5248494 0.1257,22.5248494 L0.1257,22.5989311 L95.0007,22.5989311 L95.0007,22.5248494 C93.2637,22.5248494 91.8557,21.2868819 91.8557,19.7606206 C91.8557,18.2334668 93.2637,16.9954993 95.0007,16.9954993 Z"
                                  id="Fill-1" fill="#FD4915"></path>
                            <path d="M91.8557,19.7606206 C91.8557,18.2334668 93.2637,16.9954993 95.0007,16.9954993 C93.2637,16.9954993 91.8557,15.7584244 91.8557,14.2312706 C91.8557,12.7041168 93.2637,11.4661493 95.0007,11.4661493 C93.2637,11.4661493 91.8557,10.2281819 91.8557,8.70102804 C91.8557,7.17387422 93.2637,5.9367993 95.0007,5.9367993 L95.0007,5.74847116 C93.2637,5.74847116 91.8557,4.50961114 91.8557,2.98334987 C91.8557,1.45619605 93.2637,0.218228584 95.0007,0.218228584 L95.0007,0.111122531 L0.1257,0.111122531 L0.1257,0.218228584 C1.8617,0.218228584 3.2697,1.45619605 3.2697,2.98334987 C3.2697,4.50961114 1.8617,5.74847116 0.1257,5.74847116 L0.1257,5.9367993 C1.8617,5.9367993 3.2697,7.17387422 3.2697,8.70102804 C3.2697,10.2281819 1.8617,11.4661493 0.1257,11.4661493 C1.8617,11.4661493 3.2697,12.7041168 3.2697,14.2312706 C3.2697,15.7584244 1.8617,16.9954993 0.1257,16.9954993 C1.8617,16.9954993 3.2697,18.2334668 3.2697,19.7606206 C3.2697,21.2868819 1.8617,22.5248494 0.1257,22.5248494 L0.1257,22.5989311 L95.0007,22.5989311 L95.0007,22.5248494 C93.2637,22.5248494 91.8557,21.2868819 91.8557,19.7606206 Z"
                                  id="Stroke-3" stroke="#FD4915" stroke-width="0.25"></path>
                        </g>
                    </g>
                </g>
            </g>
        </g>
    </g>
</svg>