<?xml version="1.0" encoding="UTF-8"?>
<svg width="128px" height="128px" viewBox="0 0 128 128" version="1.1" xmlns="http://www.w3.org/2000/svg">
    <!-- Generator: sketchtool 45.1 (43504) - http://www.bohemiancoding.com/sketch -->
    <title>0802039A-89FE-4B9A-BAFA-6EE099CBC742</title>
    <desc>Created with sketchtool.</desc>
    <defs>
        <linearGradient x1="19.5776126%" y1="18.8307186%" x2="70.8749053%" y2="58.5505402%" id="linearGradient-1">
            <stop stop-color="#FA900A" offset="0%"></stop>
            <stop stop-color="#F26700" offset="100%"></stop>
        </linearGradient>
        <linearGradient x1="0%" y1="28.3055663%" x2="75.9614222%" y2="87.8433891%" id="linearGradient-2">
            <stop stop-color="#F9B11A" offset="0%"></stop>
            <stop stop-color="#F46A01" offset="100%"></stop>
        </linearGradient>
    </defs>
    <g id="个人中心" stroke="none" stroke-width="1" fill="none" fill-rule="evenodd">
        <g id="个人中心首页-修改" transform="translate(-30.000000, -129.000000)">
            <g id="Group-43" transform="translate(30.000000, 129.000000)">
                <g id="Group-42">
                    <circle id="Oval-6" fill="#FFFFFF" cx="64" cy="64" r="64"></circle>
                    <g id="Group-28" transform="translate(10.000000, 23.000000)">
                        <g id="Group-3" transform="translate(16.335048, 0.319554)" fill="url(#linearGradient-1)">
                            <path d="M38.3822585,0.190915876 C37.5124172,0.20061481 36.6451282,0.512512136 35.9493573,1.12711832 L35.9493573,1.12711832 L1.61410695,31.448541 L1.61512789,31.4521143 C0.808074414,32.0360923 0.294030867,33.0008811 0.346098833,34.0851199 L0.346098833,34.0851199 C0.425221723,35.7370016 1.85913267,37.0024574 3.5130563,37.0024574 L3.5130563,37.0024574 L8.71576914,37.0024574 C10.4906742,37.0024574 11.9291794,38.4409626 11.9291794,40.2148467 L11.9291794,40.2148467 L11.9291794,60.4978718 C12.1109068,60.4845996 12.2931447,60.469796 12.475893,60.4606075 L12.475893,60.4606075 C16.7730317,60.2533566 20.1467296,59.0409897 22.790455,56.7566353 L22.790455,56.7566353 C25.0763408,54.780605 26.4352126,52.3676121 27.6337968,50.2384407 L27.6337968,50.2384407 C27.7287443,50.069475 27.8216499,49.9035722 27.9135345,49.7422636 L27.9135345,49.7422636 C30.2040145,45.6998496 32.590463,37.8263564 32.6139446,37.7472335 L32.6139446,37.7472335 L32.6609079,37.5905191 L32.72829,37.4414618 C32.9386037,36.9708082 34.9018723,32.8441667 38.9034486,32.8441667 L38.9034486,32.8441667 C39.1928853,32.8441667 39.4869161,32.8676483 39.7768632,32.9135907 L39.7768632,32.9135907 C41.5293076,33.1897551 43.0295797,34.1382088 43.9994732,35.5828396 L43.9994732,35.5828396 C45.1776385,37.3357945 45.5293525,39.7176487 44.9652829,42.1178798 L44.9652829,42.1178798 C44.7524168,43.0249855 44.3062658,44.6666578 43.7896699,46.56867 L43.7896699,46.56867 C42.9754699,49.5641094 41.2837714,55.7918466 41.2291511,56.976648 L41.2291511,56.976648 C41.2332349,57.3722625 41.4731559,58.7444065 42.5043058,60.0655035 L42.5043058,60.0655035 C43.7554684,61.6678697 45.6947449,62.58008 48.2685359,62.7766111 L48.2685359,62.7766111 C48.8178019,62.8189801 49.3782983,62.8404198 49.9321585,62.8404198 L49.9321585,62.8404198 C55.8408517,62.8404198 61.0405017,60.4749007 64.9190547,57.9368426 L64.9190547,57.9368426 L64.9190547,40.2148467 C64.9190547,38.4409626 66.3575599,37.0024574 68.1319545,37.0024574 L68.1319545,37.0024574 L73.3346674,37.0024574 C74.988591,37.0024574 76.4230124,35.7375121 76.5021353,34.0851199 L76.5021353,34.0851199 C76.5536928,33.0008811 76.0396492,32.0360923 75.2331062,31.4521143 L75.2331062,31.4521143 L75.2341272,31.448541 L40.8988769,1.12711832 C40.2031059,0.512512136 39.3353065,0.20061481 38.4654652,0.190915876 L38.4654652,0.190915876 L38.3822585,0.190915876 Z"
                                  id="Fill-1"></path>
                        </g>
                        <path d="M51.3548391,38.8738414 C51.3548391,38.8738414 48.8928411,47.0454492 46.4313535,51.3900615 L46.4313535,51.3900615 C43.9693554,55.733653 40.3950427,62.8424617 28.8987421,63.3983638 L28.8987421,63.3983638 C25.1758825,63.5785598 21.0910995,65.0145127 12.1772679,59.6601902 L12.1772679,59.6601902 C10.0766828,58.3983077 6.89032751,55.2078686 4.97146982,53.0889066 L4.97146982,53.0889066 C4.37728244,52.4329523 3.43852764,51.4150746 1.81727411,51.4661216 L1.81727411,51.4661216 L0,51.5733204 C0,51.5733204 2.81269111,57.8760966 12.382477,66.0155448 L12.382477,66.0155448 C20.1987975,72.6644199 33.7839424,80.969771 52.9122839,81.4613538 L52.9122839,81.4613538 C92.3456006,82.4756582 107.962928,49.3828925 108.054812,44.4037656 L108.054812,44.4037656 C105.66428,43.8340808 103.990448,44.8483852 103.31969,46.4129766 L103.31969,46.4129766 C99.2012161,56.8286116 92.2991478,62.7061662 87.1285946,66.5137638 L87.1285946,66.5137638 L87.1280841,66.5137638 C86.9187913,66.656185 86.6655981,66.7393917 86.393007,66.7393917 L86.393007,66.7393917 C85.6691601,66.7393917 85.0821193,66.1523509 85.0821193,65.428504 L85.0821193,65.428504 C85.0821193,64.9542772 85.3363335,64.5428381 85.7130606,64.3131265 L85.7130606,64.3131265 L85.7110187,64.3090428 C85.9938192,64.1196583 92.0229834,60.0951108 95.9964839,54.420213 L95.9964839,54.420213 C101.042993,47.2133939 101.164995,43.5538327 101.164995,43.5538327 L101.164995,43.5538327 C101.164995,43.5538327 97.546782,42.5032849 96.4257894,45.4099025 L96.4257894,45.4099025 C92.8050238,53.2507256 79.6844069,66.8813024 64.3728516,65.7097732 L64.3728516,65.7097732 C56.6872114,65.1222219 54.978157,59.2553872 54.978157,57.3564379 L54.978157,57.3564379 C54.978157,55.4569781 58.1241852,44.7248514 58.7821813,41.9249221 L58.7821813,41.9249221 C59.4406879,39.1249927 58.4401662,36.2587022 55.6775012,35.8222502 L55.6775012,35.8222502 C55.5151717,35.7967267 55.3564154,35.7844754 55.2022534,35.7844754 L55.2022534,35.7844754 C52.7371926,35.7839649 51.3548391,38.8738414 51.3548391,38.8738414"
                              id="Fill-4" fill="url(#linearGradient-2)"></path>
                    </g>
                </g>
            </g>
        </g>
    </g>
</svg>