<?xml version="1.0" encoding="UTF-8"?>
<svg width="19px" height="29px" viewBox="0 0 19 29" version="1.1" xmlns="http://www.w3.org/2000/svg">
    <!-- Generator: sketchtool 41.2 (35397) - http://www.bohemiancoding.com/sketch -->
    <title>183F0D84-CF16-4221-9C5D-A7EA4DA9DE3A</title>
    <desc>Created with sketchtool.</desc>
    <defs></defs>
    <g id="首页" stroke="none" stroke-width="1" fill="none" fill-rule="evenodd" stroke-linecap="round">
        <g transform="translate(-47.000000, -45.000000)" id="Group-29" stroke="#FD4915" stroke-width="2">
            <g transform="translate(47.000000, 45.000000)">
                <g id="Group-26" transform="translate(1.000000, 1.000000)">
                    <path d="M12.1103714,8.45235849 C12.1103714,10.3589623 10.5186857,11.904717 8.55542857,11.904717 C6.59168571,11.904717 5,10.3589623 5,8.45235849 C5,6.54575472 6.59168571,5 8.55542857,5 C10.5186857,5 12.1103714,6.54575472 12.1103714,8.45235849 Z" id="Stroke-1"></path>
                    <path d="M17,8.71848744 C17,9.26983005 16.9444185,9.80864214 16.8382181,10.3301043 C16.0660322,14.1176931 8.5,25.6896226 8.5,25.6896226 C8.5,25.6896226 0.965232368,14.143718 0.172699673,10.3821541 C0.0595516114,9.84478786 0,9.28814388 0,8.71848744 C0,4.15930816 3.80534797,0.463770456 8.5,0.463770456 C13.1941558,0.463770456 17,4.15930816 17,8.71848744 Z" id="Stroke-3"></path>
                </g>
            </g>
        </g>
    </g>
</svg>