<?xml version="1.0" encoding="UTF-8"?>
<svg width="22px" height="23px" viewBox="0 0 22 23" version="1.1" xmlns="http://www.w3.org/2000/svg">
    <!-- Generator: sketchtool 45.1 (43504) - http://www.bohemiancoding.com/sketch -->
    <title>9316B6CC-D180-499A-973C-9FA52B560E67</title>
    <desc>Created with sketchtool.</desc>
    <defs></defs>
    <g id="首页" stroke="none" stroke-width="1" fill="none" fill-rule="evenodd" stroke-linecap="round">
        <g id="个人中心首页" transform="translate(-464.000000, -250.000000)" stroke="#7B7B7B">
            <g id="Group-16" transform="translate(464.000000, 250.000000)">
                <g id="Group-10" transform="translate(1.000000, 0.000000)">
                    <path d="M19.0848,17.1751 L10.4578,22.0921 C10.1698,22.2561 9.8168,22.2541 9.5308,22.0871 L0.9588,17.0741 C0.6728,16.9071 0.4978,16.6001 0.4998,16.2681 L0.5558,6.3391 C0.5568,6.0081 0.7358,5.7021 1.0238,5.5381 L9.6498,0.6221 C9.9378,0.4581 10.2918,0.4591 10.5778,0.6271 L19.1488,5.6391 C19.4348,5.8071 19.6098,6.1141 19.6088,6.4451 C19.6088,6.4451 19.5972388,8.49497901 19.5914581,9.51991852 C19.5809054,11.390979 19.7308312,17.1751 19.7308312,17.1751"
                          id="Stroke-1"></path>
                    <path d="M6.9102,6.5165 L9.7822,11.7555" id="Stroke-3"></path>
                    <path d="M13.1981,6.5165 L10.3261,11.7555" id="Stroke-5"></path>
                    <path d="M6.414,11.7557 L13.694,11.7557" id="Stroke-7"></path>
                    <path d="M6.7331,14.8074 L13.3751,14.8074" id="Stroke-9"></path>
                    <path d="M10.0542,11.7557 L10.0542,17.7597" id="Stroke-11"></path>
                </g>
            </g>
        </g>
    </g>
</svg>