<?xml version="1.0" encoding="UTF-8"?>
<svg width="23px" height="26px" viewBox="0 0 23 26" version="1.1" xmlns="http://www.w3.org/2000/svg">
    <!-- Generator: sketchtool 45.1 (43504) - http://www.bohemiancoding.com/sketch -->
    <title>41A63967-5BBC-4E30-842D-A87452B11D40</title>
    <desc>Created with sketchtool.</desc>
    <defs></defs>
    <g id="首页" stroke="none" stroke-width="1" fill="none" fill-rule="evenodd" stroke-linecap="round">
        <g id="个人中心首页" transform="translate(-54.000000, -853.000000)" stroke="#9F9F9F" stroke-width="2">
            <g id="Group-4" transform="translate(54.000000, 853.000000)">
                <g id="Group" transform="translate(1.000000, 1.000000)">
                    <path d="M20.0627017,24 L0.624016827,24 C0.279091663,24 0.000282352941,23.774892 0.000282352941,23.4975268 L0.000282352941,0.502344017 C0.000282352941,0.22497882 0.279091663,-0.000129166667 0.624016827,-0.000129166667 L20.0627017,-0.000129166667 C20.4070032,-0.000129166667 20.6864362,0.22497882 20.6864362,0.502344017 L20.6864362,23.4975268 C20.6864362,23.774892 20.4070032,24 20.0627017,24 Z"
                          id="Stroke-1"></path>
                    <path d="M20.0627017,5.8125 L0.624016827,5.8125 C0.279091663,5.8125 0.000282352941,5.52316667 0.000282352941,5.16666667 L0.000282352941,0.645833333 C0.000282352941,0.289333333 0.279091663,0 0.624016827,0 L20.0627017,0 C20.4070032,0 20.6864362,0.289333333 20.6864362,0.645833333 L20.6864362,5.16666667 C20.6864362,5.52316667 20.4070032,5.8125 20.0627017,5.8125 Z"
                          id="Stroke-3"></path>
                    <path d="M4.75265882,12 L15.3790119,12" id="Stroke-5"></path>
                    <path d="M4.75265882,17 L15.3695242,17" id="Stroke-7"></path>
                </g>
            </g>
        </g>
    </g>
</svg>