<?xml version="1.0" encoding="UTF-8"?>
<svg width="92px" height="92px" viewBox="0 0 92 92" version="1.1" xmlns="http://www.w3.org/2000/svg">
    <!-- Generator: sketchtool 45.1 (43504) - http://www.bohemiancoding.com/sketch -->
    <title>C7B0ABA9-4B45-4B02-A95B-01D0E127A8A4</title>
    <desc>Created with sketchtool.</desc>
    <defs>
        <linearGradient x1="50%" y1="0%" x2="50%" y2="100%" id="linearGradient-1">
            <stop stop-color="#A3E440" offset="0%"></stop>
            <stop stop-color="#86DB34" offset="39%"></stop>
            <stop stop-color="#73D42C" offset="75%"></stop>
            <stop stop-color="#6CD229" offset="100%"></stop>
        </linearGradient>
    </defs>
    <g id="171129首页" stroke="none" stroke-width="1" fill="none" fill-rule="evenodd">
        <g id="首页-最新" transform="translate(-237.000000, -590.000000)">
            <rect id="Rectangle-9" fill="#FFFFFF" x="0" y="380" width="750" height="370"></rect>
            <g id="画板-1-副本-7" transform="translate(237.000000, 590.000000)" fill-rule="nonzero">
                <rect id="_矩形_" fill="url(#linearGradient-1)" x="0" y="0" width="92" height="92" rx="46"></rect>
                <g id="_编组_" transform="translate(27.600000, 23.920000)" fill="#FFFFFF">
                    <path d="M18.4,0.9568 C12.604,0.9568 7.8936,6.5872 7.8936,13.524 C7.8936,20.4608 12.604,26.0912 18.4,26.0912 C24.196,26.0912 28.9064,20.4608 28.9064,13.524 C28.9064,6.5872 24.2512,0.9568 18.4,0.9568 Z M18.4,25.76 C12.7144,25.76 8.096,20.24 8.096,13.4504 C8.096,6.6608 12.7144,1.1408 18.4,1.1408 C24.0856,1.1408 28.704,6.6608 28.704,13.4504 C28.704,20.24 24.1408,25.76 18.4,25.76 Z"
                          id="_复合路径_"></path>
                    <path d="M28.7408,13.524 C28.7408,6.716 24.1224,1.2144 18.4368,1.2144 C12.7512,1.2144 8.1328,6.7344 8.1328,13.524 C8.1372262,14.1394228 8.18024396,14.7539623 8.2616,15.364 C12.6760311,16.3854839 17.3007278,14.9840606 20.4056,11.684 C20.8890275,11.1944157 21.3378423,10.6718231 21.7488,10.12 C23.2024499,12.7655031 25.6759421,14.7004123 28.5936,15.4744 C28.685854,14.8282492 28.7350292,14.1766778 28.7408,13.524 L28.7408,13.524 Z"
                          id="_路径_"></path>
                    <path d="M8.0224,14.996 C6.35539302,16.3715253 5.42919395,18.448663 5.52,20.608 C5.52,24.1592 7.7464,27.0296 10.5064,27.0296 C11.9994523,26.9806743 13.3740149,26.2040464 14.1864,24.9504 C10.621721,22.8458322 8.31771541,19.1250351 8.0224,14.996 L8.0224,14.996 Z"
                          id="_路径_2"></path>
                    <path d="M28.888,14.996 C28.6145956,19.1173926 26.3391862,22.8432897 22.7976,24.9688 C23.6099851,26.2224464 24.9845477,26.9990743 26.4776,27.048 C29.2376,27.048 31.464,24.1776 31.464,20.6264 C31.5428776,18.4480676 30.5878066,16.3605554 28.888,14.996 L28.888,14.996 Z"
                          id="_路径_3"></path>
                    <path d="M8.1512,28.5568 C8.1512,28.5568 4.324,28.06 1.196,35.1072 C1.196,35.1072 0.184,36.2296 3.9376,38.1248 C3.9376,38.1248 8.188,39.9648 9.4576,43.0008 C9.4944,43.0192 13.0456,31.4088 8.1512,28.5568 Z"
                          id="_路径_4"></path>
                    <path d="M28.6488,28.5568 C28.6488,28.5568 32.476,28.06 35.604,35.1072 C35.604,35.1072 36.616,36.2296 32.8624,38.1248 C32.8624,38.1248 28.612,39.9648 27.3424,43.0008 C27.3056,43.0192 23.7544,31.4088 28.6488,28.5568 Z"
                          id="_路径_5"></path>
                    <path d="M12.236,28.5568 L14.076,32.2368 L17.9584,32.2368 L17.9584,30.3968 C16.2479233,30.0390227 14.8078801,28.892448 14.076,27.3056 L12.236,28.5568 Z"
                          id="_路径_6"></path>
                    <path d="M24.5088,28.5568 L22.6688,32.2368 L18.7496,32.2368 L18.7496,30.3968 C20.4600767,30.0390227 21.9001199,28.892448 22.632,27.3056 L24.5088,28.5568 Z"
                          id="_路径_7"></path>
                    <rect id="_矩形_2" x="12.696" y="38.8608" width="11.4264" height="4.324" rx="1.18"></rect>
                </g>
            </g>
        </g>
    </g>
</svg>