<?xml version="1.0" encoding="UTF-8"?>
<svg width="102px" height="102px" viewBox="0 0 102 102" version="1.1" xmlns="http://www.w3.org/2000/svg" xmlns:xlink="http://www.w3.org/1999/xlink">
    <!-- Generator: sketchtool 45.1 (43504) - http://www.bohemiancoding.com/sketch -->
    <title>1AEC6258-FEEE-47E2-8355-AECD9CED3559</title>
    <desc>Created with sketchtool.</desc>
    <defs></defs>
    <g id="首页" stroke="none" stroke-width="1" fill="none" fill-rule="evenodd">
        <g transform="translate(-601.000000, -198.000000)" id="Group-25" stroke="#FD4915" stroke-width="2">
            <g transform="translate(601.000000, 198.000000)">
                <g id="Group-20" transform="translate(1.000000, 1.000000)">
                    <circle id="Oval-Copy-4" cx="50" cy="50" r="50"></circle>
                    <path d="M56.8267931,59.5675647 L49.3674828,59.5675647 C48.4501983,59.5675647 47.7066207,58.8239871 47.7066207,57.9067026 L47.7066207,50.4473922 C47.7066207,49.5301078 48.4501983,48.7859698 49.3674828,48.7859698 L56.8267931,48.7859698 C57.7440776,48.7859698 58.4876552,49.5301078 58.4876552,50.4473922 L58.4876552,57.9067026 C58.4876552,58.8239871 57.7440776,59.5675647 56.8267931,59.5675647 Z" id="Stroke-48" stroke-linecap="round"></path>
                    <path d="M45.4107759,68.7191724 L66.2292672,68.7191724 C67.6659914,68.7191724 68.8303879,67.5547759 68.8303879,66.1180517 L68.8303879,48.1903793 C68.8303879,47.4804224 69.4058621,46.9049483 70.115819,46.9049483 L72.849181,46.9049483 C74.0146983,46.9049483 74.5307759,45.4385259 73.6218966,44.7089569 L54.7494828,29.5533103 C53.784569,28.7783534 52.4100431,28.7783534 51.444569,29.5533103 L47.2386207,32.931069" id="Stroke-49" stroke-linecap="round"></path>
                    <path d="M40.0827931,35.0001983 L40.0827931,41.3466638 C40.0827931,42.235931 39.3616293,42.9565345 38.4723621,42.9565345 L33.6696466,42.9565345 C32.7803793,42.9565345 32.0592155,42.235931 32.0592155,41.3466638 L32.0592155,35.0001983 C32.0592155,34.5838621 31.6227069,34.3233017 31.2472759,34.5020517 C28.1995603,35.9522241 26.1358103,38.7292931 26.1358103,41.9226983 C26.1358103,45.2858879 28.4287414,48.1839914 31.7459828,49.5601983 L31.7459828,67.6733448 C31.7459828,68.2510603 32.214431,68.7189483 32.7921466,68.7189483 L39.3504224,68.7189483 C39.9281379,68.7189483 40.3960259,68.2510603 40.3960259,67.6733448 L40.3960259,49.5601983 C43.7132672,48.1839914 46.0061983,45.2858879 46.0061983,41.9226983 C46.0061983,38.7292931 43.9424483,35.9522241 40.8952931,34.5020517 C40.5193017,34.3233017 40.0827931,34.5838621 40.0827931,35.0001983 Z" id="Stroke-50" stroke-linecap="round"></path>
                </g>
            </g>
        </g>
    </g>
</svg>