<?xml version="1.0" encoding="UTF-8"?>
<svg width="26px" height="29px" viewBox="0 0 26 29" version="1.1" xmlns="http://www.w3.org/2000/svg">
    <!-- Generator: sketchtool 45.1 (43504) - http://www.bohemiancoding.com/sketch -->
    <title>090D41BD-BEAF-4A8F-A4F9-BFCAAAC0356E</title>
    <desc>Created with sketchtool.</desc>
    <defs></defs>
    <g id="个人中心" stroke="none" stroke-width="1" fill="none" fill-rule="evenodd">
        <g id="个人中心首页-修改" transform="translate(-48.000000, -1349.000000)" stroke="#464646" stroke-width="2">
            <g id="Group-40" transform="translate(48.000000, 1349.000000)">
                <g id="Group-13" transform="translate(1.000000, 1.000000)">
                    <path d="M23.8723482,22.3793914 C24.2094101,21.3226862 23.7834766,20.8458141 23.5396216,20.6843278 C21.8478094,19.2667171 18.8673587,17.3581449 17.7033572,17.1142898 L17.6209884,17.096949 L17.5375357,17.1088708 C16.8764176,17.2042452 16.4764953,17.6410167 16.1220926,18.0257658 C15.6593099,18.5308167 15.354762,18.811521 14.7109847,18.7226494 C14.513733,18.6944706 13.672704,18.3574087 11.0000526,15.2208908 L9.85989475,13.8531348 C7.19374613,10.5876447 7.02467329,9.70109607 7.03767889,9.50709582 C7.0788633,8.86548607 7.42351178,8.64222322 8.02718852,8.30299374 C8.48563603,8.04504928 9.00586015,7.75242321 9.23887721,7.14224367 L9.26813981,7.06529385 L9.26705601,6.98292503 C9.26163701,5.82217496 7.95782531,2.58594741 6.90437146,0.723978569 C6.78840483,0.453028506 6.45676196,0 5.53878314,0 C3.67789811,0 0.421078345,1.83812523 0.0710108629,4.01547994 C-0.424285853,7.10214306 1.69345984,11.8416016 5.73386719,16.6959429 L7.22626014,18.4874647 C11.2677513,23.3396385 15.5899467,26.3341786 18.7914926,26.4967486 L18.9291353,26.5 C21.0338754,26.5 23.3423699,24.0386896 23.8723482,22.3793914 Z"
                          id="Stroke-56"></path>
                </g>
            </g>
        </g>
    </g>
</svg>