<?xml version="1.0" encoding="UTF-8"?>
<svg width="102px" height="102px" viewBox="0 0 102 102" version="1.1" xmlns="http://www.w3.org/2000/svg" xmlns:xlink="http://www.w3.org/1999/xlink">
    <!-- Generator: sketchtool 45.1 (43504) - http://www.bohemiancoding.com/sketch -->
    <title>52FFF776-96FE-49BA-BE26-D4E1F7737B42</title>
    <desc>Created with sketchtool.</desc>
    <defs></defs>
    <g id="首页" stroke="none" stroke-width="1" fill="none" fill-rule="evenodd">
        <g transform="translate(-416.000000, -396.000000)" id="Group-36" stroke="#FD4915" stroke-width="2">
            <g transform="translate(416.000000, 396.000000)">
                <g id="Group-2" transform="translate(1.000000, 1.000000)">
                    <circle id="Oval-Copy-5" cx="50" cy="50" r="50"></circle>
                    <path d="M41,28.3719169 L41,29.2859559" id="Stroke-38" stroke-linecap="round"></path>
                    <path d="M48,28.3719169 L48,29.2859559" id="Stroke-40" stroke-linecap="round"></path>
                    <path d="M55,28.3719169 L55,29.2859559" id="Stroke-42" stroke-linecap="round"></path>
                    <path d="M39,34.1051989 L39,35.0710458" id="Stroke-44" stroke-linecap="round"></path>
                    <path d="M45,34.1051989 L45,35.0710458" id="Stroke-46" stroke-linecap="round"></path>
                    <path d="M51,34.1051989 L51,35.0710458" id="Stroke-48" stroke-linecap="round"></path>
                    <path d="M58,34.1051989 L58,35.0710458" id="Stroke-50" stroke-linecap="round"></path>
                    <path d="M45,22.7263383 L45,23.8402077" id="Stroke-52" stroke-linecap="round"></path>
                    <path d="M51,22.7263383 L51,23.8402077" id="Stroke-54" stroke-linecap="round"></path>
                    <path d="M34.7933142,46.9243184 L38.276276,41.2920619 C38.5420442,40.8627966 38.9966477,40.6019069 39.4827237,40.6019069 L60.7196989,40.6019069 C61.2302536,40.6019069 61.7005933,40.8868502 61.961116,41.3512709 L65.0751497,46.9243184" id="Stroke-58"></path>
                    <path d="M31.9870121,46.2304629 L27.9270535,46.2304629 C27.4409775,46.2304629 27.0458222,46.6486265 27.0458222,47.1630047 L27.0458222,49.9088223 C27.0458222,50.3306865 27.3150873,50.7007428 27.6997518,50.8099094 L30.778816,51.6776914 C31.3558127,51.8405161 31.6058446,52.5602756 31.264892,53.0802047 L30.4448573,54.3346954 C30.152862,54.7806133 29.9972477,55.3097937 29.9972477,55.8519262 L29.9972477,64.0209186 C29.9972477,64.8609463 30.6406865,65.5437001 31.434494,65.5437001 L68.2276498,65.5437001 C69.0214574,65.5437001 69.6648961,64.8609463 69.6648961,64.0209186 L69.6648961,55.489271 C69.6648961,54.95639 69.5145273,54.4364609 69.2330228,53.9960939 L68.6263021,53.0487499 C68.2940919,52.5306711 68.5406268,51.8220133 69.1088811,51.655488 L71.9711344,50.8154602 C72.3523019,50.7025931 72.6163216,50.3343871 72.6163216,49.9162235 L72.6163216,47.1630047 C72.6163216,46.6486265 72.2211663,46.2304629 71.7350903,46.2304629 L68.007342,46.2304629 C67.311449,46.2304629 66.6365377,46.4784006 66.0892651,46.9335699 L64.0802675,48.6080745 C62.6010578,49.8385116 60.7739016,50.5101638 58.8925427,50.5101638 L41.3448494,50.5101638 C39.7187678,50.5101638 38.1311526,49.9883844 36.7900724,49.0169867 L33.7389839,46.8040502 C33.2231838,46.4302933 32.6129661,46.2304629 31.9870121,46.2304629 Z" id="Stroke-60"></path>
                    <path d="M33.9183774,55.5320125 L34.9342413,56.5089611 C35.2961755,56.856814 35.7682637,57.0510936 36.2578367,57.0510936 L39.885922,57.0510936" id="Stroke-62" stroke-linecap="round"></path>
                    <path d="M66.052722,55.5320125 L65.0368581,56.5089611 C64.6749238,56.856814 64.2028356,57.0510936 63.7132627,57.0510936 L60.0851774,57.0510936" id="Stroke-64" stroke-linecap="round"></path>
                    <path d="M41.0886978,60 L59.5018862,60" id="Stroke-66" stroke-linecap="round"></path>
                    <path d="M68.9859634,66.2560585 L68.9859634,69.2997714 C68.9859634,70.0879913 68.3827395,70.7263383 67.6378893,70.7263383 L59.8606732,70.7263383 C59.1175714,70.7263383 58.5125991,70.0879913 58.5125991,69.2997714 L58.5125991,66.2560585" id="Stroke-68" stroke-linecap="round"></path>
                    <path d="M41.4896231,66.2560585 L41.4896231,69.2997714 C41.4896231,70.0879913 40.8863993,70.7263383 40.141549,70.7263383 L32.364333,70.7263383 C31.6212311,70.7263383 31.0162589,70.0879913 31.0162589,69.2997714 L31.0162589,66.2560585" id="Stroke-70" stroke-linecap="round"></path>
                    <path d="M60.5899621,65 L68.3654296,65" id="Stroke-72" stroke-linecap="round"></path>
                </g>
            </g>
        </g>
    </g>
</svg>