<?xml version="1.0" encoding="UTF-8"?>
<svg width="102px" height="102px" viewBox="0 0 102 102" version="1.1" xmlns="http://www.w3.org/2000/svg" xmlns:xlink="http://www.w3.org/1999/xlink">
    <!-- Generator: sketchtool 45.1 (43504) - http://www.bohemiancoding.com/sketch -->
    <title>F6D833C7-0F0D-4FBF-BC17-21487EAA2838</title>
    <desc>Created with sketchtool.</desc>
    <defs></defs>
    <g id="首页" stroke="none" stroke-width="1" fill="none" fill-rule="evenodd">
        <g transform="translate(-232.000000, -396.000000)" id="Group-28" stroke="#FD4915" stroke-width="2">
            <g transform="translate(232.000000, 396.000000)">
                <g id="Group-4" transform="translate(1.000000, 1.000000)">
                    <circle id="Oval-Copy-6" cx="50" cy="50" r="50"></circle>
                    <path d="M62.2154554,50.3797225 C60.6466999,52.491724 58.1612706,53.8847767 55.3384745,53.9978429 C55.119668,54.9658237 55.0001438,55.9958239 55.0001438,57.0658983 C55.0001438,62.6638709 58.2306717,67.2017877 62.2154554,67.2017877 C66.2002391,67.2017877 69.430767,62.6638709 69.430767,57.0658983 C69.430767,55.9958239 69.3112428,54.9658237 69.0924363,53.9978429 C66.2691583,53.8847767 63.784211,52.491724 62.2154554,50.3797225 Z" id="Stroke-62" stroke-linecap="round"></path>
                    <path d="M62.2154554,44.3160708 C59.6673126,47.7466419 55.6308557,50.0092718 51.0453372,50.1931713 C50.6898185,51.7652816 50.495758,53.4383061 50.495758,55.176387 C50.495758,64.2689115 55.7426345,71.6397473 62.2154554,71.6397473 C68.6882763,71.6397473 73.9351528,64.2689115 73.9351528,55.176387 C73.9351528,53.4383061 73.7405749,51.7652816 73.3855737,50.1931713 C68.8000551,50.0092718 64.7635982,47.7466419 62.2154554,44.3160708 Z" id="Stroke-63" stroke-linecap="round"></path>
                    <path d="M70.6165125,47.171226 C69.6187831,43.1833216 65.9926993,40.221976 61.6550607,40.221976 C60.31061,40.221976 59.0360211,40.5124245 57.8835609,41.0236549 C57.8892534,40.8715152 57.9068482,40.7219368 57.9068482,40.5682603 C57.9068482,34.0313755 52.5533678,28.7320985 45.9496208,28.7320985 C39.3463913,28.7320985 33.992911,34.0313755 33.992911,40.5682603 C33.992911,41.293101 34.0689827,41.9995005 34.1952513,42.6884833 C29.8555426,42.7873485 26.3665949,46.2932211 26.3665949,50.6125544 C26.3665949,54.9938706 29.9549016,58.5458461 34.3810318,58.5458461 L48.1375875,58.5458461" id="Stroke-64" stroke-linecap="round"></path>
                </g>
            </g>
        </g>
    </g>
</svg>