<?xml version="1.0" encoding="UTF-8"?>
<svg width="92px" height="92px" viewBox="0 0 92 92" version="1.1" xmlns="http://www.w3.org/2000/svg">
    <!-- Generator: sketchtool 45.1 (43504) - http://www.bohemiancoding.com/sketch -->
    <title>21A97BB5-FB5C-4E05-BB09-C82EB80F11A4</title>
    <desc>Created with sketchtool.</desc>
    <defs></defs>
    <g id="首页" stroke="none" stroke-width="1" fill="none" fill-rule="evenodd">
        <g id="首页-最新" transform="translate(-421.000000, -588.000000)">
            <g id="Group-23" transform="translate(421.000000, 588.000000)">
                <g id="Group-11-Copy-7" transform="translate(1.000000, 1.000000)" stroke="#FD4915" stroke-width="2"
                   fill="#FFFFFF">
                    <path d="M44.6183195,89.4425525 C19.9947235,89.4425525 0.0334327189,69.4838928 0.0334327189,44.8635424 C0.0334327189,20.2431919 19.9947235,0.284532217 44.6183195,0.284532217 C69.2419156,0.284532217 89.2032063,20.2431919 89.2032063,44.8635424 C89.2032063,69.4838928 69.2419156,89.4425525 44.6183195,89.4425525 Z"
                          id="Fill-79"></path>
                </g>
                <g id="Page-1" transform="translate(26.000000, 27.000000)">
                    <path d="M22.9137,2.7499 C22.9137,4.2689 21.6827,5.4999 20.1637,5.4999 C18.6437,5.4999 17.4137,4.2689 17.4137,2.7499 C17.4137,1.2309 18.6437,-0.0001 20.1637,-0.0001 C21.6827,-0.0001 22.9137,1.2309 22.9137,2.7499 Z"
                          id="Stroke-1" stroke="#FD4915" stroke-width="2"></path>
                    <path d="M18.0954,3.9169 L10.5114,12.4999" id="Stroke-3" stroke="#FD4915" stroke-width="2"></path>
                    <path d="M22.2321,3.9169 L29.8151,12.4999" id="Stroke-5" stroke="#FD4915" stroke-width="2"></path>
                    <path d="M37.6969,35.2851 L2.3869,35.2851 C1.0689,35.2851 -0.0001,34.2171 -0.0001,32.8981 L-0.0001,14.9221 C-0.0001,13.6031 1.0689,12.5351 2.3869,12.5351 L37.6969,12.5351 C39.0139,12.5351 40.0839,13.6031 40.0839,14.9221 L40.0839,32.8981 C40.0839,34.2171 39.0139,35.2851 37.6969,35.2851 Z"
                          id="Stroke-7" stroke="#FD4915" stroke-width="2"></path>
                    <path d="M5.5641,15.0986 L5.0761,15.0986 C3.7571,15.0986 2.6891,16.1676 2.6891,17.4856 L2.6891,17.8176"
                          id="Stroke-9" stroke="#FD4915" stroke-width="2" stroke-linecap="round"></path>
                    <path d="M34.7487,32.8466 L35.2367,32.8466 C36.5557,32.8466 37.6237,31.7776 37.6237,30.4596 L37.6237,30.1276"
                          id="Stroke-11" stroke="#FD4915" stroke-width="2" stroke-linecap="round"></path>
                    <path d="M11.6188,21.4257 C11.6028,20.8787 11.4488,20.4567 11.1558,20.1577 C10.8628,19.8597 10.4548,19.7087 9.9318,19.7087 C9.3848,19.7087 8.9748,19.8337 8.7038,20.0837 C8.4318,20.3337 8.2968,20.7087 8.2968,21.2087 C8.2968,21.5797 8.4178,21.8577 8.6598,22.0407 C8.8978,22.2207 9.3768,22.3967 10.0958,22.5687 C11.0988,22.8107 11.7908,23.1147 12.1698,23.4827 C12.5488,23.8497 12.7378,24.4007 12.7378,25.1347 C12.7378,25.9437 12.4848,26.5837 11.9788,27.0567 C11.4728,27.5297 10.7908,27.7657 9.9318,27.7657 C9.0488,27.7657 8.3638,27.5077 7.8778,26.9897 C7.3908,26.4727 7.1398,25.7377 7.1248,24.7887 L8.0208,24.7887 C8.0288,25.4177 8.1988,25.9047 8.5308,26.2477 C8.8628,26.5917 9.3298,26.7637 9.9318,26.7637 C10.5528,26.7637 11.0168,26.6407 11.3258,26.3947 C11.6348,26.1487 11.7888,25.7777 11.7888,25.2807 C11.7888,24.8317 11.6678,24.5037 11.4258,24.2967 C11.1868,24.0897 10.7088,23.9007 9.9898,23.7287 C8.9858,23.4867 8.2948,23.1917 7.9158,22.8437 C7.5368,22.4957 7.3478,21.9787 7.3478,21.2907 C7.3478,20.4977 7.5798,19.8687 8.0448,19.4047 C8.5098,18.9397 9.1388,18.7067 9.9318,18.7067 C10.7318,18.7067 11.3558,18.9437 11.8038,19.4157 C12.2508,19.8887 12.4878,20.5587 12.5148,21.4257 L11.6188,21.4257 Z"
                          id="Fill-13" fill="#FD4915"></path>
                    <path d="M18.7243,25.6474 C19.1463,25.0554 19.3583,24.2654 19.3583,23.2804 C19.3583,22.2474 19.1503,21.4314 18.7353,20.8344 C18.3203,20.2364 17.7523,19.9374 17.0333,19.9374 C16.3173,19.9374 15.7513,20.2364 15.3363,20.8344 C14.9213,21.4314 14.7133,22.2474 14.7133,23.2804 C14.7133,24.2654 14.9253,25.0554 15.3473,25.6474 C15.7703,26.2404 16.3313,26.5354 17.0333,26.5354 C17.7383,26.5354 18.3013,26.2404 18.7243,25.6474 M14.5423,26.5354 C13.9103,25.7144 13.5933,24.6344 13.5933,23.2944 C13.5933,21.8924 13.9043,20.7774 14.5253,19.9494 C15.1463,19.1214 15.9823,18.7074 17.0333,18.7074 C18.0873,18.7074 18.9253,19.1214 19.5463,19.9494 C20.1673,20.7774 20.4783,21.8924 20.4783,23.2944 C20.4783,24.6344 20.1613,25.7144 19.5293,26.5354 C18.8963,27.3554 18.0643,27.7654 17.0333,27.7654 C16.0053,27.7654 15.1753,27.3554 14.5423,26.5354"
                          id="Fill-15" fill="#FD4915"></path>
                    <polygon id="Fill-17" fill="#FD4915"
                             points="21.609 27.5429 21.609 18.9299 22.084 18.9299 22.558 18.9299 22.558 26.5179 26.144 26.5179 26.144 27.0269 26.144 27.5429"></polygon>
                    <path d="M28.0778,26.5585 L29.8708,26.5585 C30.5698,26.5585 31.0978,26.2775 31.4528,25.7125 C31.8078,25.1485 31.9858,24.3165 31.9858,23.2185 C31.9858,22.1325 31.8058,21.3125 31.4438,20.7555 C31.0828,20.1995 30.5468,19.9195 29.8358,19.9195 L28.0778,19.9195 L28.0778,26.5585 Z M27.1288,18.9295 L27.6028,18.9295 L29.8358,18.9295 C30.8398,18.9295 31.6128,19.2945 32.1558,20.0235 C32.6988,20.7515 32.9708,21.7855 32.9708,23.1245 C32.9708,24.5355 32.7018,25.6245 32.1648,26.3925 C31.6278,27.1605 30.8628,27.5425 29.8708,27.5425 L27.6028,27.5425 L27.1288,27.5425 L27.1288,18.9295 Z"
                          id="Fill-19" fill="#FD4915"></path>
                </g>
            </g>
        </g>
    </g>
</svg>