<?xml version="1.0" encoding="UTF-8"?>
<svg width="25px" height="21px" viewBox="0 0 25 21" version="1.1" xmlns="http://www.w3.org/2000/svg">
    <!-- Generator: sketchtool 45.1 (43504) - http://www.bohemiancoding.com/sketch -->
    <title>C8A786A3-3D05-4C50-8D3B-6FE5C6588F3A</title>
    <desc>Created with sketchtool.</desc>
    <defs></defs>
    <g id="房计划超市" stroke="none" stroke-width="1" fill="none" fill-rule="evenodd">
        <g id="房计划超市-商品详情页" transform="translate(-334.000000, -1782.000000)" stroke="#7B7B7B">
            <g id="Group-18" transform="translate(334.000000, 1782.000000)">
                <path d="M20.771,20 L3.479,20 C1.841,20 0.5,18.659 0.5,17.021 L0.5,3.479 C0.5,1.841 1.841,0.5 3.479,0.5 L20.771,0.5 C22.409,0.5 23.75,1.841 23.75,3.479 L23.75,17.021 C23.75,18.659 22.409,20 20.771,20 Z" id="Stroke-1"></path>
                <path d="M8.1759,6.5833 C8.1759,7.5503 7.3919,8.3333 6.4259,8.3333 C5.4599,8.3333 4.6759,7.5503 4.6759,6.5833 C4.6759,5.6173 5.4599,4.8333 6.4259,4.8333 C7.3919,4.8333 8.1759,5.6173 8.1759,6.5833 Z" id="Stroke-3"></path>
                <path d="M4.5052,17.5833 C4.5052,17.5833 5.0332,14.4883 7.2552,13.5833 C9.5052,12.6663 11.3442,13.3933 13.1292,13.7123 C14.2142,13.9063 15.3012,13.3993 15.8342,12.4353 L17.1332,10.0893 C17.6372,9.1813 18.4902,8.5173 19.4952,8.2543 L21.4222,7.7503" id="Stroke-5" stroke-linecap="round"></path>
            </g>
        </g>
    </g>
</svg>