<?xml version="1.0" encoding="UTF-8"?>
<svg width="25px" height="29px" viewBox="0 0 25 29" version="1.1" xmlns="http://www.w3.org/2000/svg">
    <!-- Generator: sketchtool 45.1 (43504) - http://www.bohemiancoding.com/sketch -->
    <title>31120095-9EAF-4E44-9E15-394FD0D2EB7F</title>
    <desc>Created with sketchtool.</desc>
    <defs></defs>
    <g id="个人中心" stroke="none" stroke-width="1" fill="none" fill-rule="evenodd" stroke-linecap="round">
        <g id="个人中心首页-修改" transform="translate(-48.000000, -928.000000)" stroke-width="2" stroke="#464646">
            <g id="Group-34" transform="translate(48.000000, 928.000000)">
                <g id="Group-16" transform="translate(1.000000, 1.000000)">
                    <g id="Group-4">
                        <g id="Group">
                            <path d="M21.9734352,26.2857143 L0.683447001,26.2857143 C0.305671821,26.2857143 0.000309243698,26.0391674 0.000309243698,25.7353865 L0.000309243698,0.550186305 C0.000309243698,0.246405374 0.305671821,-0.000141468254 0.683447001,-0.000141468254 L21.9734352,-0.000141468254 C22.3505273,-0.000141468254 22.656573,0.246405374 22.656573,0.550186305 L22.656573,25.7353865 C22.656573,26.0391674 22.3505273,26.2857143 21.9734352,26.2857143 Z"
                                  id="Stroke-1"></path>
                            <path d="M21.9734352,6.36607143 L0.683447001,6.36607143 C0.305671821,6.36607143 0.000309243698,6.04918254 0.000309243698,5.65873016 L0.000309243698,0.70734127 C0.000309243698,0.316888889 0.305671821,0 0.683447001,0 L21.9734352,0 C22.3505273,0 22.656573,0.316888889 22.656573,0.70734127 L22.656573,5.65873016 C22.656573,6.04918254 22.3505273,6.36607143 21.9734352,6.36607143 Z"
                                  id="Stroke-3"></path>
                            <path d="M5.205293,13.1428571 L16.8436798,13.1428571" id="Stroke-5"></path>
                            <path d="M5.205293,18.6190476 L16.8332884,18.6190476" id="Stroke-7"></path>
                        </g>
                    </g>
                </g>
            </g>
        </g>
    </g>
</svg>