<?xml version="1.0" encoding="UTF-8"?>
<svg width="19px" height="28px" viewBox="0 0 19 28" version="1.1" xmlns="http://www.w3.org/2000/svg">
    <!-- Generator: sketchtool 45.1 (43504) - http://www.bohemiancoding.com/sketch -->
    <title>D85C07A9-A557-41DC-A447-52CD5CF195B9</title>
    <desc>Created with sketchtool.</desc>
    <defs></defs>
    <g id="首页" stroke="none" stroke-width="1" fill="none" fill-rule="evenodd">
        <g id="小区切换" transform="translate(-48.000000, -251.000000)">
            <rect id="Rectangle" fill="#FFFFFF" x="0" y="146.635228" width="750" height="1187.36477"></rect>
            <g id="Group-2" transform="translate(49.000000, 252.000000)" stroke="#9F9F9F" stroke-width="2"
               stroke-linecap="round">
                <path d="M12.1103714,8.45235849 C12.1103714,10.3589623 10.5186857,11.904717 8.55542857,11.904717 C6.59168571,11.904717 5,10.3589623 5,8.45235849 C5,6.54575472 6.59168571,5 8.55542857,5 C10.5186857,5 12.1103714,6.54575472 12.1103714,8.45235849 Z"
                      id="Stroke-1"></path>
                <path d="M17,8.25471698 C17,8.80605959 16.9444185,9.34487169 16.8382181,9.86633384 C16.0660322,13.6539226 8.5,25.2258522 8.5,25.2258522 C8.5,25.2258522 0.965232368,13.6799475 0.172699673,9.91838367 C0.0595516114,9.3810174 0,8.82437342 0,8.25471698 C0,3.69553771 3.80534797,-2.84217094e-14 8.5,-2.84217094e-14 C13.1941558,-2.84217094e-14 17,3.69553771 17,8.25471698 Z"
                      id="Stroke-3"></path>
            </g>
        </g>
    </g>
</svg>