<?xml version="1.0" encoding="UTF-8"?>
<svg width="30px" height="24px" viewBox="0 0 30 24" version="1.1" xmlns="http://www.w3.org/2000/svg">
    <!-- Generator: sketchtool 45.1 (43504) - http://www.bohemiancoding.com/sketch -->
    <title>4360BAC6-B4FD-4F35-9147-2553C5F78812</title>
    <desc>Created with sketchtool.</desc>
    <defs></defs>
    <g id="个人中心" stroke="none" stroke-width="1" fill="none" fill-rule="evenodd">
        <g id="个人中心首页-修改" transform="translate(-45.000000, -1096.000000)">
            <g id="Group-37" transform="translate(45.000000, 1096.000000)">
                <path d="M15.8403309,11.6806618 C15.3764682,11.6806618 15,11.3041935 15,10.8403309 C15,10.3764682 15.3764682,10 15.8403309,10 C16.3041935,10 16.6806618,10.3764682 16.6806618,10.8403309 C16.6806618,11.3041935 16.3041935,11.6806618 15.8403309,11.6806618 Z"
                      id="Fill-11" fill="#9F9F9F"></path>
                <path d="M15.8403309,11.6806618 C15.3764682,11.6806618 15,11.3041935 15,10.8403309 C15,10.3764682 15.3764682,10 15.8403309,10 C16.3041935,10 16.6806618,10.3764682 16.6806618,10.8403309 C16.6806618,11.3041935 16.3041935,11.6806618 15.8403309,11.6806618 Z"
                      id="Fill-11-Copy" fill="#9F9F9F"></path>
                <path d="M15.8403309,11.6806618 C15.3764682,11.6806618 15,11.3041935 15,10.8403309 C15,10.3764682 15.3764682,10 15.8403309,10 C16.3041935,10 16.6806618,10.3764682 16.6806618,10.8403309 C16.6806618,11.3041935 16.3041935,11.6806618 15.8403309,11.6806618 Z"
                      id="Fill-11-Copy-2" fill="#9F9F9F"></path>
                <g id="Group-15" transform="translate(1.000000, 1.000000)" stroke-linecap="round" stroke="#464646"
                   stroke-width="2">
                    <g id="Page-1" transform="translate(0.069963, 0.584099)">
                        <path d="M24.7650669,18.4473494 C25.9998947,18.4473494 27.0009893,17.4462547 27.0009893,16.211427 L27.0009893,2.54484578 C27.0009893,1.31001805 25.9998947,0.308923353 24.7650669,0.308923353 L2.54496945,0.308923353 C1.31014171,0.308923353 0.309047021,1.31001805 0.309047021,2.54484578 L0.309047021,16.211427 C0.309047021,17.4462547 1.31014171,18.4473494 2.54496945,18.4473494 L19.2105347,18.4473494 L21.7012137,21.2515275 C21.9021747,21.4778405 22.2762712,21.335622 22.2762712,21.033253 L22.2762712,18.060886"
                              id="Stroke-1"></path>
                        <path d="M4.52162134,3.15607624 L3.36223125,5.74507159" id="Stroke-3"></path>
                        <path d="M7.38206856,3.15607624 L6.22267847,5.74507159" id="Stroke-5"></path>
                        <path d="M21.1878384,12.7427791 L20.0284483,15.3317745" id="Stroke-7"></path>
                        <path d="M24.0476673,12.7427791 L22.8882772,15.3317745" id="Stroke-9"></path>
                    </g>
                </g>
            </g>
        </g>
    </g>
</svg>