<?xml version="1.0" encoding="UTF-8"?>
<svg width="92px" height="92px" viewBox="0 0 92 92" version="1.1" xmlns="http://www.w3.org/2000/svg">
    <!-- Generator: sketchtool 45.1 (43504) - http://www.bohemiancoding.com/sketch -->
    <title>38708258-E358-4AD4-9218-0A12EBF258BD</title>
    <desc>Created with sketchtool.</desc>
    <defs>
        <linearGradient x1="50%" y1="0%" x2="50%" y2="100%" id="linearGradient-1">
            <stop stop-color="#FF5A3E" offset="0%"></stop>
            <stop stop-color="#FF4451" offset="33%"></stop>
            <stop stop-color="#FF3162" offset="73%"></stop>
            <stop stop-color="#FF2A68" offset="100%"></stop>
        </linearGradient>
    </defs>
    <g id="171129首页" stroke="none" stroke-width="1" fill="none" fill-rule="evenodd">
        <g id="首页-最新" transform="translate(-237.000000, -409.000000)">
            <rect id="Rectangle-9" fill="#FFFFFF" x="0" y="380" width="750" height="370"></rect>
            <g id="画板-1-副本" transform="translate(237.000000, 409.000000)" fill-rule="nonzero">
                <rect id="_矩形_" fill="url(#linearGradient-1)" x="0" y="0" width="92" height="92" rx="46"></rect>
                <g id="_编组_" transform="translate(20.240000, 23.920000)" fill="#FFFFFF">
                    <path d="M50.6552,19.1176 L25.76,0.92 L25.76,0.92 L0.8648,19.1176 C0.582120201,19.3234533 0.393769043,19.6340427 0.341895793,19.9798644 C0.290022543,20.325686 0.37895794,20.6778684 0.5888,20.9576 L1.0488,21.5832 C1.25465332,21.8658798 1.5652427,22.054231 1.91106437,22.1061042 C2.25688604,22.1579775 2.6090684,22.0690421 2.8888,21.8592 L25.76,5.1152 L48.668,21.8408 C48.9477316,22.0506421 49.299914,22.1395775 49.6457356,22.0877042 C49.9915573,22.035831 50.3021467,21.8474798 50.508,21.5648 L50.968,20.9392 C51.168216,20.6562059 51.2477459,20.3052385 51.1890774,19.9635806 C51.1304089,19.6219228 50.9383528,19.3175913 50.6552,19.1176 L50.6552,19.1176 Z"
                          id="_路径_"></path>
                    <path d="M45.1536,13.7264 L34.224,5.9064 L34.224,4.1768 C34.2336505,2.7520749 35.3755551,1.59385734 36.8,1.564 L42.4856,1.564 C43.9387716,1.564 45.1168,2.74202837 45.1168,4.1952 L45.1536,13.7264 Z"
                          id="_路径_2"></path>
                    <path d="M25.76,7.9488 L7.5992,21.5832 L7.5992,37.2784 C7.5992,40.5709008 10.2682992,43.24 13.5608,43.24 L38.64,43.24 C41.9325008,43.24 44.6016,40.5709008 44.6016,37.2784 L44.6016,21.6384 L25.76,7.9488 Z M34.316,26.4776 C32.936,35.9904 25.7784,37.5176 25.7784,37.5176 C18.2712,36.1928 16.9464,23.92 16.9464,23.92 C20.3150825,23.340592 23.4064519,21.6884197 25.76,19.2096 C28.1135481,21.6884197 31.2049175,23.340592 34.5736,23.92 L34.316,26.4776 Z"
                          id="_复合路径_"></path>
                    <path d="M22.5216,27.232 L25.4472,30.1576 C25.5039648,30.2113409 25.5928352,30.2113409 25.6496,30.1576 L30.5256,25.2816 C30.5823648,25.2278591 30.6712352,25.2278591 30.728,25.2816 L31.28,25.76 C31.3337409,25.8167648 31.3337409,25.9056352 31.28,25.9624 L25.76,31.4824 C25.7032352,31.5361409 25.6143648,31.5361409 25.5576,31.4824 L21.8776,27.8024 C21.8238591,27.7456352 21.8238591,27.6567648 21.8776,27.6 L22.2824,27.1952 C22.3156135,27.1601448 22.3639088,27.1436101 22.411638,27.150953 C22.4593672,27.158296 22.5004592,27.1885827 22.5216,27.232 L22.5216,27.232 Z"
                          id="_路径_3"></path>
                </g>
            </g>
        </g>
    </g>
</svg>