<?xml version="1.0" encoding="UTF-8"?>
<svg xmlns:xlink="http://www.w3.org/1999/xlink" width="20px" height="22px" viewBox="0 0 20 22" version="1.1"
     xmlns="http://www.w3.org/2000/svg">
    <!-- Generator: sketchtool 45.1 (43504) - http://www.bohemiancoding.com/sketch -->
    <title>202218E8-9BBB-4EAB-BAFD-FEED36963EBC</title>
    <desc>Created with sketchtool.</desc>
    <defs>
        <polygon id="path-1" points="0.845 8.0691 0.845 0.3701 0.345 0.3701 0.345 8.0691 0.845 8.0691"></polygon>
    </defs>
    <g id="首页" stroke="none" stroke-width="1" fill="none" fill-rule="evenodd">
        <g id="个人中心首页" transform="translate(-467.000000, -394.000000)">
            <g id="Group-17" transform="translate(467.000000, 394.000000)">
                <g id="Group-8" transform="translate(1.000000, 0.000000)">
                    <path d="M14.6583,3.6484 C14.6583,5.1514 11.3783,6.3694 7.3323,6.3694 C3.2863,6.3694 0.0073,5.1514 0.0073,3.6484 C0.0073,2.1454 3.2863,0.9274 7.3323,0.9274 C11.3783,0.9274 14.6583,2.1454 14.6583,3.6484 Z"
                          id="Stroke-13" stroke="#7B7B7B"></path>
                    <path d="M7.3326,12.2504 C3.2866,12.2504 0.0066,11.0324 0.0066,9.5294" id="Stroke-15"
                          stroke="#7B7B7B"></path>
                    <path d="M7.3326,17.996 C3.2866,17.996 0.0066,16.778 0.0066,15.275" id="Stroke-17"
                          stroke="#7B7B7B"></path>
                    <path d="M0.0069,3.6484 L0.0069,15.2754" id="Stroke-19" stroke="#7B7B7B"></path>
                    <path d="M14.6583,3.6484 L14.6583,8.9674" id="Stroke-21" stroke="#7B7B7B"></path>
                    <path d="M18.345,11.0836 C18.345,12.0786 16.173,12.8846 13.494,12.8846 C10.815,12.8846 8.644,12.0786 8.644,11.0836 C8.644,10.0886 10.815,9.2826 13.494,9.2826 C16.173,9.2826 18.345,10.0886 18.345,11.0836 Z"
                          id="Stroke-23" stroke="#7B7B7B"></path>
                    <path d="M13.4944,16.7793 C10.8154,16.7793 8.6434,15.9723 8.6434,14.9783" id="Stroke-25"
                          stroke="#7B7B7B"></path>
                    <path d="M18.345,14.9778 C18.345,15.9728 16.173,16.7788 13.494,16.7788" id="Stroke-27"
                          stroke="#7B7B7B"></path>
                    <path d="M13.4944,20.5836 C10.8154,20.5836 8.6434,19.7766 8.6434,18.7826" id="Stroke-29"
                          stroke="#7B7B7B"></path>
                    <path d="M18.345,18.7822 C18.345,19.7772 16.173,20.5832 13.494,20.5832" id="Stroke-31"
                          stroke="#7B7B7B"></path>
                    <path d="M8.6438,11.0836 L8.6438,18.7826" id="Stroke-33" stroke="#7B7B7B"></path>
                    <g id="Group-37" transform="translate(18.000000, 10.713500)">
                        <mask id="mask-2" fill="white">
                            <use xlink:href="#path-1"></use>
                        </mask>
                        <g id="Clip-36"></g>
                        <path d="M0.345,0.3701 L0.345,8.0691" id="Stroke-35" stroke="#231916"
                              mask="url(#mask-2)"></path>
                    </g>
                </g>
            </g>
        </g>
    </g>
</svg>