<?xml version="1.0" encoding="UTF-8"?>
<svg width="102px" height="102px" viewBox="0 0 102 102" version="1.1" xmlns="http://www.w3.org/2000/svg" xmlns:xlink="http://www.w3.org/1999/xlink">
    <!-- Generator: sketchtool 45.1 (43504) - http://www.bohemiancoding.com/sketch -->
    <title>60ED291D-BC39-4607-9247-1D49E71E68B8</title>
    <desc>Created with sketchtool.</desc>
    <defs></defs>
    <g id="首页" stroke="none" stroke-width="1" fill="none" fill-rule="evenodd">
        <g transform="translate(-232.000000, -198.000000)" id="Group-22">
            <g transform="translate(232.000000, 198.000000)">
                <g id="Group-21" transform="translate(1.000000, 1.000000)">
                    <g id="Group-15">
                        <g id="Group-37">
                            <g id="Group-18">
                                <circle id="Oval-Copy" stroke="#FD4915" stroke-width="2" cx="50" cy="50" r="50"></circle>
                                <path d="M49.9715593,25.4509804 C44.3564078,25.4509804 39.8042929,29.9673924 39.8042929,35.5385035 C39.8042929,35.8371841 39.8236111,36.1305406 39.8493687,36.4222998 C39.8928346,36.4228322 39.9346907,36.4286887 39.9786932,36.4286887 C42.6172348,36.4286887 44.9332702,35.0742443 46.2699811,33.0303322 C49.1773674,34.9560498 52.6680556,36.0826239 56.4259785,36.0826239 C57.6950758,36.0826239 58.9335859,35.9537813 60.1302399,35.7099387 C60.1313131,35.6524387 60.1388258,35.5965359 60.1388258,35.5385035 C60.1388258,29.9673924 55.5867109,25.4509804 49.9715593,25.4509804 Z" id="Stroke-11" stroke="#FD4915" stroke-width="2"></path>
                                <path d="M58.6008838,37.2592443 C58.6438131,36.7774156 58.6507891,36.2886656 58.6674242,35.8015128 C57.9193813,35.8941517 57.1622159,35.9569758 56.3884154,35.9569758 C52.6304924,35.9569758 49.1398043,34.8304017 46.2329545,32.9046841 C45.1125,34.6163739 43.3014205,35.8329248 41.1935922,36.1864434 C41.2113005,36.5442211 41.2113005,36.9046609 41.2424242,37.2592443 C40.3838384,37.7245684 39.8042929,38.560448 39.8042929,39.523573 C39.8042929,40.8242443 40.8517677,41.9018369 42.2335543,42.1302397 C43.4860164,45.7708415 45.849274,48.4185035 49.5106061,48.4185035 L50.332702,48.4185035 C53.9940341,48.4185035 56.3572917,45.7708415 57.6102904,42.1302397 C58.9915404,41.9018369 60.0395518,40.8242443 60.0395518,39.523573 C60.0395518,38.560448 59.4600063,37.7245684 58.6008838,37.2592443 Z" id="Stroke-13" stroke="#FD4915" stroke-width="2"></path>
                                <path d="M53.2551136,54.4278074 L50.2414773,53.3353074 C50.134154,53.2964417 50.0160985,53.2964417 49.9087753,53.3353074 L46.8951389,54.4278074 C46.579072,54.5428074 46.2436869,54.3101454 46.2436869,53.9757935 L46.2436869,50.9559787 C46.2436869,50.6168352 46.5876578,50.3841731 46.9058712,50.5076917 L49.8985795,51.6704694 C50.0118056,51.7146593 50.138447,51.7146593 50.2522096,51.6704694 L53.2449179,50.5076917 C53.5631313,50.3841731 53.9065657,50.6168352 53.9065657,50.9559787 L53.9065657,53.9757935 C53.9065657,54.3101454 53.5717172,54.5428074 53.2551136,54.4278074" id="Fill-15" fill="#FD4915"></path>
                                <path d="M39.2558712,52.6037582 C39.2204545,59.0389665 38.6430556,65.0610267 37.6578283,70.2482721" id="Stroke-17" stroke="#FD4915" stroke-width="2"></path>
                                <path d="M36.2631629,54.2084341 C34.3726641,55.2434341 33.0547348,57.0717211 32.6785669,59.1811193 L30.6818182,70.3819063 L49.8078914,70.3819063 C49.8078914,70.3819063 44.1133207,61.2452628 44.0564394,49.9417211 L36.2631629,54.2084341 Z" id="Stroke-19" stroke="#FD4915" stroke-width="2"></path>
                                <path d="M67.1293245,59.1811193 C66.7531566,57.0711887 65.4357639,55.2434341 63.5447285,54.2084341 L55.751452,49.9417211 C55.6945707,61.2447304 50,70.3819063 50,70.3819063 L69.1260732,70.3819063 L67.1293245,59.1811193 Z" id="Stroke-21" stroke="#FD4915" stroke-width="2"></path>
                                <path d="M60.7323232,52.6037582 C60.7677399,59.0389665 61.3451389,65.0610267 62.3303662,70.2482721" id="Stroke-23" stroke="#FD4915" stroke-width="2"></path>
                            </g>
                        </g>
                    </g>
                </g>
            </g>
        </g>
    </g>
</svg>