<?xml version="1.0" standalone="no"?><!DOCTYPE svg PUBLIC "-//W3C//DTD SVG 1.1//EN"
        "http://www.w3.org/Graphics/SVG/1.1/DTD/svg11.dtd">
<svg t="1514346099023" class="icon" style="" viewBox="0 0 1024 1024" version="1.1" xmlns="http://www.w3.org/2000/svg"
     p-id="1835"
     width="200" height="200">
    <defs>
        <style type="text/css"></style>
    </defs>
    <path d="M856.698206 605.853992c44.653592-79.802523 63.319392-143.308446 63.319392-197.836386 0-224.981347-183.035415-408.017606-408.017606-408.017606S103.982386 183.008406 103.982386 407.956836c0 90.400207 59.873204 216.78325 177.954333 375.637949C370.961996 903.359761 462.359007 999.459726 467.569225 1004.915559c11.364067 12.130449 27.545877 19.084441 44.430767 19.084441l0.726713 0c17.214907 0 33.768092-7.626687 45.441075-20.953131l24.120789-27.869142c0.003376-0.00422 0.006752-0.007596 0.010972-0.010972 17.109403-19.09879 103.075058-119.164024 106.725503-123.413733 0.837281-0.974015 1.560618-2.003736 2.233313-3.056245 0.258274-0.386567 0.501356-0.775667 0.734309-1.175739 0.06077-0.106348 0.124073-0.211008 0.183155-0.318201 0.248146-0.443962 0.486163-0.904804 0.718273-1.394343l-0.023633-0.015193c5.027063-10.590088 2.6241-23.628718-6.696562-31.635219-11.169939-9.595817-28.001655-8.316262-37.595784 2.851145-0.211008 0.245614-5.33176 6.206178-13.239509 15.400235l-117.305463 135.534898c-0.720805 0.822933-2.679806 2.735513-5.305595 2.735513l-0.726713 0c-1.575811 0-3.815031-0.387411-5.530107-2.230781l-0.254898-0.270935c-3.784646-3.957673-93.707974-98.306269-181.484925-216.392462C215.198991 604.433484 157.303358 485.53955 157.303358 407.956836c0-195.547367 159.11635-354.635864 354.696634-354.635864s354.696634 159.11635 354.696634 354.696634c0 31.510302-9.039599 69.155884-26.937329 112.394032-1.018748 1.425573-1.91258 2.970998-2.657017 4.632056-42.755361 95.446683-111.416641 192.696222-112.237886 193.855924-0.427925 0.603484-0.806896 1.225537-1.177427 1.850121-0.041358 0.057394-0.081027 0.113945-0.122385 0.172183 0.003376 0.000844 0.006752 0.002532 0.010128 0.003376-6.878873 11.792836-3.744133 27.092631 7.603054 35.145555 4.682698 3.32296 10.071008 4.919871 15.406143 4.919871 8.346647 0 16.566689-3.908719 21.764248-11.233242 0.501356-0.706456 2.948209-4.166993 6.880561-9.913173l0 0c23.095288-31.309422 41.420944-62.359726 58.943079-93.551828 7.440999-12.828465 15.028016-26.377735 22.481676-40.359993C856.668665 605.906322 856.683013 605.880157 856.698206 605.853992z"
          p-id="1836"></path>
    <path d="M312.013853 407.956836c0 53.452641 20.791921 103.692046 58.544695 141.462545 37.761214 37.778095 87.99218 58.583521 141.442288 58.583521 110.272976 0 199.986139-89.740173 199.986139-200.046066 0-110.275508-89.713164-199.991204-199.986139-199.991204S312.013853 297.681328 312.013853 407.956836zM658.666004 407.956836c0 80.90483-65.794099 146.725094-146.665168 146.725094s-146.665168-65.820264-146.665168-146.725094c0-80.874445 65.794099-146.670232 146.665168-146.670232S658.666004 327.082391 658.666004 407.956836z"
          p-id="1837"></path>
</svg>