<?xml version="1.0" encoding="UTF-8"?>
<svg width="19px" height="31px" viewBox="0 0 19 31" version="1.1" xmlns="http://www.w3.org/2000/svg">
    <!-- Generator: sketchtool 45.1 (43504) - http://www.bohemiancoding.com/sketch -->
    <title>43FE6A9E-E229-43D3-9D5D-6E9BF273A8B0</title>
    <desc>Created with sketchtool.</desc>
    <defs></defs>
    <g id="个人中心" stroke="none" stroke-width="1" fill="none" fill-rule="evenodd" stroke-linecap="round">
        <g id="个人中心首页-修改" transform="translate(-51.000000, -1179.000000)" stroke-width="2" stroke="#464646">
            <g id="Group-38" transform="translate(51.000000, 1179.000000)">
                <g id="Group-17" transform="translate(1.000000, 1.000000)">
                    <g id="Group-20">
                        <path d="M11.4723613,0.456817303 L11.4723613,5.67722567 C11.4723613,6.4087097 10.879154,7.00145605 10.14767,7.00145605 L6.19710317,7.00145605 C5.46561914,7.00145605 4.87241187,6.4087097 4.87241187,5.67722567 L4.87241187,0.456817303 C4.87241187,0.114351877 4.51335323,-0.0999770909 4.20453515,0.0470571903 C1.69757761,1.23992465 0,3.52425662 0,6.15105401 C0,8.91751093 1.88609492,11.3014022 4.61475619,12.4334278 L4.61475619,27.332748 C4.61475619,27.8079591 5.00008741,28.1928294 5.47529852,28.1928294 L10.8699356,28.1928294 C11.3451467,28.1928294 11.730017,27.8079591 11.730017,27.332748 L11.730017,12.4334278 C14.4586783,11.3014022 16.3447732,8.91751093 16.3447732,6.15105401 C16.3447732,3.52425662 14.6471956,1.23992465 12.140699,0.0470571903 C11.83142,-0.0999770909 11.4723613,0.114351877 11.4723613,0.456817303 Z"
                              id="Stroke-50"></path>
                    </g>
                </g>
            </g>
        </g>
    </g>
</svg>