<?xml version="1.0" encoding="UTF-8"?>
<svg width="102px" height="103px" viewBox="0 0 102 103" version="1.1" xmlns="http://www.w3.org/2000/svg" xmlns:xlink="http://www.w3.org/1999/xlink">
    <!-- Generator: sketchtool 45.1 (43504) - http://www.bohemiancoding.com/sketch -->
    <title>908C8AB7-9DBC-4093-98D2-4F3A1C8C8D32</title>
    <desc>Created with sketchtool.</desc>
    <defs></defs>
    <g id="首页" stroke="none" stroke-width="1" fill="none" fill-rule="evenodd">
        <g transform="translate(-47.000000, -395.000000)" id="Group-27" stroke="#FD4915" stroke-width="2">
            <g transform="translate(47.000000, 395.000000)">
                <g id="Group-8" transform="translate(1.000000, 1.000000)">
                    <circle id="Oval-Copy-5" cx="50" cy="50.7469517" r="50"></circle>
                    <path d="M42.9924225,53.830795 L42.9924225,53.830795 C40.8631661,53.830795 39.1372801,52.104909 39.1372801,49.9756526 L39.1372801,48.6244501 C39.1372801,46.4951938 40.8631661,44.7693077 42.9924225,44.7693077 C45.1216788,44.7693077 46.8475649,46.4951938 46.8475649,48.6244501 L46.8475649,49.9756526 C46.8475649,52.104909 45.1216788,53.830795 42.9924225,53.830795 Z" id="Stroke-51" stroke-linecap="round"></path>
                    <path d="M50.3383275,37 L65.6394668,37" id="Stroke-52" stroke-linecap="round"></path>
                    <path d="M50.3383275,41 L58.6844035,41" id="Stroke-53" stroke-linecap="round"></path>
                    <path d="M68.6467706,70.3639991 L31.3411693,70.3639991 C29.1170712,70.3639991 27.3139066,68.5608346 27.3139066,66.3367365 L27.3139066,64.3760877 L72.6740332,64.3760877 L72.6740332,66.3367365 C72.6740332,68.5608346 70.8708687,70.3639991 68.6467706,70.3639991 Z" id="Stroke-54" stroke-linecap="round"></path>
                    <path d="M51.1000475,61.93842 L51.1000475,60.5872175 C51.1000475,58.3923915 47.4703006,56.6126447 42.9922468,56.6126447 C38.5147785,56.6126447 34.8850316,58.3923915 34.8850316,60.5872175 L34.8850316,61.93842" id="Stroke-55" stroke-linecap="round"></path>
                    <path d="M40.5745427,38.675314 L31.8976915,38.675314 C30.9609826,38.675314 30.201663,39.4346336 30.201663,40.3707571 L30.201663,64.3756779 L69.7858085,64.3756779 L69.7858085,51.3934786" id="Stroke-57" stroke-linecap="round"></path>
                    <path d="M50.3602816,48.8496115 L52.9906772,48.8496115 L52.9906772,54.9206558 C52.9906772,55.6752919 53.9033829,56.0529026 54.4367215,55.519564 L61.1066741,48.8496115 L69.9849177,48.8496115 C71.3893956,48.8496115 72.5280823,47.7109248 72.5280823,46.3058615 L72.5280823,33.3230767 C72.5280823,31.9185988 71.3893956,30.7799121 69.9849177,30.7799121 L45.6621013,30.7799121 C44.257038,30.7799121 43.1183513,31.9185988 43.1183513,33.3230767 L43.1183513,41.3126178" id="Stroke-58" stroke-linecap="round"></path>
                </g>
            </g>
        </g>
    </g>
</svg>