<?xml version="1.0" encoding="UTF-8"?>
<svg width="92px" height="92px" viewBox="0 0 92 92" version="1.1" xmlns="http://www.w3.org/2000/svg">
    <!-- Generator: sketchtool 45.1 (43504) - http://www.bohemiancoding.com/sketch -->
    <title>318F2BD7-AAD7-4503-9D65-0A3A55980870</title>
    <desc>Created with sketchtool.</desc>
    <defs>
        <linearGradient x1="50%" y1="0%" x2="50%" y2="100%" id="linearGradient-1">
            <stop stop-color="#FF4199" offset="0%"></stop>
            <stop stop-color="#FF376E" offset="31%"></stop>
            <stop stop-color="#FF304E" offset="60%"></stop>
            <stop stop-color="#FF2C3B" offset="84%"></stop>
            <stop stop-color="#FF2A34" offset="100%"></stop>
        </linearGradient>
    </defs>
    <g id="171129首页" stroke="none" stroke-width="1" fill="none" fill-rule="evenodd">
        <g id="首页-最新" transform="translate(-605.000000, -590.000000)">
            <rect id="Rectangle-9" fill="#FFFFFF" x="0" y="380" width="750" height="370"></rect>
            <g id="画板-1-副本-6" transform="translate(605.000000, 590.000000)" fill-rule="nonzero">
                <rect id="_矩形_" fill="url(#linearGradient-1)" x="0" y="0" width="92" height="92" rx="46"></rect>
                <path d="M59.5976,27.048 L32.4024,27.048 C29.821242,27.048 27.7288,29.140442 27.7288,31.7216 L27.7288,51.2808 C27.7283067,53.8264525 29.7652407,55.9042888 32.3104,55.9544 L32.3104,63.6824 C32.3145655,64.1902955 32.6210321,64.6468322 33.0895183,64.8430358 C33.5580046,65.0392395 34.0983429,64.9373476 34.4632,64.584 L43.1112,55.9728 L59.6712,55.9728 C62.252358,55.9728 64.3448,53.880358 64.3448,51.2992 L64.3448,31.7216 C64.3449553,30.4692262 63.8424692,29.2691864 62.950016,28.3905696 C62.0575627,27.5119528 60.8498185,27.0282776 59.5976,27.048 Z M57.9416,45.724 C51.0859803,51.8409352 40.6858064,51.6809325 34.0216,45.356 C33.4153266,44.6855894 33.427508,43.6614027 34.0495549,43.0056013 C34.6716018,42.3497999 35.6937171,42.2835653 36.3952,42.8536 C41.7562286,47.9460232 50.1273249,48.0740705 55.6416,43.148 C56.0948085,42.6934168 56.7624976,42.5272163 57.3759255,42.7162933 C57.9893533,42.9053703 58.4476144,43.4186228 58.5662608,44.0494689 C58.6849073,44.6803151 58.4444223,45.3249842 57.9416,45.724 L57.9416,45.724 Z"
                      id="_复合路径_" fill="#FFFFFF"></path>
            </g>
        </g>
    </g>
</svg>