<?xml version="1.0" encoding="UTF-8"?>
<svg width="92px" height="92px" viewBox="0 0 92 92" version="1.1" xmlns="http://www.w3.org/2000/svg">
    <!-- Generator: sketchtool 45.1 (43504) - http://www.bohemiancoding.com/sketch -->
    <title>D432AD61-42A7-44D0-8F41-E7335F81B541</title>
    <desc>Created with sketchtool.</desc>
    <defs></defs>
    <g id="首页" stroke="none" stroke-width="1" fill="none" fill-rule="evenodd">
        <g id="首页-最新" transform="translate(-53.000000, -409.000000)" stroke="#FD4915" stroke-width="2">
            <g id="Group" transform="translate(53.000000, 409.000000)">
                <g id="Group-11-Copy" transform="translate(1.000000, 1.000000)">
                    <path d="M44.6183195,89.4425525 C19.9947235,89.4425525 0.0334327189,69.4838928 0.0334327189,44.8635424 C0.0334327189,20.2431919 19.9947235,0.284532217 44.6183195,0.284532217 C69.2419156,0.284532217 89.2032063,20.2431919 89.2032063,44.8635424 C89.2032063,69.4838928 69.2419156,89.4425525 44.6183195,89.4425525 Z"
                          id="Fill-79" fill="#FFFFFF"></path>
                    <path d="M36.0283749,44.0275757 L38.4840247,44.0275757" id="Stroke-80"
                          stroke-linecap="round"></path>
                    <path d="M53.1405698,35.1697409 L53.1405698,30.6075838 C53.1405698,29.5867223 52.3128367,28.758681 51.2914233,28.758681 L34.7300831,28.758681 C33.7090871,28.758681 32.881354,29.5867223 32.881354,30.6075838 L32.881354,58.9321065 C32.881354,59.9529679 33.7090871,60.7805919 34.7300831,60.7805919 L51.2914233,60.7805919 C52.3128367,60.7805919 53.1405698,59.9529679 53.1405698,58.9321065 L53.1405698,58.1720948"
                          id="Stroke-81" stroke-linecap="round"></path>
                    <path d="M56.9042243,45.2607539 L56.9042243,41.0834022 C56.9042243,38.7950198 55.0488166,36.9398567 52.7601326,36.9398567 C50.4714485,36.9398567 48.6164582,38.7950198 48.6164582,41.0834022 L48.6164582,45.2607539 L56.9042243,45.2607539 Z"
                          id="Stroke-82" stroke-linecap="round"></path>
                    <path d="M58.2313847,56.0245219 L47.2830181,56.0245219 C46.8029914,56.0245219 46.4135436,55.6351255 46.4135436,55.1547446 L46.4135436,46.3054702 C46.4135436,45.8250894 46.8029914,45.435693 47.2830181,45.435693 L58.2313847,45.435693 C58.7118288,45.435693 59.1012766,45.8250894 59.1012766,46.3054702 L59.1012766,55.1547446 C59.1012766,55.6351255 58.7118288,56.0245219 58.2313847,56.0245219 Z"
                          id="Stroke-83" stroke-linecap="round"></path>
                </g>
            </g>
        </g>
    </g>
</svg>