<?xml version="1.0" encoding="UTF-8"?>
<svg width="32px" height="32px" viewBox="0 0 32 32" version="1.1" xmlns="http://www.w3.org/2000/svg" xmlns:xlink="http://www.w3.org/1999/xlink">
    <!-- Generator: sketchtool 45.1 (43504) - http://www.bohemiancoding.com/sketch -->
    <title>5FA48650-9D7C-4B85-8448-F663783AB091</title>
    <desc>Created with sketchtool.</desc>
    <defs></defs>
    <g id="房计划超市" stroke="none" stroke-width="1" fill="none" fill-rule="evenodd">
        <g id="房计划超市-商品详情页" transform="translate(-56.000000, -2616.000000)">
            <g id="Group-18" transform="translate(0.000000, 1776.000000)"></g>
            <g id="Group-5" transform="translate(0.000000, 2595.000000)" fill="#FFFFFF">
                <rect id="Rectangle-4-Copy-2" x="0" y="0" width="290" height="110"></rect>
            </g>
            <g id="Page-1" transform="translate(57.000000, 2617.000000)" stroke="#7B7B7B" stroke-width="2">
                <path d="M0.827564162,14.8742214 C0.827564162,7.08858483 7.13851869,0.77763031 14.9241552,0.77763031 C22.7097917,0.77763031 29.0207463,7.08858483 29.0207463,14.8742214" id="Stroke-1"></path>
                <path d="M4.28420011,23.4455772 L3.18907761,23.4455772 C1.86217492,23.4455772 0.777941424,22.3613437 0.777941424,21.034441 L0.777941424,16.1312789 C0.777941424,14.8059318 1.86217492,13.7201427 3.18907761,13.7201427 L4.28420011,13.7201427 C5.60954723,13.7201427 6.6953363,14.8059318 6.6953363,16.1312789 L6.6953363,21.034441 C6.6953363,22.3613437 5.60954723,23.4455772 4.28420011,23.4455772 Z" id="Stroke-3"></path>
                <path d="M26.6640551,23.4455772 L25.5689326,23.4455772 C24.2420299,23.4455772 23.1577964,22.3613437 23.1577964,21.034441 L23.1577964,16.1312789 C23.1577964,14.8059318 24.2420299,13.7201427 25.5689326,13.7201427 L26.6640551,13.7201427 C27.9894022,13.7201427 29.0751913,14.8059318 29.0751913,16.1312789 L29.0751913,21.034441 C29.0751913,22.3613437 27.9894022,23.4455772 26.6640551,23.4455772 Z" id="Stroke-5"></path>
                <path d="M29.0748802,22.9365941 L21.4494675,28.4666516 C20.9672403,28.8166552 20.3885676,29.0048794 19.7927836,29.0048794 L15.38896,29.0048794" id="Stroke-7" stroke-linecap="round"></path>
            </g>
        </g>
    </g>
</svg>