<?xml version="1.0" encoding="UTF-8"?>
<svg width="30px" height="30px" viewBox="0 0 30 30" version="1.1" xmlns="http://www.w3.org/2000/svg">
    <!-- Generator: sketchtool 45.1 (43504) - http://www.bohemiancoding.com/sketch -->
    <title>034BACF4-BF26-4B1F-B9FC-F490B9F7568F</title>
    <desc>Created with sketchtool.</desc>
    <defs></defs>
    <g id="个人中心" stroke="none" stroke-width="1" fill="none" fill-rule="evenodd">
        <g id="个人中心首页-修改" transform="translate(-46.000000, -842.000000)" stroke-width="2" stroke="#464646">
            <g id="Group-33" transform="translate(46.000000, 842.000000)">
                <g id="Group-11" transform="translate(1.000000, 1.000000)">
                    <g id="Group-21">
                        <path d="M27.1769325,13.5884518 C27.1769325,21.0931702 21.0930257,27.176788 13.5885963,27.176788 C6.08387789,27.176788 -2.89076633e-05,21.0931702 -2.89076633e-05,13.5884518 C-2.89076633e-05,6.08373335 6.08387789,0.000115630653 13.5885963,0.000115630653 C21.0930257,0.000115630653 27.1769325,6.08373335 27.1769325,13.5884518 Z"
                              id="Stroke-1"></path>
                        <path d="M18.4645097,9.02242857 C18.4645097,11.7154665 16.281403,13.8985732 13.5883651,13.8985732 C10.8956162,13.8985732 8.71250952,11.7154665 8.71250952,9.02242857 C8.71250952,6.32939067 10.8956162,4.14628395 13.5883651,4.14628395 C16.281403,4.14628395 18.4645097,6.32939067 18.4645097,9.02242857 Z"
                              id="Stroke-3"></path>
                        <path d="M3.67604299,23.2627771 C4.12555715,18.1573947 8.4125636,14.1536833 13.634733,14.1536833 C18.603093,14.1536833 22.7253258,17.7781261 23.5009184,22.5273661"
                              id="Stroke-5"></path>
                    </g>
                </g>
            </g>
        </g>
    </g>
</svg>