<?xml version="1.0" encoding="UTF-8"?>
<svg width="92px" height="92px" viewBox="0 0 92 92" version="1.1" xmlns="http://www.w3.org/2000/svg">
    <!-- Generator: sketchtool 45.1 (43504) - http://www.bohemiancoding.com/sketch -->
    <title>EABA5C41-9A97-4BCC-97CB-E15B3547E3AC</title>
    <desc>Created with sketchtool.</desc>
    <defs>
        <linearGradient x1="50%" y1="0%" x2="50%" y2="100%" id="linearGradient-1">
            <stop stop-color="#8F48FF" offset="0%"></stop>
            <stop stop-color="#8548FE" offset="19%"></stop>
            <stop stop-color="#7247FB" offset="67%"></stop>
            <stop stop-color="#6B47FA" offset="100%"></stop>
        </linearGradient>
    </defs>
    <g id="171129首页" stroke="none" stroke-width="1" fill="none" fill-rule="evenodd">
        <g id="首页-最新" transform="translate(-53.000000, -590.000000)">
            <rect id="Rectangle-9" fill="#FFFFFF" x="0" y="380" width="750" height="370"></rect>
            <g id="画板-1-副本-3" transform="translate(53.000000, 590.000000)" fill-rule="nonzero">
                <rect id="_矩形_" fill="url(#linearGradient-1)" x="0" y="0" width="92" height="92" rx="46"></rect>
                <g id="_编组_" transform="translate(23.920000, 25.760000)" fill="#FFFFFF">
                    <rect id="_矩形_2" x="33.4696" y="18.4" width="8.7584" height="17.9768"></rect>
                    <polygon id="_路径_"
                             points="35.3096 33.3408 22.7056 34.4816 22.7056 20.9392 35.3096 20.9392"></polygon>
                    <path d="M29.44,31.648 L28.9064,31.648 C29.4405067,31.2331211 29.7529209,30.5947095 29.7528,29.9184 L29.7528,29.9184 C29.7542848,28.7509513 28.8395648,27.7876621 27.6736,27.7288 C28.2448809,27.2220914 28.5109118,26.4543598 28.3756342,25.7028178 C28.2403567,24.9512758 27.723314,24.3244975 27.0112,24.0488 C27.991969,23.6698751 28.5649423,22.6473235 28.3760665,21.6130035 C28.1871906,20.5786835 27.2897946,19.8246342 26.2384,19.8168 L11.5184,19.8168 C10.4670054,19.8246342 9.56960936,20.5786835 9.38073353,21.6130035 C9.1918577,22.6473235 9.76483097,23.6698751 10.7456,24.0488 C9.77972995,24.4175227 9.20337934,25.4115859 9.36325398,26.4330072 C9.52312862,27.4544285 10.375658,28.2248409 11.408,28.2808 C10.9282002,28.6972175 10.6529177,29.3014962 10.6536,29.9368 L10.6536,29.9368 C10.6536,31.1460827 11.6339173,32.1264 12.8432,32.1264 L13.2296,32.1264 C12.6954933,32.5412789 12.3830791,33.1796905 12.3832,33.856 L12.3832,33.856 C12.3919339,34.4567294 12.6471225,35.0274802 13.0889872,35.4345524 C13.5308518,35.8416245 14.1205705,36.0492529 14.72,36.0088 L25.2816,36.0088 L29.44,31.648 Z"
                          id="_路径_2"></path>
                    <path d="M18.7864,10.0832 C18.9450723,10.0507451 19.1101349,10.0830248 19.2448916,10.1728626 C19.3796483,10.2627004 19.4729306,10.4026506 19.504,10.5616 C19.7064,11.6104 20.6632,13.9104 25.024,15.6584 C27.9038239,16.5418469 30.0971058,18.8892892 30.7832,21.8224 C30.8163445,22.0015141 30.7673261,22.1860462 30.6496645,22.3251007 C30.532003,22.4641553 30.3581295,22.5430408 30.176,22.54 L23.1288,22.54 C22.9109997,22.5446945 22.7073756,22.4323502 22.5952,22.2456 L21.2336,19.9272 C21.1862839,19.8532907 21.1235093,19.7905161 21.0496,19.7432 L16.7624,16.744 C16.6501326,16.6692003 16.5659716,16.5591436 16.5232,16.4312 C16.2012023,15.3330682 15.7503312,14.2769181 15.18,13.2848 C14.8304,13.064 15.8976,10.5984 18.7864,10.0832 Z"
                          id="_路径_3"></path>
                    <g id="_编组_2">
                        <path d="M8.2616,12.88 L11.04,19.0256 L16.56,19.0256 L12.88,10.9296 C14.1008149,9.59487638 14.9675042,7.97536936 15.4008,6.2192 C14.4256,3.2752 10.0096,0 10.0096,0 L8.8504,0.552 L10.6904,5.8328 C9.2184,8.5376 5.336,7.8568 5.336,7.8568 L3.2936,2.6128 L2.2632,2.9808 C1.60618887,5.71413971 1.60618887,8.56426029 2.2632,11.2976 C4.09033297,12.339446 6.15830895,12.8849857 8.2616,12.88 L8.2616,12.88 Z"
                              id="_路径_4"></path>
                        <path d="M18.9336,37.0024 L19.7984,38.9528 C20.3369881,40.258622 21.8321779,40.880588 23.138,40.342 C24.443822,39.8034119 25.0657881,38.3082221 24.5272,37.0024 L18.9336,37.0024 Z"
                              id="_路径_5"></path>
                    </g>
                </g>
            </g>
        </g>
    </g>
</svg>