<?xml version="1.0" encoding="UTF-8"?>
<svg width="41px" height="41px" viewBox="0 0 41 41" version="1.1" xmlns="http://www.w3.org/2000/svg">
    <!-- Generator: sketchtool 45.1 (43504) - http://www.bohemiancoding.com/sketch -->
    <title>755543AF-576C-4FEA-9851-6821AF623709</title>
    <desc>Created with sketchtool.</desc>
    <defs></defs>
    <g id="首页" stroke="none" stroke-width="1" fill="none" fill-rule="evenodd">
        <g id="个人中心首页-业主信息" transform="translate(-706.000000, -188.000000)">
            <g id="Group-10" transform="translate(706.000000, 188.000000)">
                <g id="Group-8-Copy">
                    <circle id="Oval-3" fill="#464646" cx="20.1293649" cy="20.1293649" r="20.1293649"></circle>
                    <g id="Group-9" transform="translate(12.518022, 12.518022)" stroke-width="2" stroke="#FFFFFF">
                        <g id="Group-7">
                            <path d="M14.5819587,2.01458135 L11.2889747,2.01458135 C10.9634272,2.01458135 10.7001583,1.75060476 10.7001583,1.42505723 L10.7001583,0.880826686 C10.7001583,0.466107441 10.3639951,0.130651942 9.94998354,0.130651942 L6.20123295,0.130651942 C5.7865137,0.130651942 5.4510582,0.466107441 5.4510582,0.880826686 L5.4510582,1.42505723 C5.4510582,1.75060476 5.18708162,2.01458135 4.86153409,2.01458135 L1.47867062,2.01458135 C0.770958595,2.01458135 0.197004144,2.5885358 0.197004144,3.29554011 L0.197004144,13.8496495 C0.197004144,14.5573615 0.770958595,15.1306083 1.47867062,15.1306083 L14.5819587,15.1306083 C15.2896707,15.1306083 15.8629175,14.5573615 15.8629175,13.8496495 L15.8629175,3.29554011 C15.8629175,2.5885358 15.2896707,2.01458135 14.5819587,2.01458135 Z"
                                  id="Stroke-1"></path>
                        </g>
                        <path d="M11.5018545,8.57280712 C11.5018545,10.489999 9.94771886,12.0448423 8.02981927,12.0448423 C6.1126274,12.0448423 4.5584918,10.489999 4.5584918,8.57280712 C4.5584918,6.65561525 6.1126274,5.10077194 8.02981927,5.10077194 C9.94771886,5.10077194 11.5018545,6.65561525 11.5018545,8.57280712 Z"
                              id="Stroke-3"></path>
                    </g>
                </g>
            </g>
        </g>
    </g>
</svg>