<?xml version="1.0" encoding="UTF-8"?>
<svg width="33px" height="36px" viewBox="0 0 33 36" version="1.1" xmlns="http://www.w3.org/2000/svg" xmlns:xlink="http://www.w3.org/1999/xlink">
    <!-- Generator: sketchtool 41.2 (35397) - http://www.bohemiancoding.com/sketch -->
    <title>F3CB9724-6649-48FE-AC4C-606407F640D2</title>
    <desc>Created with sketchtool.</desc>
    <defs></defs>
    <g id="首页" stroke="none" stroke-width="1" fill="none" fill-rule="evenodd">
        <g transform="translate(-647.000000, -45.000000)" id="Group-34" stroke="#FD4915" stroke-width="2">
            <g transform="translate(647.000000, 45.000000)">
                <path d="M30.9849123,29.1096809 C31.4082796,27.7824041 30.873285,27.1834279 30.5669903,26.9805927 C28.4419861,25.1999998 24.6983848,22.8027337 23.2363384,22.4964391 L23.1328789,22.4746581 L23.028058,22.4896325 C22.1976592,22.6094278 21.695336,23.1580355 21.2501878,23.6413004 C20.6689086,24.2756707 20.2863806,24.6282498 19.4777627,24.5166225 C19.2300044,24.4812284 18.1736282,24.0578611 14.8166388,20.1182313 L13.3845412,18.4002586 C10.0357197,14.298633 9.8233554,13.1850818 9.83969112,12.9414074 C9.89142088,12.1355121 10.3243173,11.8550823 11.0825667,11.4289925 C11.6584007,11.1050008 12.3118293,10.7374472 12.6045108,9.97102992 L12.6412662,9.87437695 L12.6399049,9.77091742 C12.6330983,8.31295489 10.9954429,4.24808458 9.67225004,1.90935478 C9.52658992,1.56902739 9.1100292,1 7.95700001,1 C5.61963152,1 1.52889633,3.30878099 1.08919334,6.04365188 C0.467074877,9.92066147 3.12707374,15.8736681 8.20203573,21.9709736 L10.076559,24.2212183 C15.1528823,30.3158011 20.5817848,34.0770994 24.6030932,34.2812958 L24.7759795,34.2853798 L24.7773408,34.2853798 C27.4196426,34.2853798 30.319232,31.1938458 30.9849123,29.1096809 Z" id="Stroke-56"></path>
            </g>
        </g>
    </g>
</svg>