<?xml version="1.0" encoding="UTF-8"?>
<svg width="70px" height="56px" viewBox="0 0 70 56" version="1.1" xmlns="http://www.w3.org/2000/svg">
    <!-- Generator: sketchtool 45.1 (43504) - http://www.bohemiancoding.com/sketch -->
    <title>B3488352-21F8-4242-A8ED-A9198921ED82</title>
    <desc>Created with sketchtool.</desc>
    <defs></defs>
    <g id="一键洗衣" stroke="none" stroke-width="1" fill="none" fill-rule="evenodd">
        <g id="一键洗衣-添加" transform="translate(-171.000000, -1354.000000)">
            <g id="Group-15" transform="translate(171.000000, 1354.000000)">
                <g id="Group-14" transform="translate(1.000000, 1.000000)">
                    <path d="M0.71076867,0.71076867 L13.0967156,8.37916913 C13.7269951,8.76752316 14.1949299,9.36915358 14.4209392,10.0726474 L22.9233458,36.5985008 C23.3371657,37.8845256 24.5308769,38.7567306 25.8837495,38.7567306 L54.806575,38.7567306 C56.1626308,38.7567306 57.3595252,37.8813424 57.7701618,36.5921344 L66.5367766,9.02854799"
                          id="Stroke-1" stroke="#9F9F9F" stroke-width="3" stroke-linecap="round"></path>
                    <path d="M27.6873675,11.4510006 L53.2646185,11.4510006" id="Stroke-3" stroke="#9F9F9F"
                          stroke-width="3" stroke-linecap="round"></path>
                    <path d="M27.6873675,25.5445399 L53.2646185,25.5445399" id="Stroke-5" stroke="#9F9F9F"
                          stroke-width="3" stroke-linecap="round"></path>
                    <path d="M28.5852224,54.2701249 C26.1101095,54.2701249 24.1001184,52.2642867 24.1001184,49.7891738 C24.1001184,47.3140608 26.1101095,45.3082226 28.5852224,45.3082226 C31.0603354,45.3082226 33.0661736,47.3140608 33.0661736,49.7891738 C33.0661736,52.2642867 31.0603354,54.2701249 28.5852224,54.2701249 Z"
                          id="Fill-7" fill="#9F9F9F"></path>
                    <path d="M53.6493456,54.2701249 C51.1742326,54.2701249 49.1642415,52.2642867 49.1642415,49.7891738 C49.1642415,47.3140608 51.1742326,45.3082226 53.6493456,45.3082226 C56.1244586,45.3082226 58.1302968,47.3140608 58.1302968,49.7891738 C58.1302968,52.2642867 56.1244586,54.2701249 53.6493456,54.2701249 Z"
                          id="Fill-7-Copy" fill="#9F9F9F"></path>
                </g>
            </g>
        </g>
    </g>
</svg>