<?xml version="1.0" encoding="UTF-8"?>
<svg width="30px" height="27px" viewBox="0 0 30 27" version="1.1" xmlns="http://www.w3.org/2000/svg">
    <!-- Generator: sketchtool 45.1 (43504) - http://www.bohemiancoding.com/sketch -->
    <title>653ABA8F-2FED-4DA4-83CB-D663B21B0435</title>
    <desc>Created with sketchtool.</desc>
    <defs></defs>
    <g id="首页" stroke="none" stroke-width="1" fill="none" fill-rule="evenodd" stroke-linecap="round">
        <g id="图标-个人中心" transform="translate(-42.000000, -860.000000)" stroke="#9F9F9F" stroke-width="2">
            <g id="Group-18" transform="translate(42.000000, 860.000000)">
                <g id="Group-19" transform="translate(1.000000, 1.000000)">
                    <path d="M9.51796172,13.843985 L9.51796172,13.843985 C8.23975306,13.843985 7.20369062,12.8079226 7.20369062,11.5297139 L7.20369062,10.7185768 C7.20369062,9.44036816 8.23975306,8.40430572 9.51796172,8.40430572 C10.7961704,8.40430572 11.8322328,9.44036816 11.8322328,10.7185768 L11.8322328,11.5297139 C11.8322328,12.8079226 10.7961704,13.843985 9.51796172,13.843985 Z"
                          id="Stroke-51"></path>
                    <path d="M13.8070737,4.20215286 L22.9924631,4.20215286" id="Stroke-52"></path>
                    <path d="M13.8070737,6.60338307 L18.8172861,6.60338307" id="Stroke-53"></path>
                    <path d="M24.8124303,24.0050452 L2.41759619,24.0050452 C1.0824533,24.0050452 0,22.9225919 0,21.587449 L0,20.4104567 L27.2300265,20.4104567 L27.2300265,21.587449 C27.2300265,22.9225919 26.1475732,24.0050452 24.8124303,24.0050452 Z"
                          id="Stroke-54"></path>
                    <path d="M14.5364569,18.8050995 L14.5364569,17.9939624 C14.5364569,16.6763918 12.3574924,15.6079963 9.66928291,15.6079963 C6.98142485,15.6079963 4.80246041,16.6763918 4.80246041,17.9939624 L4.80246041,18.8050995"
                          id="Stroke-55"></path>
                    <path d="M8.0278407,4.80246041 L2.81906136,4.80246041 C2.25674796,4.80246041 1.80092265,5.25828571 1.80092265,5.82024767 L1.80092265,20.230583 L25.5635842,20.230583 L25.5635842,12.4372706"
                          id="Stroke-57"></path>
                    <path d="M13.9523063,10.847377 L15.5313526,10.847377 L15.5313526,14.4918707 C15.5313526,14.9448845 16.0792568,15.171567 16.399424,14.8513999 L20.4034468,10.847377 L25.7331235,10.847377 C26.5762422,10.847377 27.2598044,10.1638148 27.2598044,9.32034465 L27.2598044,1.52668089 C27.2598044,0.68356223 26.5762422,0 25.7331235,0 L11.1319532,0 C10.2884831,0 9.60492082,0.68356223 9.60492082,1.52668089 L9.60492082,6.32286277"
                          id="Stroke-58"></path>
                </g>
            </g>
        </g>
    </g>
</svg>