<?xml version="1.0" encoding="UTF-8"?>
<svg width="21px" height="31px" viewBox="0 0 21 31" version="1.1" xmlns="http://www.w3.org/2000/svg">
    <!-- Generator: sketchtool 45.1 (43504) - http://www.bohemiancoding.com/sketch -->
    <title>1140D477-B33B-419B-87AF-36A1264A1536</title>
    <desc>Created with sketchtool.</desc>
    <defs></defs>
    <g id="首页" stroke="none" stroke-width="1" fill="none" fill-rule="evenodd" stroke-linecap="round">
        <g id="图标-个人中心" transform="translate(-47.000000, -605.000000)" stroke="#9F9F9F" stroke-width="2">
            <g id="Group-22" transform="translate(47.000000, 605.000000)">
                <g id="Group-26" transform="translate(1.000000, 1.000000)">
                    <path d="M13.2234855,9.22924956 C13.2234855,11.3110971 11.4855014,12.9989285 9.34179323,12.9989285 C7.19755468,12.9989285 5.45957058,11.3110971 5.45957058,9.22924956 C5.45957058,7.14740198 7.19755468,5.45957058 9.34179323,5.45957058 C11.4855014,5.45957058 13.2234855,7.14740198 13.2234855,9.22924956 Z"
                          id="Stroke-1"></path>
                    <path d="M18.56254,9.51983951 C18.56254,10.1218583 18.5018498,10.7101948 18.3858881,11.2795867 C17.5427274,15.4153084 9.28126999,28.0508616 9.28126999,28.0508616 C9.28126999,28.0508616 1.05395085,15.4437253 0.188573211,11.3364207 C0.0650252452,10.7496628 0,10.1418554 0,9.51983951 C0,4.5416073 4.15511317,0.506397508 9.28126999,0.506397508 C14.4068849,0.506397508 18.56254,4.5416073 18.56254,9.51983951 Z"
                          id="Stroke-3"></path>
                </g>
            </g>
        </g>
    </g>
</svg>