<?xml version="1.0" encoding="UTF-8"?>
<svg width="92px" height="92px" viewBox="0 0 92 92" version="1.1" xmlns="http://www.w3.org/2000/svg">
    <!-- Generator: sketchtool 45.1 (43504) - http://www.bohemiancoding.com/sketch -->
    <title>D54CAFF1-A65B-424C-9CF2-070679B51274</title>
    <desc>Created with sketchtool.</desc>
    <defs>
        <linearGradient x1="50%" y1="0%" x2="50%" y2="100%" id="linearGradient-1">
            <stop stop-color="#FE6D41" offset="0%"></stop>
            <stop stop-color="#FE623F" offset="11%"></stop>
            <stop stop-color="#FF4238" offset="48%"></stop>
            <stop stop-color="#FF2F34" offset="79%"></stop>
            <stop stop-color="#FF2833" offset="100%"></stop>
        </linearGradient>
    </defs>
    <g id="171129首页" stroke="none" stroke-width="1" fill="none" fill-rule="evenodd">
        <g id="首页-最新" transform="translate(-421.000000, -409.000000)">
            <rect id="Rectangle-9" fill="#FFFFFF" x="0" y="380" width="750" height="370"></rect>
            <g id="画板-1-副本-5" transform="translate(421.000000, 409.000000)" fill-rule="nonzero">
                <rect id="_矩形_" fill="url(#linearGradient-1)" x="0" y="0" width="92" height="92" rx="46"></rect>
                <g id="_编组_" transform="translate(22.080000, 23.920000)" fill="#FFFFFF">
                    <path d="M30.0656,14.0208 C27.7630041,14.0308772 25.8988772,15.8950041 25.8888,18.1976 L25.8888,18.1976 C25.8988772,20.5001959 27.7630041,22.3643228 30.0656,22.3744 L47.3984,22.3744 L47.3984,14.0208 L30.0656,14.0208 Z M30.4152,20.5528 C29.4593026,20.5602392 28.5937247,19.989158 28.2244738,19.1074273 C27.8552229,18.2256966 28.0555514,17.2082355 28.7314934,16.5322934 C29.4074355,15.8563514 30.4248966,15.6560229 31.3066273,16.0252738 C32.188358,16.3945247 32.7594392,17.2601026 32.752,18.216 C32.7419886,19.5024093 31.7016093,20.5427886 30.4152,20.5528 Z"
                          id="_复合路径_"></path>
                    <ellipse id="_路径_" cx="8.9056" cy="32.7336" rx="8.4456" ry="2.4288"></ellipse>
                    <path d="M30.1944,11.3528 L44.4912,11.3528 L44.4912,11.3528 C44.4912,6.96279898 40.932401,3.404 36.5424,3.404 L16.8544,3.404 C12.464399,3.404 8.9056,6.96279898 8.9056,11.3528 L8.9056,25.1712 C8.89228485,26.4497238 9.18902065,27.7124294 9.7704,28.8512 C15.18,29.0168 19.3936,30.3416 19.3936,31.924 C19.3936,32.384 19.0624,32.8072 18.4552,33.1936 L36.524,33.1936 C38.6321528,33.1936 40.6539612,32.3561395 42.1446504,30.8654504 C43.6353395,29.3747612 44.4728,27.3529528 44.4728,25.2448 L44.4728,25.2448 L30.1944,25.2448 C26.408155,25.2346898 23.3413102,22.167845 23.3312,18.3816 L23.3312,18.3816 C23.2916711,16.534304 23.996675,14.7487158 25.2875432,13.4267006 C26.5784115,12.1046854 28.3466866,11.3573175 30.1944,11.3528 L30.1944,11.3528 Z"
                          id="_路径_2"></path>
                    <path d="M8.9056,40.48 C4.6736,40.48 1.1776,39.5968 0.552,38.4192 L0.46,38.4192 L0.46,41.2344 L0.5704,41.2344 C1.2144,42.3936 4.7104,43.2768 8.9056,43.2768 C13.1008,43.2768 16.56,42.32 17.2408,41.1976 L17.3512,41.1976 L17.3512,38.3824 L17.2592,38.3824 C16.56,39.56 13.1192,40.48 8.9056,40.48 Z"
                          id="_路径_3"></path>
                    <path d="M8.9056,36.4504 C4.6736,36.4504 1.1776,35.5672 0.552,34.3896 L0.46,34.3896 L0.46,37.2048 L0.5704,37.2048 C1.2144,38.364 4.7104,39.2472 8.9056,39.2472 C13.1008,39.2472 16.5968,38.364 17.2408,37.2048 L17.3512,37.2048 L17.3512,34.408 L17.2592,34.408 C16.56,35.5672 13.1192,36.4504 8.9056,36.4504 Z"
                          id="_路径_4"></path>
                    <path d="M38.1432,0.92 L15.2536,0.92 C10.1725803,0.92 6.0536,5.0389803 6.0536,10.12 L6.0536,26.2016 C6.0527911,27.0540049 6.17044986,27.9023865 6.4032,28.7224 C7.0656,28.7224 7.7464,28.7224 8.4456,28.7224 C8.04382379,27.7220888 7.83769798,26.6539824 7.8384,25.576 L7.8384,10.856 C7.8384,6.19162392 11.6196239,2.4104 16.284,2.4104 L37.1496,2.4104 C41.8139761,2.4104 45.5952,6.19162392 45.5952,10.856 L45.5952,11.3528 L47.4352,11.3528 L47.4352,10.1752 C47.4501174,7.70962963 46.4747397,5.34125202 44.7278305,3.60126124 C42.9809213,1.86127046 40.6086918,0.895298718 38.1432,0.92 Z"
                          id="_路径_5"></path>
                    <path d="M45.6136,25.0608 L45.6136,25.5576 C45.6136,30.2219761 41.8323761,34.0032 37.168,34.0032 L19.4672,34.0032 L19.4672,35.4936 L38.1432,35.4936 C43.2242197,35.4936 47.3432,31.3746197 47.3432,26.2936 L47.3432,25.116 L45.6136,25.0608 Z"
                          id="_路径_6"></path>
                </g>
            </g>
        </g>
    </g>
</svg>