<?xml version="1.0" encoding="UTF-8"?>
<svg width="40px" height="31px" viewBox="0 0 40 31" version="1.1" xmlns="http://www.w3.org/2000/svg" xmlns:xlink="http://www.w3.org/1999/xlink">
    <!-- Generator: sketchtool 45.1 (43504) - http://www.bohemiancoding.com/sketch -->
    <title>0688D8F6-8241-49B3-85D0-E850852FA642</title>
    <desc>Created with sketchtool.</desc>
    <defs></defs>
    <g id="房计划超市" stroke="none" stroke-width="1" fill="none" fill-rule="evenodd">
        <g id="房计划超市-商品详情页" transform="translate(-776.000000, -70.000000)">
            <g id="Group-13" transform="translate(776.000000, 70.000000)">
                <g id="Page-1-Copy" transform="translate(2.000000, 2.000000)">
                    <path d="M0.380054293,0.380054293 L7.00292964,4.48041583 C7.33994566,4.68807216 7.59015452,5.00976927 7.7110037,5.38593361 L12.2573157,19.569542 C12.4785889,20.2571909 13.1168768,20.7235666 13.8402697,20.7235666 L29.3055603,20.7235666 C30.0306553,20.7235666 30.6706453,20.2554888 30.8902164,19.5661378 L35.5778028,4.82764445" id="Stroke-1" stroke="#464646" stroke-width="3" stroke-linecap="round"></path>
                    <path d="M14.8046802,6.12295129 L28.4810625,6.12295129" id="Stroke-3" stroke="#464646" stroke-width="3" stroke-linecap="round"></path>
                    <path d="M14.8046802,13.6588913 L28.4810625,13.6588913" id="Stroke-5" stroke="#464646" stroke-width="3" stroke-linecap="round"></path>
                    <path d="M15.2847712,29.0187157 C13.9613064,29.0187157 12.8865464,27.9461763 12.8865464,26.6227115 C12.8865464,25.2992467 13.9613064,24.2267073 15.2847712,24.2267073 C16.608236,24.2267073 17.6807754,25.2992467 17.6807754,26.6227115 C17.6807754,27.9461763 16.608236,29.0187157 15.2847712,29.0187157 Z" id="Fill-7" fill="#464646"></path>
                    <path d="M28.6867795,29.0187157 C27.3633147,29.0187157 26.2885547,27.9461763 26.2885547,26.6227115 C26.2885547,25.2992467 27.3633147,24.2267073 28.6867795,24.2267073 C30.0102443,24.2267073 31.0827837,25.2992467 31.0827837,26.6227115 C31.0827837,27.9461763 30.0102443,29.0187157 28.6867795,29.0187157 Z" id="Fill-7-Copy" fill="#464646"></path>
                </g>
            </g>
        </g>
    </g>
</svg>