<?xml version="1.0" encoding="UTF-8"?>
<svg width="92px" height="92px" viewBox="0 0 92 92" version="1.1" xmlns="http://www.w3.org/2000/svg">
    <!-- Generator: sketchtool 45.1 (43504) - http://www.bohemiancoding.com/sketch -->
    <title>CE5458EF-9DC3-4029-AA5A-C1CCEC0D0BD2</title>
    <desc>Created with sketchtool.</desc>
    <defs>
        <linearGradient x1="50%" y1="0%" x2="50%" y2="100%" id="linearGradient-1">
            <stop stop-color="#FF4199" offset="0%"></stop>
            <stop stop-color="#FF376E" offset="31%"></stop>
            <stop stop-color="#FF304E" offset="60%"></stop>
            <stop stop-color="#FF2C3B" offset="84%"></stop>
            <stop stop-color="#FF2A34" offset="100%"></stop>
        </linearGradient>
    </defs>
    <g id="171129首页" stroke="none" stroke-width="1" fill="none" fill-rule="evenodd">
        <g id="首页-最新" transform="translate(-421.000000, -590.000000)">
            <rect id="Rectangle-9" fill="#FFFFFF" x="0" y="380" width="750" height="370"></rect>
            <g id="画板-1-副本-8" transform="translate(421.000000, 590.000000)" fill-rule="nonzero">
                <rect id="_矩形_" fill="url(#linearGradient-1)" x="0" y="0" width="92" height="92" rx="46"></rect>
                <g id="_编组_" transform="translate(23.920000, 23.920000)" fill="#FFFFFF">
                    <path d="M34.316,25.0608 C29.6516239,25.0608 25.8704,28.8420239 25.8704,33.5064 C25.8704,38.1707761 29.6516239,41.952 34.316,41.952 C38.9803761,41.952 42.7616,38.1707761 42.7616,33.5064 C42.7616,28.8420239 38.9803761,25.0608 34.316,25.0608 L34.316,25.0608 Z M34.316,39.7808 C30.8507446,39.7808 28.0416,36.9716554 28.0416,33.5064 C28.0416,30.0411446 30.8507446,27.232 34.316,27.232 C37.7812554,27.232 40.5904,30.0411446 40.5904,33.5064 C40.5904,35.1704743 39.929349,36.7663925 38.7526708,37.9430708 C37.5759925,39.119749 35.9800743,39.7808 34.316,39.7808 L34.316,39.7808 Z"
                          id="_复合路径_"></path>
                    <rect id="_矩形_2"
                          transform="translate(41.205806, 40.526812) rotate(-45.000000) translate(-41.205806, -40.526812) "
                          x="40.2306055" y="37.0860125" width="1.9504" height="6.8816" rx="0.53"></rect>
                    <g id="_编组_2">
                        <path d="M13.9104,21.62 C12.9168,21.6936 12.3893333,22.3069333 12.328,23.46 C12.2666667,24.6130667 12.788,25.2264 13.892,25.3 C14.8978667,25.3 15.4253333,24.6866667 15.4744,23.46 C15.5234667,22.2333333 15.0021333,21.62 13.9104,21.62 Z"
                              id="_路径_"></path>
                        <path d="M21.4728,21.6568 L20.6264,21.6568 L20.6264,25.3368 L21.4728,25.3368 C22.6258667,25.3368 23.2024,24.7234667 23.2024,23.4968 C23.2782422,23.0092132 23.1249769,22.5138977 22.7870081,22.1543564 C22.4490392,21.7948151 21.9641417,21.6112339 21.4728,21.6568 Z"
                              id="_路径_2"></path>
                        <path d="M41.2528,17.7376 L22.3376,1.38 C21.6345193,0.736779493 20.5566807,0.736779493 19.8536,1.38 L0.92,17.7376 C0.403965558,18.1813239 0.163853936,18.8666427 0.29011286,19.5354036 C0.416371784,20.2041644 0.88981952,20.7547666 1.53211288,20.9798036 C2.17440624,21.2048406 2.88796558,21.0701239 3.404,20.6264 L5.4648,18.7864 L5.4648,34.9968 C5.4648,36.0130039 6.28859606,36.8368 7.3048,36.8368 L24.7112,36.8368 C23.4687002,33.3452636 24.2228007,29.4542988 26.6797205,26.6797398 C29.1366403,23.9051808 32.9077851,22.6858608 36.524,23.4968 L36.524,18.7128 L38.732,20.5528 C39.5297201,21.2387377 40.7324623,21.1481201 41.4184,20.3504 C42.1043377,19.5526799 42.0137201,18.3499377 41.216,17.664 L41.2528,17.7376 Z M9.6784,25.944 C9.19508321,26.0235259 8.70000546,25.9070617 8.30283094,25.6204053 C7.90565642,25.3337489 7.6391697,24.9005622 7.5624,24.4168 L8.3168,24.2512 C8.33015976,24.587201 8.48224056,24.9026216 8.73681316,25.1223213 C8.99138577,25.3420209 9.3256586,25.4463301 9.66,25.4104 C10.3469333,25.4104 10.7088,25.1344 10.7456,24.5824 C10.7824,24.0304 10.4573333,23.7544 9.7704,23.7544 L9.3656,23.644 L9.2,23.644 C8.14506667,23.4232 7.64826667,22.9754667 7.7096,22.3008 C7.77093333,21.6261333 8.34746667,21.1906667 9.4392,20.9944 C10.5432,20.9944 11.1872,21.436 11.3712,22.3192 L10.6352,22.4848 C10.5499811,21.9282339 10.0337808,21.5431321 9.476,21.62 C8.86266667,21.62 8.53146667,21.8469333 8.4824,22.3008 C8.43333333,22.7546667 8.8136,23.0122667 9.6232,23.0736 L10.3224,23.2576 C11.1197333,23.5152 11.5122667,23.9568 11.5,24.5824 C11.5,25.4656 10.8928,25.9194667 9.6784,25.944 Z M13.892,25.944 C13.2426603,25.972625 12.6123565,25.7206915 12.1616453,25.2523744 C11.7109342,24.7840574 11.4833263,24.1445669 11.5368,23.4968 C11.4783475,22.8346601 11.7069165,22.1792816 12.1644609,21.6971001 C12.6220054,21.2149187 13.2645069,20.9523229 13.9288,20.976 C14.5832177,20.9743802 15.2088041,21.2451172 15.6555753,21.7233019 C16.1023464,22.2014867 16.3300159,22.8440002 16.284,23.4968 C16.331879,24.1463922 16.0998399,24.7854774 15.6463474,25.2530317 C15.1928549,25.720586 14.5611511,25.9720264 13.9104,25.944 L13.892,25.944 Z M19.7616,25.944 L16.56,25.944 L16.56,21.0496 L17.296,21.0496 L17.296,25.3184 L19.872,25.3184 L19.7616,25.944 Z M21.5096,25.944 L19.8904,25.944 L19.8904,21.0496 L21.4912,21.0496 C22.150928,20.9801234 22.806934,21.2109493 23.2777919,21.6782402 C23.7486499,22.1455311 23.9844577,22.7997628 23.92,23.46 C24.0263908,24.1244477 23.8104044,24.7998852 23.3382302,25.2793236 C22.8660559,25.7587621 22.1939945,25.9850347 21.528,25.8888 L21.5096,25.944 Z"
                              id="_复合路径_2"></path>
                    </g>
                </g>
            </g>
        </g>
    </g>
</svg>