<?xml version="1.0" encoding="UTF-8"?>
<svg width="102px" height="102px" viewBox="0 0 102 102" version="1.1" xmlns="http://www.w3.org/2000/svg" xmlns:xlink="http://www.w3.org/1999/xlink">
    <!-- Generator: sketchtool 45.1 (43504) - http://www.bohemiancoding.com/sketch -->
    <title>A1772609-74C0-4206-A7C7-E0B24472B600</title>
    <desc>Created with sketchtool.</desc>
    <defs></defs>
    <g id="首页" stroke="none" stroke-width="1" fill="none" fill-rule="evenodd">
        <g transform="translate(-416.000000, -198.000000)" id="Group-24">
            <g transform="translate(416.000000, 198.000000)">
                <g id="Group-23" transform="translate(1.000000, 1.000000)">
                    <g id="Group-16">
                        <circle id="Oval-Copy-2" stroke="#FD4915" stroke-width="2" cx="50" cy="50" r="50"></circle>
                        <polygon id="Stroke-28" stroke="#FD4915" stroke-width="2" stroke-linecap="round" points="29.0577215 53.3996203 70.7970253 53.3996203 70.7970253 31.0462342 29.0577215 31.0462342"></polygon>
                        <path d="M29.0574525,44.8541614 L29.0574525,53.3998892 L37.6031804,53.3998892 C37.6031804,48.6802373 33.7771044,44.8541614 29.0574525,44.8541614 Z" id="Stroke-30" stroke="#FD4915" stroke-width="2" stroke-linecap="round"></path>
                        <path d="M70.7968639,44.8541614 L70.7968639,53.3998892 L62.2511361,53.3998892 C62.2511361,48.6802373 66.077212,44.8541614 70.7968639,44.8541614 Z" id="Stroke-31" stroke="#FD4915" stroke-width="2" stroke-linecap="round"></path>
                        <path d="M29.0574525,39.592231 L29.0574525,31.0465032 L37.6031804,31.0465032 C37.6031804,35.7661551 33.7771044,39.592231 29.0574525,39.592231 Z" id="Stroke-32" stroke="#FD4915" stroke-width="2" stroke-linecap="round"></path>
                        <path d="M70.7968639,39.592231 L70.7968639,31.0465032 L62.2511361,31.0465032 C62.2511361,35.7661551 66.077212,39.592231 70.7968639,39.592231 Z" id="Stroke-33" stroke="#FD4915" stroke-width="2" stroke-linecap="round"></path>
                        <path d="M55.194038,42.22325 C55.194038,46.3409082 52.8360949,49.6785032 49.9272658,49.6785032 C47.0184367,49.6785032 44.6604937,46.3409082 44.6604937,42.22325 C44.6604937,38.1055918 47.0184367,34.7679968 49.9272658,34.7679968 C52.8360949,34.7679968 55.194038,38.1055918 55.194038,42.22325 Z" id="Stroke-34" stroke="#FD4915" stroke-width="2" stroke-linecap="round"></path>
                        <path d="M41.2779778,42.22325 C41.2779778,43.1641677 40.5151297,43.9270158 39.574212,43.9270158 C38.6338323,43.9270158 37.8709842,43.1641677 37.8709842,42.22325 C37.8709842,41.2823323 38.6338323,40.5194842 39.574212,40.5194842 C40.5151297,40.5194842 41.2779778,41.2823323 41.2779778,42.22325" id="Fill-35" fill="#FD4915"></path>
                        <path d="M58.5764462,42.22325 C58.5764462,43.1641677 59.3392943,43.9270158 60.280212,43.9270158 C61.2205918,43.9270158 61.9834399,43.1641677 61.9834399,42.22325 C61.9834399,41.2823323 61.2205918,40.5194842 60.280212,40.5194842 C59.3392943,40.5194842 58.5764462,41.2823323 58.5764462,42.22325" id="Fill-36" fill="#FD4915"></path>
                        <path d="M70.7968639,58 L29.0575601,58" id="Stroke-37" stroke="#FD4915" stroke-width="2" stroke-linecap="round"></path>
                        <path d="M70.7968639,63 L29.0575601,63" id="Stroke-38" stroke="#FD4915" stroke-width="2" stroke-linecap="round"></path>
                        <path d="M70.7968639,68 L29.0575601,68" id="Stroke-39" stroke="#FD4915" stroke-width="2" stroke-linecap="round"></path>
                    </g>
                </g>
            </g>
        </g>
    </g>
</svg>