<?xml version="1.0" encoding="UTF-8"?>
<svg width="32px" height="31px" viewBox="0 0 32 31" version="1.1" xmlns="http://www.w3.org/2000/svg">
    <!-- Generator: sketchtool 45.1 (43504) - http://www.bohemiancoding.com/sketch -->
    <title>576CDE92-309D-4758-9292-653329701380</title>
    <desc>Created with sketchtool.</desc>
    <defs></defs>
    <g id="房计划超市" stroke="none" stroke-width="1" fill="none" fill-rule="evenodd">
        <g id="房计划超市-商品详情页" transform="translate(-780.000000, -2616.000000)" stroke="#7B7B7B" stroke-width="2">
            <g id="Group-20" transform="translate(780.000000, 2616.000000)">
                <path d="M16.9404787,1.92596935 L19.4835127,9.75510371 C19.6638697,10.307652 20.178707,10.681483 20.7591287,10.681483 L28.9899674,10.681483 C30.2885379,10.681483 30.8279694,12.3407676 29.7769798,13.1048255 L23.1185265,17.9433125 C22.6479586,18.2843512 22.4512055,18.8893671 22.6315625,19.4402758 L25.1745965,27.2694101 C25.5763008,28.5040359 24.1629576,29.5304314 23.1136077,28.768013 L16.4535147,23.929526 C15.9845865,23.5884873 15.3484181,23.5884873 14.8794898,23.929526 L8.21939687,28.768013 C7.16840732,29.5304314 5.75670372,28.5040359 6.15676838,27.2694101 L8.701442,19.4402758 C8.88015942,18.8893671 8.6834063,18.2843512 8.21447804,17.9433125 L1.55438511,13.1048255 C0.505035161,12.3407676 1.04446662,10.681483 2.34303717,10.681483 L10.5738758,10.681483 C11.1542975,10.681483 11.6691348,10.307652 11.8478522,9.75510371 L14.3925258,1.92596935 C14.7925905,0.691343551 16.5387744,0.691343551 16.9404787,1.92596935 Z" id="Page-1-Copy-2"></path>
            </g>
        </g>
    </g>
</svg>