<?xml version="1.0" encoding="UTF-8"?>
<svg width="26px" height="29px" viewBox="0 0 26 29" version="1.1" xmlns="http://www.w3.org/2000/svg">
    <!-- Generator: sketchtool 45.1 (43504) - http://www.bohemiancoding.com/sketch -->
    <title>A397434C-33E1-4F89-8167-40D5247787E8</title>
    <desc>Created with sketchtool.</desc>
    <defs></defs>
    <g id="首页" stroke="none" stroke-width="1" fill="none" fill-rule="evenodd">
        <g id="图标-个人中心" transform="translate(-47.000000, -943.000000)" stroke="#9F9F9F" stroke-width="2">
            <g id="Group-13" transform="translate(47.000000, 943.000000)">
                <path d="M24.8723482,23.3793914 C25.2094101,22.3226862 24.7834766,21.8458141 24.5396216,21.6843278 C22.8478094,20.2667171 19.8673587,18.3581449 18.7033572,18.1142898 L18.6209884,18.096949 L18.5375357,18.1088708 C17.8764176,18.2042452 17.4764953,18.6410167 17.1220926,19.0257658 C16.6593099,19.5308167 16.354762,19.811521 15.7109847,19.7226494 C15.513733,19.6944706 14.672704,19.3574087 12.0000526,16.2208908 L10.8598948,14.8531348 C8.19374613,11.5876447 8.02467329,10.7010961 8.03767889,10.5070958 C8.0788633,9.86548607 8.42351178,9.64222322 9.02718852,9.30299374 C9.48563603,9.04504928 10.0058602,8.75242321 10.2388772,8.14224367 L10.2681398,8.06529385 L10.267056,7.98292503 C10.261637,6.82217496 8.95782531,3.58594741 7.90437146,1.72397857 C7.78840483,1.45302851 7.45676196,1 6.53878314,1 C4.67789811,1 1.42107834,2.83812523 1.07101086,5.01547994 C0.575714147,8.10214306 2.69345984,12.8416016 6.73386719,17.6959429 L8.22626014,19.4874647 C12.2677513,24.3396385 16.5899467,27.3341786 19.7914926,27.4967486 L19.9291353,27.5 C22.0338754,27.5 24.3423699,25.0386896 24.8723482,23.3793914 Z"
                      id="Stroke-56"></path>
            </g>
        </g>
    </g>
</svg>