<?xml version="1.0" encoding="UTF-8"?>
<svg width="22px" height="32px" viewBox="0 0 22 32" version="1.1" xmlns="http://www.w3.org/2000/svg">
    <!-- Generator: sketchtool 45.1 (43504) - http://www.bohemiancoding.com/sketch -->
    <title>C96911F9-226E-4BB5-AA19-57CD163D3563</title>
    <desc>Created with sketchtool.</desc>
    <defs></defs>
    <g id="个人中心" stroke="none" stroke-width="1" fill="none" fill-rule="evenodd" stroke-linecap="round">
        <g id="个人中心首页-修改" transform="translate(-50.000000, -1011.000000)" stroke-width="2" stroke="#464646">
            <g id="Group-36" transform="translate(50.000000, 1011.000000)">
                <g id="Group-22" transform="translate(1.000000, 1.000000)">
                    <g id="Group-26">
                        <path d="M13.5533939,9.45950705 C13.5533939,11.5932939 11.7720494,13.3232345 9.57485854,13.3232345 C7.37712409,13.3232345 5.5957796,11.5932939 5.5957796,9.45950705 C5.5957796,7.32572015 7.37712409,5.5957796 9.57485854,5.5957796 C11.7720494,5.5957796 13.5533939,7.32572015 13.5533939,9.45950705 Z"
                              id="Stroke-1"></path>
                        <path d="M19.0256506,9.75734683 C19.0256506,10.3743852 18.9634463,10.9773999 18.8445915,11.5609974 C17.9803951,15.7998998 9.51282532,28.7506933 9.51282532,28.7506933 C9.51282532,28.7506933 1.08024552,15.8290257 0.193277862,11.6192493 C0.0666475385,11.0178526 0,10.3948812 0,9.75734683 C0,4.65491435 4.25877771,0.519031452 9.51282532,0.519031452 C14.7663175,0.519031452 19.0256506,4.65491435 19.0256506,9.75734683 Z"
                              id="Stroke-3"></path>
                    </g>
                </g>
            </g>
        </g>
    </g>
</svg>