<?xml version="1.0" encoding="UTF-8"?>
<svg width="92px" height="92px" viewBox="0 0 92 92" version="1.1" xmlns="http://www.w3.org/2000/svg">
    <!-- Generator: sketchtool 45.1 (43504) - http://www.bohemiancoding.com/sketch -->
    <title>52EA751F-ACCC-494A-A7C3-4A255561D7ED</title>
    <desc>Created with sketchtool.</desc>
    <defs>
        <linearGradient x1="50%" y1="0%" x2="50%" y2="100%" id="linearGradient-1">
            <stop stop-color="#FEC529" offset="0%"></stop>
            <stop stop-color="#FFB730" offset="52%"></stop>
            <stop stop-color="#FFB033" offset="100%"></stop>
        </linearGradient>
    </defs>
    <g id="171129首页" stroke="none" stroke-width="1" fill="none" fill-rule="evenodd">
        <g id="首页-最新" transform="translate(-606.000000, -409.000000)">
            <rect id="Rectangle-9" fill="#FFFFFF" x="0" y="380" width="750" height="370"></rect>
            <g id="画板-1" transform="translate(606.000000, 409.000000)" fill-rule="nonzero">
                <rect id="_矩形_" fill="url(#linearGradient-1)" x="0" y="0" width="92" height="92" rx="46"></rect>
                <g id="_编组_" transform="translate(23.920000, 23.920000)" fill="#FFFFFF">
                    <g id="_编组_2" transform="translate(5.520000, 0.000000)">
                        <rect id="_矩形_2" x="1.1224" y="0.92" width="5.244" height="10.5064" rx="1.43"></rect>
                        <rect id="_矩形_3" x="24.564" y="0.92" width="5.244" height="10.5064" rx="1.43"></rect>
                    </g>
                    <path d="M41.9336,17.2408 L41.9336,8.372 C41.9336,6.43105048 40.3601495,4.8576 38.4192,4.8576 L37.4256,4.8576 L37.4256,10.0832 C37.4256,11.5465337 36.2393337,12.7328 34.776,12.7328 L30.5808,12.7328 C29.1174663,12.7328 27.9312,11.5465337 27.9312,10.0832 L27.9312,4.8576 L14.0392,4.8576 L14.0392,10.0832 C14.0392,11.5465337 12.8529337,12.7328 11.3896,12.7328 L7.1944,12.7328 C5.73106633,12.7328 4.5448,11.5465337 4.5448,10.0832 L4.5448,4.8576 L3.5512,4.8576 C2.61276343,4.8477729 1.70937896,5.21369615 1.04232045,5.87384213 C0.375261949,6.53398811 -5.14522089e-05,7.43351198 0,8.372 L0,17.2408 L41.9336,17.2408 Z"
                          id="_路径_"></path>
                    <path d="M35.4016,25.76 C30.5944347,25.7803266 26.7101111,29.6866112 26.7168866,34.4938147 C26.7236622,39.3010182 30.6189818,43.1963378 35.4261853,43.2031134 C40.2333888,43.2098889 44.1396734,39.3255653 44.16,34.5184 C44.1698347,32.1925269 43.2502358,29.9590749 41.6055805,28.3144195 C39.9609251,26.6697642 37.7274731,25.7501653 35.4016,25.76 L35.4016,25.76 Z M40.0568,35.696 L34.2608,35.696 L34.2608,29.9552 L36.6344,29.9552 L36.6344,33.3592 L40.0384,33.3592 L40.0568,35.696 Z"
                          id="_复合路径_"></path>
                    <path d="M0,19.5408 L0,37.352 C0,39.2929495 1.57345048,40.8664 3.5144,40.8664 L26.1464,40.8664 C23.0679693,36.3735562 23.6592117,30.3190674 27.5486794,26.5066637 C31.4381472,22.69426 37.5032544,22.2242848 41.9336,25.392 L41.9336,19.5408 L0,19.5408 Z M19.5592,34.5184 L5.52,34.5184 L5.52,31.5744 L19.5224,31.5744 L19.5592,34.5184 Z M19.5592,27.6736 L5.52,27.6736 L5.52,24.7296 L19.5224,24.7296 L19.5592,27.6736 Z"
                          id="_复合路径_2"></path>
                </g>
            </g>
        </g>
    </g>
</svg>