<?xml version="1.0" encoding="UTF-8"?>
<svg width="33px" height="30px" viewBox="0 0 33 30" version="1.1" xmlns="http://www.w3.org/2000/svg">
    <!-- Generator: sketchtool 45.1 (43504) - http://www.bohemiancoding.com/sketch -->
    <title>BE44DC34-BFB8-4663-B602-B71B1526A5F7</title>
    <desc>Created with sketchtool.</desc>
    <defs></defs>
    <g id="个人中心" stroke="none" stroke-width="1" fill="none" fill-rule="evenodd">
        <g id="个人中心首页-修改" transform="translate(-44.000000, -566.000000)" stroke-width="2" stroke="#464646">
            <g id="Group-30" transform="translate(44.000000, 566.000000)">
                <g id="Group-6" transform="translate(1.000000, 1.000000)">
                    <g id="Page-1">
                        <path d="M6.958,27.256 L6.958,1.152 C6.958,0.791 7.249,0.5 7.608,0.5 L23.13,0.5 C23.489,0.5 23.78,0.791 23.78,1.152 L23.78,27.256"
                              id="Stroke-1"></path>
                        <path d="M3.0654,27.256 L3.0654,6.788 C3.0654,6.429 3.3564,6.138 3.7154,6.138 L6.3064,6.138 C6.6664,6.138 6.9584,6.429 6.9584,6.788 L6.9584,27.256"
                              id="Stroke-3"></path>
                        <path d="M23.7803,27.256 L23.7803,6.788 C23.7803,6.429 24.0723,6.138 24.4313,6.138 L27.0223,6.138 C27.3823,6.138 27.6733,6.429 27.6733,6.788 L27.6733,27.256"
                              id="Stroke-5"></path>
                        <path d="M10,3.8106 L10,5.8696" id="Stroke-7" stroke-linecap="round"></path>
                        <path d="M15,3.8106 L15,5.8696" id="Stroke-9" stroke-linecap="round"></path>
                        <path d="M20,3.8106 L20,5.8696" id="Stroke-11" stroke-linecap="round"></path>
                        <path d="M10,9.5118 L10,11.5698" id="Stroke-13" stroke-linecap="round"></path>
                        <path d="M15,9.5118 L15,11.5698" id="Stroke-15" stroke-linecap="round"></path>
                        <path d="M20,9.5118 L20,11.5698" id="Stroke-17" stroke-linecap="round"></path>
                        <path d="M10,15.212 L10,17.27" id="Stroke-19" stroke-linecap="round"></path>
                        <path d="M15,15.212 L15,17.27" id="Stroke-21" stroke-linecap="round"></path>
                        <path d="M20,15.212 L20,17.27" id="Stroke-23" stroke-linecap="round"></path>
                        <path d="M10,20.9122 L10,22.9712" id="Stroke-25" stroke-linecap="round"></path>
                        <path d="M20,20.9122 L20,22.9712" id="Stroke-27" stroke-linecap="round"></path>
                        <path d="M13.2666,27.256 L13.2666,21.642 C13.2666,21.282 13.5576,20.99 13.9166,20.99 L16.7316,20.99 C17.0906,20.99 17.3826,21.282 17.3826,21.642 L17.3826,27.256"
                              id="Stroke-29" stroke-linecap="round"></path>
                        <path d="M0.5,28 L30.312,28" id="Stroke-31" stroke-linecap="round"></path>
                    </g>
                </g>
            </g>
        </g>
    </g>
</svg>