<?xml version="1.0" encoding="UTF-8"?>
<svg width="32px" height="28px" viewBox="0 0 32 28" version="1.1" xmlns="http://www.w3.org/2000/svg">
    <!-- Generator: sketchtool 45.1 (43504) - http://www.bohemiancoding.com/sketch -->
    <title>486045CE-B82B-4EC9-8AF3-06262500A02E</title>
    <desc>Created with sketchtool.</desc>
    <defs></defs>
    <g id="首页" stroke="none" stroke-width="1" fill="none" fill-rule="evenodd" stroke-linecap="round">
        <g id="图标-个人中心" transform="translate(-41.000000, -774.000000)" stroke="#9F9F9F" stroke-width="2">
            <g id="Group-17" transform="translate(41.000000, 774.000000)">
                <g id="Group-20" transform="translate(1.000000, 1.000000)">
                    <path d="M19.2376633,19.6999466 L14.5826315,19.6999466 C14.0101941,19.6999466 13.5461596,19.2359121 13.5461596,18.6634747 L13.5461596,14.008443 C13.5461596,13.4360055 14.0101941,12.9716214 14.5826315,12.9716214 L19.2376633,12.9716214 C19.8101007,12.9716214 20.2741352,13.4360055 20.2741352,14.008443 L20.2741352,18.6634747 C20.2741352,19.2359121 19.8101007,19.6999466 19.2376633,19.6999466 Z"
                          id="Stroke-48"></path>
                    <path d="M12.1134225,25.4110677 L25.1053392,25.4110677 C26.0019363,25.4110677 26.7285857,24.6844184 26.7285857,23.7878212 L26.7285857,12.5999392 C26.7285857,12.1568859 27.0877141,11.7977575 27.5307674,11.7977575 L29.23654,11.7977575 C29.9638887,11.7977575 30.2859503,10.8826269 29.7187582,10.4273346 L17.9413041,0.969353551 C17.3391433,0.485736596 16.4813613,0.485736596 15.8788508,0.969353551 L13.2541011,3.07726607"
                          id="Stroke-49"></path>
                    <path d="M8.78845979,4.36851984 L8.78845979,8.32907344 C8.78845979,8.88402652 8.33841277,9.33372385 7.78345969,9.33372385 L4.78629344,9.33372385 C4.23134037,9.33372385 3.78129335,8.88402652 3.78129335,8.32907344 L3.78129335,4.36851984 C3.78129335,4.10870249 3.50888727,3.94609809 3.27459706,4.0576482 C1.37265012,4.96263785 0.0847533402,6.69568603 0.0847533402,8.68855156 C0.0847533402,10.7873722 1.51567205,12.5959528 3.58581838,13.4547837 L3.58581838,24.7584121 C3.58581838,25.1189393 3.87815662,25.4109279 4.23868379,25.4109279 L8.33141904,25.4109279 C8.69194621,25.4109279 8.98393475,25.1189393 8.98393475,24.7584121 L8.98393475,13.4547837 C11.0540811,12.5959528 12.4849998,10.7873722 12.4849998,8.68855156 C12.4849998,6.69568603 11.197103,4.96263785 9.29550576,4.0576482 C9.06086587,3.94609809 8.78845979,4.10870249 8.78845979,4.36851984 Z"
                          id="Stroke-50"></path>
                </g>
            </g>
        </g>
    </g>
</svg>