<?xml version="1.0" encoding="UTF-8"?>
<svg width="27px" height="27px" viewBox="0 0 27 27" version="1.1" xmlns="http://www.w3.org/2000/svg">
    <!-- Generator: sketchtool 48.2 (47327) - http://www.bohemiancoding.com/sketch -->
    <title>F3564ABE-0B24-439F-A5BA-2F9584B86D26</title>
    <desc>Created with sketchtool.</desc>
    <defs></defs>
    <g id="邻聚首页" stroke="none" stroke-width="1" fill="none" fill-rule="evenodd"
       transform="translate(-540.000000, -1220.000000)">
        <rect id="Rectangle-Copy" fill="#FFFFFF" x="0" y="143" width="750" height="1138"></rect>
        <g id="Group-2" transform="translate(541.000000, 1221.000000)" stroke="#9F9F9F" stroke-linecap="round"
           stroke-linejoin="round" stroke-width="2">
            <path d="M2.946,10 L4.097,10 C5.724,10 7.044,11.319 7.044,12.946 L7.044,21.462 C7.044,23.089 5.724,24.408 4.097,24.408 L2.946,24.408 C1.319,24.408 0,23.089 0,21.462 L0,12.946 C0,11.319 1.319,10 2.946,10 Z"
                  id="Stroke-1"></path>
            <path d="M8.051,22.375 C8.61,22.581 10.288,23.161 12.336,23.5 C13.827,23.747 18.111,23.74 20.872,23.706 C22.285,23.688 23.467,22.629 23.638,21.227 L24.711,12.445 C24.916,10.764 23.604,9.281 21.91,9.281 L16.772,9.281 C17.415,6.09 18.166,2.99 17.833,1.643 C17.594,0.675 16.929,0 15.951,0 C14.611,0 14.216,0.482 14.216,1.824 C14.216,2.315 14.139,2.857 14.013,3.415 C13.363,6.292 11.614,8.801 9.175,10.46 L8,11.26"
                  id="Stroke-3"></path>
        </g>
    </g>
</svg>