<?xml version="1.0" encoding="UTF-8"?>
<svg width="92px" height="92px" viewBox="0 0 92 92" version="1.1" xmlns="http://www.w3.org/2000/svg">
    <!-- Generator: sketchtool 45.1 (43504) - http://www.bohemiancoding.com/sketch -->
    <title>D8EA30FD-8E4A-4ED7-B3CE-4BDE713B406C</title>
    <desc>Created with sketchtool.</desc>
    <defs>
        <linearGradient x1="50%" y1="0%" x2="50%" y2="100%" id="linearGradient-1">
            <stop stop-color="#3DA8DA" offset="0%"></stop>
            <stop stop-color="#3DA7DA" offset="2%"></stop>
            <stop stop-color="#3394E1" offset="60%"></stop>
            <stop stop-color="#308DE3" offset="100%"></stop>
        </linearGradient>
    </defs>
    <g id="171129首页" stroke="none" stroke-width="1" fill="none" fill-rule="evenodd">
        <g id="首页-最新" transform="translate(-52.000000, -409.000000)">
            <rect id="Rectangle-9" fill="#FFFFFF" x="0" y="380" width="750" height="370"></rect>
            <g id="Group" transform="translate(52.000000, 409.000000)" fill-rule="nonzero">
                <g id="画板-1-副本-2">
                    <rect id="_矩形_" fill="url(#linearGradient-1)" x="0" y="0" width="92" height="92" rx="46"></rect>
                    <g id="_编组_" transform="translate(29.440000, 25.760000)" fill="#FFFFFF">
                        <path d="M28.0784,0 L5.0416,0 C2.60271054,6.53699317e-15 0.6256,1.97711054 0.6256,4.416 L0.6256,36.064 C0.6256,38.5028895 2.60271054,40.48 5.0416,40.48 L28.0784,40.48 C30.5172895,40.48 32.4944,38.5028895 32.4944,36.064 L32.4944,4.416 C32.4944,3.24480398 32.0291442,2.1215771 31.2009835,1.29341645 C30.3728229,0.465255807 29.249596,-3.26849658e-15 28.0784,3.26849658e-15 L28.0784,0 Z M30.2864,36.0456 C30.2864,36.631198 30.0537721,37.1928114 29.6396918,37.6068918 C29.2256114,38.0209721 28.663998,38.2536 28.0784,38.2536 L5.3176,38.2536 C3.94572468,38.2536 2.8336,37.1414753 2.8336,35.7696 L2.8336,4.692 C2.8336,3.32012468 3.94572468,2.208 5.3176,2.208 L28.0784,2.208 C28.663998,2.208 29.2256114,2.4406279 29.6396918,2.85470823 C30.0537721,3.26878855 30.2864,3.83040199 30.2864,4.416 L30.2864,36.0456 Z"
                              id="_复合路径_"></path>
                        <path d="M21.712,6.8448 L3.1464,3.496 L2.8336,3.312 L2.8336,37.6832 L21.7488,33.8008 C22.6340102,33.6389401 23.2722763,32.8605669 23.2576,31.9608 L23.2576,8.7216 C23.2879645,7.79623811 22.6260127,6.99243954 21.712,6.8448 Z M19.0256,23.92 C17.8163173,23.92 16.836,22.9396827 16.836,21.7304 C16.836,20.5211173 17.8163173,19.5408 19.0256,19.5408 C20.2348827,19.5408 21.2152,20.5211173 21.2152,21.7304 C21.2152,22.9396827 20.2348827,23.92 19.0256,23.92 L19.0256,23.92 Z"
                              id="_复合路径_2"></path>
                    </g>
                </g>
            </g>
        </g>
    </g>
</svg>