<?xml version="1.0" encoding="UTF-8"?>
<svg width="33px" height="37px" viewBox="0 0 33 37" version="1.1" xmlns="http://www.w3.org/2000/svg">
    <!-- Generator: sketchtool 45.1 (43504) - http://www.bohemiancoding.com/sketch -->
    <title>A3ED8403-691D-4950-8DFB-079B94E8DFC4</title>
    <desc>Created with sketchtool.</desc>
    <defs></defs>
    <g id="首页" stroke="none" stroke-width="1" fill="none" fill-rule="evenodd">
        <g id="登录界面" transform="translate(-71.000000, -732.000000)" stroke="#9F9F9F">
            <g id="Group-5" transform="translate(71.000000, 732.000000)">
                <g id="Page-1" transform="translate(1.000000, 0.000000)">
                    <path d="M28.6348,35.9492 L3.0008,35.9492 C1.6258,35.9492 0.4998,34.8242 0.4998,33.4482 L0.4998,16.7472 C0.4998,15.3712 1.6258,14.2462 3.0008,14.2462 L28.6348,14.2462 C30.0108,14.2462 31.1358,15.3712 31.1358,16.7472 L31.1358,33.4482 C31.1358,34.8242 30.0108,35.9492 28.6348,35.9492 Z"
                          id="Stroke-1"></path>
                    <path d="M26.2245,14.2461 L26.2245,9.6661 C26.2245,4.6251 22.0995,0.5001 17.0585,0.5001 L14.5775,0.5001 C9.5355,0.5001 5.4115,4.6251 5.4115,9.6661 L5.4115,14.2461"
                          id="Stroke-3"></path>
                    <path d="M18.6512,23.2041 C18.6512,24.9531 17.3822,26.3711 15.8182,26.3711 C14.2532,26.3711 12.9842,24.9531 12.9842,23.2041 C12.9842,21.4551 14.2532,20.0371 15.8182,20.0371 C17.3822,20.0371 18.6512,21.4551 18.6512,23.2041 Z"
                          id="Stroke-5"></path>
                    <path d="M15.8179,26.3711 L15.8179,30.1211" id="Stroke-7" stroke-linecap="round"></path>
                </g>
            </g>
        </g>
    </g>
</svg>