<?xml version="1.0" encoding="UTF-8"?>
<svg width="35px" height="32px" viewBox="0 0 35 32" version="1.1" xmlns="http://www.w3.org/2000/svg">
    <!-- Generator: sketchtool 45.1 (43504) - http://www.bohemiancoding.com/sketch -->
    <title>5C078500-2A47-4483-924F-C036672D798D</title>
    <desc>Created with sketchtool.</desc>
    <defs></defs>
    <g id="首页" stroke="none" stroke-width="1" fill="none" fill-rule="evenodd">
        <g id="登录界面" transform="translate(-69.000000, -630.000000)" stroke="#9F9F9F">
            <g id="Group-4" transform="translate(69.000000, 630.000000)">
                <g id="Page-1">
                    <path d="M17.1667,23.1341 L17.1667,23.1341 C12.0127,23.1341 7.7967,18.9171 7.7967,13.7641 L7.7967,9.8701 C7.7967,4.7161 12.0127,0.5001 17.1667,0.5001 L17.1667,0.5001 C22.3207,0.5001 26.5367,4.7161 26.5367,9.8701 L26.5367,13.7641 C26.5367,18.9171 22.3207,23.1341 17.1667,23.1341 Z"
                          id="Stroke-1"></path>
                    <path d="M7.5,20.4986 L2.595,22.4416 C1.331,22.9426 0.5,24.1646 0.5,25.5246 L0.5,27.9546 C0.5,29.7866 1.985,31.2716 3.817,31.2716 L30.517,31.2716 C32.348,31.2716 33.833,29.7866 33.833,27.9546 L33.833,25.5286 C33.833,24.1666 33.001,22.9426 31.734,22.4436 L27.074,20.6046"
                          id="Stroke-3"></path>
                </g>
            </g>
        </g>
    </g>
</svg>