<?xml version="1.0" encoding="UTF-8"?>
<svg width="32px" height="27px" viewBox="0 0 32 27" version="1.1" xmlns="http://www.w3.org/2000/svg">
    <!-- Generator: sketchtool 45.1 (43504) - http://www.bohemiancoding.com/sketch -->
    <title>D62A819E-D33E-4C22-B220-9BDB1B36FE80</title>
    <desc>Created with sketchtool.</desc>
    <defs></defs>
    <g id="首页" stroke="none" stroke-width="1" fill="none" fill-rule="evenodd" stroke-linecap="round">
        <g id="图标-个人中心" transform="translate(-42.000000, -689.000000)" stroke="#9F9F9F" stroke-width="2">
            <g id="Group-15" transform="translate(42.000000, 689.000000)">
                <g id="Page-1" transform="translate(1.076764, 1.640876)">
                    <path d="M27.1723514,20.2405211 C28.5272103,20.2405211 29.6256163,19.1421151 29.6256163,17.7872562 L29.6256163,2.79221712 C29.6256163,1.43735814 28.5272103,0.338952199 27.1723514,0.338952199 L2.7923528,0.338952199 C1.43749383,0.338952199 0.339087889,1.43735814 0.339087889,2.79221712 L0.339087889,17.7872562 C0.339087889,19.1421151 1.43749383,20.2405211 2.7923528,20.2405211 L21.0778917,20.2405211 L23.8106768,23.3172789 C24.0311721,23.5655906 24.4416327,23.4095477 24.4416327,23.0777871 L24.4416327,19.8164916"
                          id="Stroke-1"></path>
                    <path d="M4.96114483,3.46286213 L3.68905641,6.30352037" id="Stroke-3"></path>
                    <path d="M8.09964137,3.46286213 L6.82755296,6.30352037" id="Stroke-5"></path>
                    <path d="M23.2473989,13.981439 L21.9753105,16.8220972" id="Stroke-7"></path>
                    <path d="M26.385217,13.981439 L25.1131286,16.8220972" id="Stroke-9"></path>
                </g>
            </g>
        </g>
    </g>
</svg>