<?xml version="1.0" encoding="UTF-8"?>
<svg width="32px" height="32px" viewBox="0 0 32 32" version="1.1" xmlns="http://www.w3.org/2000/svg">
    <!-- Generator: sketchtool 45.1 (43504) - http://www.bohemiancoding.com/sketch -->
    <title>44B4CFDF-BB82-4A1A-A8B8-C471DDEC856C</title>
    <desc>Created with sketchtool.</desc>
    <defs></defs>
    <g id="首页" stroke="none" stroke-width="1" fill="none" fill-rule="evenodd">
        <g id="图标-个人中心" transform="translate(-41.000000, -435.000000)" stroke="#9F9F9F" stroke-width="2">
            <g id="Group-11" transform="translate(41.000000, 435.000000)">
                <g id="Group-21" transform="translate(1.000000, 1.000000)">
                    <path d="M29.5670097,14.7834891 C29.5670097,22.9482106 22.9480533,29.5668525 14.7836464,29.5668525 C6.61892496,29.5668525 -3.14499497e-05,22.9482106 -3.14499497e-05,14.7834891 C-3.14499497e-05,6.61876771 6.61892496,0.000125799799 14.7836464,0.000125799799 C22.9480533,0.000125799799 29.5670097,6.61876771 29.5670097,14.7834891 Z"
                          id="Stroke-1"></path>
                    <path d="M20.0883723,9.81590669 C20.0883723,12.745784 17.7132721,15.1208842 14.7833948,15.1208842 C11.853832,15.1208842 9.47873178,12.745784 9.47873178,9.81590669 C9.47873178,6.88602938 11.853832,4.51092918 14.7833948,4.51092918 C17.7132721,4.51092918 20.0883723,6.88602938 20.0883723,9.81590669 Z"
                          id="Stroke-3"></path>
                    <path d="M3.99933285,25.3086236 C4.48837957,19.754248 9.1524071,15.39843 14.8338405,15.39843 C20.2391434,15.39843 24.7239062,19.3416247 25.5677083,24.5085369"
                          id="Stroke-5"></path>
                </g>
            </g>
        </g>
    </g>
</svg>