<?xml version="1.0" encoding="UTF-8"?>
<svg width="102px" height="102px" viewBox="0 0 102 102" version="1.1" xmlns="http://www.w3.org/2000/svg">
    <!-- Generator: sketchtool 45.1 (43504) - http://www.bohemiancoding.com/sketch -->
    <title>5D87D802-E233-4279-B92F-158495FA854F</title>
    <desc>Created with sketchtool.</desc>
    <defs></defs>
    <g id="首页" stroke="none" stroke-width="1" fill="none" fill-rule="evenodd">
        <g transform="translate(-601.000000, -396.000000)" id="Group-38">
            <g transform="translate(601.000000, 396.000000)">
                <g id="Group" transform="translate(1.000000, 1.000000)">
                    <circle id="Oval-Copy-6" stroke="#FD4915" stroke-width="2" cx="50" cy="50" r="50"></circle>
                    <path d="M31.5628903,37.5305088 L31.5628903,30.9434247 C31.5628903,28.9721429 33.1956645,27.3592759 35.1912774,27.3592759 L64.5240086,27.3592759 C66.5196215,27.3592759 68.1540301,28.9721429 68.1540301,30.9434247 L68.1540301,67.2644129 C68.1540301,69.2356947 66.5196215,70.8485616 64.5240086,70.8485616 L35.1912774,70.8485616 C33.1956645,70.8485616 31.5628903,69.2356947 31.5628903,67.2644129 L31.5628903,40.6351566" id="Stroke-9" stroke="#FD4915" stroke-width="2"></path>
                    <path d="M31.1019871,37 L68.4760086,37" id="Stroke-11" stroke="#FD4915" stroke-width="2"></path>
                    <path d="M60.4162495,53.6520744 C60.4162495,59.412544 55.6895398,64.0816243 49.8579699,64.0816243 C44.0264,64.0816243 39.2996903,59.412544 39.2996903,53.6520744 C39.2996903,47.8916047 44.0264,43.2225245 49.8579699,43.2225245 C55.6895398,43.2225245 60.4162495,47.8916047 60.4162495,53.6520744 Z" id="Stroke-13" stroke="#FD4915" stroke-width="2"></path>
                    <path d="M37.1643355,31 L43.450271,31" id="Stroke-15" stroke="#FD4915" stroke-width="2" stroke-linecap="round"></path>
                    <path d="M55.9028301,31.8578669 C55.9028301,32.4519961 55.4157763,32.9331115 54.814314,32.9331115 C54.214486,32.9331115 53.7274323,32.4519961 53.7274323,31.8578669 C53.7274323,31.2637378 54.214486,30.7826223 54.814314,30.7826223 C55.4157763,30.7826223 55.9028301,31.2637378 55.9028301,31.8578669" id="Fill-17" fill="#FD4915"></path>
                    <path d="M61.5042753,31.8578669 C61.5042753,32.4519961 61.0172215,32.9331115 60.4157591,32.9331115 C59.8159312,32.9331115 59.3288774,32.4519961 59.3288774,31.8578669 C59.3288774,31.2637378 59.8159312,30.7826223 60.4157591,30.7826223 C61.0172215,30.7826223 61.5042753,31.2637378 61.5042753,31.8578669" id="Fill-19" fill="#FD4915"></path>
                    <path d="M39.3425118,54.5628033 L41.2825548,53.8459736 C43.4644903,53.0403474 45.8948559,53.2130969 47.9378667,54.3206311 L48.3856946,54.5644178 C49.3173075,55.068136 50.3126624,55.4475391 51.3439742,55.6929403 L51.795071,55.8011106 C53.7367484,56.2628523 55.7846624,55.9900049 57.535114,55.0358464 L60.0733505,53.6522358" id="Stroke-21" stroke="#FD4915" stroke-width="2"></path>
                </g>
            </g>
        </g>
    </g>
</svg>