<?xml version="1.0" encoding="UTF-8"?>
<svg width="88px" height="96px" viewBox="0 0 88 96" version="1.1" xmlns="http://www.w3.org/2000/svg">
    <!-- Generator: sketchtool 45.1 (43504) - http://www.bohemiancoding.com/sketch -->
    <title>0805BD7A-399B-4142-BCDF-201834645B29</title>
    <desc>Created with sketchtool.</desc>
    <defs></defs>
    <g id="一键洗衣" stroke="none" stroke-width="1" fill="none" fill-rule="evenodd">
        <g id="一键洗衣-订单列表-暂无" transform="translate(-30.000000, -590.000000)">
            <g id="Group-3" transform="translate(30.000000, 590.000000)">
                <g id="Group-2" transform="translate(1.000000, 2.000000)">
                    <path d="M21.3643285,0.100878764 L0.745473867,20.4360667" id="Stroke-1" stroke="#9F9F9F"
                          stroke-width="3"></path>
                    <path d="M29.0001312,18.1635521 L59.9290759,18.1635521" id="Stroke-3" stroke="#9F9F9F"
                          stroke-width="3"></path>
                    <polyline id="Stroke-4" stroke="#9F9F9F" stroke-width="3"
                              points="72.9639566 35.2204018 72.9639566 0.310845114 21.5606417 0.310845114 21.5606417 20.6168711 0.956368098 20.6168711 0.956368098 92.2652368 72.9639566 92.2652368 72.9639566 77.2892278"></polyline>
                    <path d="M15.3027431,55.278816 L59.9298712,55.278816" id="Stroke-6" stroke="#9F9F9F"
                          stroke-width="3"></path>
                    <path d="M15.3027431,75.161993 L59.9298712,75.161993" id="Stroke-7" stroke="#9F9F9F"
                          stroke-width="3"></path>
                    <path d="M15.3027431,36.721184 L59.9298712,36.721184" id="Stroke-8" stroke="#9F9F9F"
                          stroke-width="3"></path>
                    <path d="M86.2194079,56.6381625 C86.2194079,70.5471076 74.9429955,81.8235201 61.0340503,81.8235201 C47.1251052,81.8235201 35.8486927,70.5471076 35.8486927,56.6381625 C35.8486927,42.7292174 47.1251052,31.4528049 61.0340503,31.4528049 C74.9429955,31.4528049 86.2194079,42.7292174 86.2194079,56.6381625"
                          id="Fill-9" fill="#FEFEFE"></path>
                    <path d="M81.58,56.6381625 C81.58,67.9848289 72.3807167,77.1841121 61.0340503,77.1841121 C49.687384,77.1841121 40.4881007,67.9848289 40.4881007,56.6381625 C40.4881007,45.2914961 49.687384,36.0922129 61.0340503,36.0922129 C72.3807167,36.0922129 81.58,45.2914961 81.58,56.6381625"
                          id="Fill-11" fill="#9F9F9F"></path>
                    <path d="M53.500182,50.3141192 L68.5676536,64.183298" id="Stroke-13" stroke="#FEFEFE"
                          stroke-width="3" stroke-linecap="round"></path>
                    <path d="M53.500182,64.1834305 L68.5676536,50.3142518" id="Stroke-15" stroke="#FEFEFE"
                          stroke-width="3" stroke-linecap="round"></path>
                </g>
            </g>
        </g>
    </g>
</svg>