<?xml version="1.0" encoding="UTF-8"?>
<svg width="32px" height="26px" viewBox="0 0 32 26" version="1.1" xmlns="http://www.w3.org/2000/svg">
    <!-- Generator: sketchtool 45.1 (43504) - http://www.bohemiancoding.com/sketch -->
    <title>A6B369FE-FA57-4902-AB60-98058FA29F4B</title>
    <desc>Created with sketchtool.</desc>
    <defs></defs>
    <g id="首页" stroke="none" stroke-width="1" fill="none" fill-rule="evenodd">
        <g id="个人中心首页" transform="translate(-52.000000, -935.000000)" stroke-width="2" stroke="#9F9F9F">
            <g id="Group-9" transform="translate(52.000000, 935.000000)">
                <g id="Group-5" transform="translate(1.000000, 1.000000)">
                    <g id="Group-7">
                        <path d="M18.2652692,23.5865143 L3.5745,23.5865143 C1.91873077,23.5865143 0.576807692,22.2573714 0.576807692,20.6173714 L0.576807692,11.5968 C0.576807692,9.9568 1.91873077,8.62765714 3.5745,8.62765714 L18.2652692,8.62765714 C19.9210385,8.62765714 21.2629615,9.9568 21.2629615,11.5968 L21.2629615,20.6173714 C21.2629615,22.2573714 19.9210385,23.5865143 18.2652692,23.5865143 Z"
                              id="Stroke-1"></path>
                        <path d="M7.67134615,8.62777143 L10.2490385,1.61291429 C10.5501923,0.792342857 11.4675,0.368342857 12.2971154,0.667771429 L28.7325,6.5912 C29.5621154,6.89062857 29.9890385,7.7992 29.6878846,8.62091429 L25.6159615,19.7020571 C25.3136538,20.5237714 24.3963462,20.9477714 23.5667308,20.6483429 L21.2648077,19.8186286"
                              id="Stroke-3"></path>
                        <path d="M1,13 L21.6861538,13" id="Stroke-5"></path>
                        <path d="M1,16 L21.6861538,16" id="Stroke-7"></path>
                    </g>
                </g>
            </g>
        </g>
    </g>
</svg>