<?xml version="1.0" encoding="UTF-8"?>
<svg width="92px" height="92px" viewBox="0 0 92 92" version="1.1" xmlns="http://www.w3.org/2000/svg">
    <!-- Generator: sketchtool 45.1 (43504) - http://www.bohemiancoding.com/sketch -->
    <title>3B2B0DA6-80BE-4AAE-A9D4-6F775D401BD3</title>
    <desc>Created with sketchtool.</desc>
    <defs></defs>
    <g id="首页" stroke="none" stroke-width="1" fill="none" fill-rule="evenodd">
        <g id="首页-最新" transform="translate(-237.000000, -409.000000)" stroke="#FD4915" stroke-width="2">
            <g id="Group-13" transform="translate(237.000000, 409.000000)">
                <g id="Group-11-Copy-2" transform="translate(1.000000, 1.000000)" fill="#FFFFFF">
                    <path d="M44.6183195,89.4425525 C19.9947235,89.4425525 0.0334327189,69.4838928 0.0334327189,44.8635424 C0.0334327189,20.2431919 19.9947235,0.284532217 44.6183195,0.284532217 C69.2419156,0.284532217 89.2032063,20.2431919 89.2032063,44.8635424 C89.2032063,69.4838928 69.2419156,89.4425525 44.6183195,89.4425525 Z"
                          id="Fill-79"></path>
                </g>
                <g id="Group-25" transform="translate(24.000000, 27.000000)" stroke-linecap="round">
                    <path d="M32.5378885,20 C31.1164185,21.9137122 28.8643384,23.1759755 26.3065659,23.2784263 C26.1083025,24.1555264 26,25.0888231 26,26.0584316 C26,31.130828 28.9272237,35.2426939 32.5378885,35.2426939 C36.1485532,35.2426939 39.075777,31.130828 39.075777,26.0584316 C39.075777,25.0888231 38.9674745,24.1555264 38.7692111,23.2784263 C36.2110018,23.1759755 33.9593585,21.9137122 32.5378885,20 Z"
                          id="Stroke-62"></path>
                    <path d="M32.6193715,14 C30.3104659,17.1084854 26.6529794,19.1586841 22.4979809,19.3253178 C22.1758407,20.7498276 22,22.265777 22,23.8406749 C22,32.0795306 26.7542636,38.7583416 32.6193715,38.7583416 C38.4844794,38.7583416 43.238743,32.0795306 43.238743,23.8406749 C43.238743,22.265777 43.0624334,20.7498276 42.7407622,19.3253178 C38.5857637,19.1586841 34.9282771,17.1084854 32.6193715,14 Z"
                          id="Stroke-63"></path>
                    <path d="M40.0954307,16.7079352 C39.1913751,13.0944427 35.905733,10.4111287 31.9753417,10.4111287 C30.7571173,10.4111287 29.6021956,10.6743079 28.5579363,11.1375404 C28.5630943,10.9996847 28.5790372,10.8641497 28.5790372,10.7249014 C28.5790372,4.80174436 23.7281784,0 17.7444366,0 C11.7611638,0 6.91030503,4.80174436 6.91030503,10.7249014 C6.91030503,11.3816891 6.97923458,12.0217669 7.09364826,12.6460633 C3.16138132,12.7356464 -3.55271368e-15,15.9123635 -3.55271368e-15,19.826168 C-3.55271368e-15,23.7961361 3.25141176,27.0146277 7.26198643,27.0146277 L19.7269819,27.0146277"
                          id="Stroke-64"></path>
                </g>
            </g>
        </g>
    </g>
</svg>