<?xml version="1.0" encoding="UTF-8"?>
<svg width="83px" height="91px" viewBox="0 0 83 91" version="1.1" xmlns="http://www.w3.org/2000/svg">
    <!-- Generator: sketchtool 45.1 (43504) - http://www.bohemiancoding.com/sketch -->
    <title>D2EAE00F-2BD5-4A00-9AF7-23149686074B</title>
    <desc>Created with sketchtool.</desc>
    <defs></defs>
    <g id="一键洗衣" stroke="none" stroke-width="1" fill="none" fill-rule="evenodd">
        <g id="一键洗衣-预约成功" transform="translate(-793.000000, -181.000000)">
            <g id="Group-2" transform="translate(793.000000, 181.000000)">
                <g id="Group" transform="translate(1.000000, 1.000000)">
                    <g id="Page-1-Copy">
                        <path d="M20.0279928,0.46964879 L0.463485751,19.7649945" id="Stroke-1" stroke="#FD4915"
                              stroke-width="3"></path>
                        <path d="M27.2733379,16.7950114 L56.6207274,16.7950114" id="Stroke-3" stroke="#FD4915"
                              stroke-width="3"></path>
                        <polyline id="Stroke-4" stroke="#FD4915" stroke-width="3"
                                  points="68.9890679 33.7933309 68.9890679 0.668878486 20.2142675 0.668878486 20.2142675 19.9365534 0.663595881 19.9365534 0.663595881 87.9211716 68.9890679 87.9211716 68.9890679 73.7109626"></polyline>
                        <path d="M14.2763673,53.1842029 L56.621482,53.1842029" id="Stroke-6" stroke="#FD4915"
                              stroke-width="3"></path>
                        <path d="M14.2763673,70.9122705 L56.621482,70.9122705" id="Stroke-7" stroke="#FD4915"
                              stroke-width="3"></path>
                        <path d="M14.2763673,35.4561353 L56.621482,35.4561353" id="Stroke-8" stroke="#FD4915"
                              stroke-width="3"></path>
                        <g id="Group-15" transform="translate(33.513503, 29.465871)">
                            <path d="M48.0531971,24.6500211 C48.0531971,37.8477307 37.3534053,48.5475225 24.1556957,48.5475225 C10.9579862,48.5475225 0.258194349,37.8477307 0.258194349,24.6500211 C0.258194349,11.4523115 10.9579862,0.752519741 24.1556957,0.752519741 C37.3534053,0.752519741 48.0531971,11.4523115 48.0531971,24.6500211"
                                  id="Fill-9" fill="#FEFEFE"></path>
                            <path d="M43.6510258,24.6500211 C43.6510258,35.4164744 34.922149,44.1453512 24.1556957,44.1453512 C13.3892425,44.1453512 4.66036566,35.4164744 4.66036566,24.6500211 C4.66036566,13.8835679 13.3892425,5.15469105 24.1556957,5.15469105 C34.922149,5.15469105 43.6510258,13.8835679 43.6510258,24.6500211"
                                  id="Fill-11" fill="#FD4915"></path>
                            <path d="M14.2282963,24.4092852 L18.9964767,30.3396389 C19.7649701,31.2967967 21.1975624,31.3659737 22.0566147,30.4893127 L34.0833467,18.1946771"
                                  id="Stroke-13" stroke="#FEFEFE" stroke-width="3" stroke-linecap="round"></path>
                        </g>
                    </g>
                </g>
            </g>
        </g>
    </g>
</svg>