<?xml version="1.0" encoding="UTF-8"?>
<svg width="39px" height="38px" viewBox="0 0 39 38" version="1.1" xmlns="http://www.w3.org/2000/svg">
    <!-- Generator: sketchtool 41.2 (35397) - http://www.bohemiancoding.com/sketch -->
    <title>B1C376D7-51D8-4BB6-8182-32F994FF9311</title>
    <desc>Created with sketchtool.</desc>
    <defs></defs>
    <g id="首页" stroke="none" stroke-width="1" fill="none" fill-rule="evenodd" stroke-linecap="round">
        <g transform="translate(-527.000000, -46.000000)" id="Group-32" stroke-width="2" stroke="#FD4915">
            <g transform="translate(527.000000, 46.000000)">
                <g id="Group-31" transform="translate(1.000000, 1.000000)">
                    <g id="Group-17">
                        <path d="M0,9.25616667 L0,2.44508333 C0,1.09458333 1.09458333,0 2.44354167,0 L9.69554167,0" id="Stroke-1"></path>
                        <path d="M35.903875,9.25616667 L35.903875,2.44508333 C35.903875,1.09458333 34.8092917,0 33.4603333,0 L26.2083333,0" id="Stroke-3"></path>
                        <path d="M35.903875,26.2083333 L35.903875,33.0194167 C35.903875,34.3699167 34.8092917,35.4645 33.4603333,35.4645 L26.2083333,35.4645" id="Stroke-5"></path>
                        <path d="M0,26.2083333 L0,33.0194167 C0,34.3699167 1.09458333,35.4645 2.44354167,35.4645 L9.69554167,35.4645" id="Stroke-7"></path>
                        <path d="M0,16.9583333 L36.2908333,16.9583333" id="Stroke-23"></path>
                    </g>
                </g>
            </g>
        </g>
    </g>
</svg>