<?xml version="1.0" encoding="UTF-8"?>
<svg width="46px" height="54px" viewBox="0 0 46 54" version="1.1" xmlns="http://www.w3.org/2000/svg">
    <!-- Generator: sketchtool 45.1 (43504) - http://www.bohemiancoding.com/sketch -->
    <title>D83E5296-8621-4C7D-B7C1-26A400879359</title>
    <desc>Created with sketchtool.</desc>
    <defs></defs>
    <g id="一键洗衣" stroke="none" stroke-width="1" fill="none" fill-rule="evenodd">
        <g id="一键洗衣-添加" transform="translate(-165.000000, -1226.000000)">
            <g id="Group-3" transform="translate(165.000000, 1226.000000)">
                <g id="Group" transform="translate(1.000000, 2.000000)">
                    <path d="M1.14073661,11.6026977 L1.14073661,4.08856967 C1.14073661,1.83985635 3.00330191,3.55271368e-15 5.2797706,3.55271368e-15 L38.7406909,3.55271368e-15 C41.0171596,3.55271368e-15 42.8815894,1.83985635 42.8815894,4.08856967 L42.8815894,45.5212507 C42.8815894,47.769964 41.0171596,49.6098203 38.7406909,49.6098203 L5.2797706,49.6098203 C3.00330191,49.6098203 1.14073661,47.769964 1.14073661,45.5212507 L1.14073661,15.1442831"
                          id="Stroke-9" stroke="#FD4915" stroke-width="3"></path>
                    <path d="M0,11.4073661 L42.6339146,11.4073661" id="Stroke-11" stroke="#FD4915"
                          stroke-width="3"></path>
                    <path d="M33.214325,30.1491552 C33.214325,36.7203338 27.8223942,42.0465245 21.1701089,42.0465245 C14.5178236,42.0465245 9.12589288,36.7203338 9.12589288,30.1491552 C9.12589288,23.5779765 14.5178236,18.2517858 21.1701089,18.2517858 C27.8223942,18.2517858 33.214325,23.5779765 33.214325,30.1491552 Z"
                          id="Stroke-13" stroke="#FD4915" stroke-width="3"></path>
                    <path d="M6.84441966,5.70368305 L14.0150164,5.70368305" id="Stroke-15" stroke="#FD4915"
                          stroke-width="3" stroke-linecap="round"></path>
                    <path d="M28.718498,5.78951734 C28.718498,6.46726222 28.1628979,7.01608824 27.4767878,7.01608824 C26.7925421,7.01608824 26.236942,6.46726222 26.236942,5.78951734 C26.236942,5.11177246 26.7925421,4.56294644 27.4767878,4.56294644 C28.1628979,4.56294644 28.718498,5.11177246 28.718498,5.78951734"
                          id="Fill-17" fill="#FD4915"></path>
                    <path d="M34.422181,5.78951734 C34.422181,6.46726222 33.866581,7.01608824 33.1804708,7.01608824 C32.4962251,7.01608824 31.9406251,6.46726222 31.9406251,5.78951734 C31.9406251,5.11177246 32.4962251,4.56294644 33.1804708,4.56294644 C33.866581,4.56294644 34.422181,5.11177246 34.422181,5.78951734"
                          id="Fill-19" fill="#FD4915"></path>
                    <path d="M9.12589288,31.0479401 L11.338971,30.2302261 C13.8279847,29.3112188 16.6003917,29.5082805 18.9309288,30.7716854 L19.4417826,31.0497818 C20.5045075,31.6243916 21.6399452,32.0571906 22.8164004,32.3371287 L23.330983,32.4605225 C25.5459255,32.9872481 27.8820559,32.6760011 29.8788602,31.5875576 L32.7743195,30.0092224"
                          id="Stroke-21" stroke="#FD4915" stroke-width="3"></path>
                </g>
            </g>
        </g>
    </g>
</svg>