<?xml version="1.0" encoding="UTF-8"?>
<svg width="54px" height="54px" viewBox="0 0 54 54" version="1.1" xmlns="http://www.w3.org/2000/svg" xmlns:xlink="http://www.w3.org/1999/xlink">
    <!-- Generator: sketchtool 45.1 (43504) - http://www.bohemiancoding.com/sketch -->
    <title>BEA241D2-4B37-4C99-94DC-A3387B039067</title>
    <desc>Created with sketchtool.</desc>
    <defs></defs>
    <g id="首页" stroke="none" stroke-width="1" fill="none" fill-rule="evenodd">
        <g transform="translate(-642.000000, -2030.000000)" id="Group-54" stroke="#BBBBBB" stroke-width="2">
            <g transform="translate(642.000000, 2030.000000)">
                <g id="Group-53" transform="translate(1.000000, 1.000000)">
                    <path d="M51.4596926,25.7298189 C51.4596926,39.9400505 39.9397768,51.4594189 25.7300926,51.4594189 C11.5198611,51.4594189 -5.47368422e-05,39.9400505 -5.47368422e-05,25.7298189 C-5.47368422e-05,11.5195874 11.5198611,0.000218947368 25.7300926,0.000218947368 C39.9397768,0.000218947368 51.4596926,11.5195874 51.4596926,25.7298189 Z" id="Stroke-1"></path>
                    <path d="M34.9626653,17.0840253 C34.9626653,22.1833095 30.8289389,26.3170358 25.7296547,26.3170358 C20.6309179,26.3170358 16.4971916,22.1833095 16.4971916,17.0840253 C16.4971916,11.9847411 20.6309179,7.85101474 25.7296547,7.85101474 C30.8289389,7.85101474 34.9626653,11.9847411 34.9626653,17.0840253 Z" id="Stroke-3"></path>
                    <path d="M6.96061053,44.0482147 C7.81176842,34.3811411 15.9292421,26.8000884 25.8174526,26.8000884 C35.2250737,26.8000884 43.0305474,33.6629937 44.4991368,42.6557095" id="Stroke-5"></path>
                </g>
            </g>
        </g>
    </g>
</svg>