<?xml version="1.0" encoding="UTF-8"?>
<svg width="50px" height="61px" viewBox="0 0 50 61" version="1.1" xmlns="http://www.w3.org/2000/svg" xmlns:xlink="http://www.w3.org/1999/xlink">
    <!-- Generator: sketchtool 45.1 (43504) - http://www.bohemiancoding.com/sketch -->
    <title>15A16D5E-CD74-433B-88A1-E1529079E9B6</title>
    <desc>Created with sketchtool.</desc>
    <defs></defs>
    <g id="首页" stroke="none" stroke-width="1" fill="none" fill-rule="evenodd" stroke-linecap="round">
        <g transform="translate(-353.000000, -2077.000000)" id="Group-48" stroke="#FFFFFF" stroke-width="2">
            <g transform="translate(353.000000, 2077.000000)">
                <g id="Group-47" transform="translate(1.000000, 1.000000)">
                    <path d="M5.6467939,28 L10.0530401,28" id="Stroke-80"></path>
                    <path d="M36.3517186,12.1061213 L36.3517186,3.92010582 C36.3517186,2.08834351 34.8664923,0.602564103 33.0337396,0.602564103 L3.31723008,0.602564103 C1.48522629,0.602564103 0,2.08834351 0,3.92010582 L0,54.7436467 C0,56.575409 1.48522629,58.0604396 3.31723008,58.0604396 L33.0337396,58.0604396 C34.8664923,58.0604396 36.3517186,56.575409 36.3517186,54.7436467 L36.3517186,53.3799349" id="Stroke-81"></path>
                    <path d="M43.1049569,30.2127286 L43.1049569,22.7171811 C43.1049569,18.611068 39.7757431,15.2822931 35.6690887,15.2822931 C31.5624343,15.2822931 28.2339695,18.611068 28.2339695,22.7171811 L28.2339695,30.2127286 L43.1049569,30.2127286 Z" id="Stroke-82"></path>
                    <path d="M45.4863205,49.5264805 L25.841338,49.5264805 C24.9800116,49.5264805 24.2812138,48.8277747 24.2812138,47.965813 L24.2812138,32.0872945 C24.2812138,31.2253327 24.9800116,30.526627 25.841338,30.526627 L45.4863205,30.526627 C46.3483959,30.526627 47.0471938,31.2253327 47.0471938,32.0872945 L47.0471938,47.965813 C47.0471938,48.8277747 46.3483959,49.5264805 45.4863205,49.5264805 Z" id="Stroke-83"></path>
                </g>
            </g>
        </g>
    </g>
</svg>