<?xml version="1.0" encoding="UTF-8"?>
<svg width="42px" height="42px" viewBox="0 0 42 42" version="1.1" xmlns="http://www.w3.org/2000/svg">
    <!-- Generator: sketchtool 45.1 (43504) - http://www.bohemiancoding.com/sketch -->
    <title>DD659E0F-7257-4463-9CB8-121CB387961F</title>
    <desc>Created with sketchtool.</desc>
    <defs></defs>
    <g id="首页" stroke="none" stroke-width="1" fill="none" fill-rule="evenodd">
        <g id="首页-最新" transform="translate(-655.000000, -1774.000000)" stroke="#FD4915" stroke-width="3">
            <g id="Group-43" transform="translate(655.000000, 1774.000000)">
                <g id="Group-10-Copy" transform="translate(2.000000, 2.000000)">
                    <path d="M37.6569743,18.8284671 C37.6569743,29.2271752 29.226975,37.656774 18.8286674,37.656774 C8.42995923,37.656774 -4.00551141e-05,29.2271752 -4.00551141e-05,18.8284671 C-4.00551141e-05,8.42975896 8.42995923,0.000160220456 18.8286674,0.000160220456 C29.226975,0.000160220456 37.6569743,8.42975896 37.6569743,18.8284671 Z"
                          id="Stroke-1"></path>
                    <path d="M25.5848436,12.5016817 C25.5848436,16.2332162 22.5598814,19.2581784 18.8283469,19.2581784 C15.0972131,19.2581784 12.0722509,16.2332162 12.0722509,12.5016817 C12.0722509,8.77014732 15.0972131,5.74518511 18.8283469,5.74518511 C22.5598814,5.74518511 25.5848436,8.77014732 25.5848436,12.5016817 Z"
                          id="Stroke-3"></path>
                    <path d="M5.09360857,32.2334317 C5.71646559,25.159298 11.656639,19.6116647 18.8925953,19.6116647 C25.7768678,19.6116647 31.488727,24.6337749 32.5634057,31.2144296"
                          id="Stroke-5"></path>
                </g>
            </g>
        </g>
    </g>
</svg>