<?xml version="1.0" encoding="UTF-8"?>
<svg width="52px" height="51px" viewBox="0 0 52 51" version="1.1" xmlns="http://www.w3.org/2000/svg" xmlns:xlink="http://www.w3.org/1999/xlink">
    <!-- Generator: sketchtool 45.1 (43504) - http://www.bohemiancoding.com/sketch -->
    <title>1CEFEC5E-874D-4CD0-915E-5419123BFAE5</title>
    <desc>Created with sketchtool.</desc>
    <defs></defs>
    <g id="首页" stroke="none" stroke-width="1" fill="none" fill-rule="evenodd" stroke-linecap="round">
        <g transform="translate(-516.000000, -2031.000000)" id="Group-50" stroke="#BBBBBB" stroke-width="2">
            <g transform="translate(516.000000, 2031.000000)">
                <g id="Group-49" transform="translate(1.000000, 1.000000)">
                    <path d="M11.5053021,12 L37.9056496,12" id="Stroke-1"></path>
                    <path d="M11.5053021,19 L37.9056496,19" id="Stroke-2"></path>
                    <path d="M11.5053021,26 L30.1169633,26" id="Stroke-3"></path>
                    <path d="M44.1718705,41.3983343 L38.5724694,41.3983343 C37.6256035,41.3983343 36.8581374,42.1673207 36.8602659,43.1144906 L36.869692,47.2291306 C36.8730367,48.6466928 35.2788114,49.4804456 34.1163617,48.6691938 L24.9998131,42.3077998 C24.1514651,41.7157806 23.1416572,41.3983343 22.1069159,41.3983343 L5.23908122,41.3983343 C2.34557589,41.3983343 0,39.0527584 0,36.1592531 L0,5.551525 C0,2.65801967 2.34557589,0.312443787 5.23908122,0.312443787 L44.1718705,0.312443787 C47.0653758,0.312443787 49.4109517,2.65801967 49.4109517,5.551525 L49.4109517,36.1592531 C49.4109517,39.0527584 47.0653758,41.3983343 44.1718705,41.3983343 Z" id="Stroke-4"></path>
                </g>
            </g>
        </g>
    </g>
</svg>