<?xml version="1.0" encoding="UTF-8"?>
<svg width="66px" height="66px" viewBox="0 0 66 66" version="1.1" xmlns="http://www.w3.org/2000/svg">
    <!-- Generator: sketchtool 45.1 (43504) - http://www.bohemiancoding.com/sketch -->
    <title>C6E78D62-8FA3-453B-A0D7-ED3CDB6DBD87</title>
    <desc>Created with sketchtool.</desc>
    <defs></defs>
    <g id="首页" stroke="none" stroke-width="1" fill="none" fill-rule="evenodd" stroke-linecap="round">
        <g id="首页-最新" transform="translate(-342.000000, -1631.000000)" stroke="#464646">
            <g id="Group-40" transform="translate(342.000000, 1631.000000)">
                <g id="Page-1" transform="translate(2.000000, 2.000000)">
                    <path d="M47.0333108,61.6438192 L15.4939712,61.6438192 C13.9185035,61.6438192 12.571398,60.5089289 12.2992088,58.9565281 L8.14947785,34.9254566 L54.3801108,34.9254566 L50.2280731,58.9565281 C49.9604974,60.5089289 48.6110851,61.6438192 47.0333108,61.6438192 Z"
                          id="Stroke-1" stroke-width="3"></path>
                    <path d="M23,50.207262 L23,61.6438192" id="Stroke-3" stroke-width="3"></path>
                    <path d="M39,50.207262 L39,61.6438192" id="Stroke-5" stroke-width="3"></path>
                    <path d="M0.844428871,48.5132306 L8.14970851,35.152896" id="Stroke-7" stroke-width="3"></path>
                    <path d="M62.0717606,48.5132306 L54.7687877,35.152896" id="Stroke-9" stroke-width="3"></path>
                    <path d="M9.27260404,18.6118699 L2.73314468,22.7938945 C2.01115146,23.255232 1.05387611,23.0453235 0.592538584,22.3233302 L0.50027108,22.1803156 C0.041240247,21.4583224 0.251148819,20.501047 0.970835352,20.0420162 L7.51029471,15.8599916 C8.23228793,15.3963474 9.18956329,15.6085626 9.65090081,16.3282492 L9.74316831,16.4712638 C10.2021991,17.193257 9.99229057,18.1505324 9.27260404,18.6118699 Z"
                          id="Stroke-11" stroke-width="3"></path>
                    <path d="M4.01612433,22.8153467 L4.01612433,22.8153467 C4.01612433,25.0966608 4.49822204,27.3526012 5.43243052,29.4309268 L7.37927485,33.7721128"
                          id="Stroke-13" stroke-width="3"></path>
                    <path d="M10.4079557,19.0196923 L17.088123,24.2581798" id="Stroke-15" stroke-width="3"></path>
                    <path d="M36.4054783,33.0985601 L47.3345642,24.6468567 C48.2249456,23.9571571 49.3206222,23.5834737 50.4462858,23.5834737 L53.811743,23.5834737 C55.6963068,23.5834737 57.4286292,24.6284032 58.3074771,26.298445 C59.1471114,27.8900594 59.0825242,29.8115302 58.1344756,31.3431708 L55.9177488,34.9254566"
                          id="Stroke-17" stroke-width="3"></path>
                    <path d="M27.1787279,24.2570265 L30.6433727,15.9437243 C31.9281977,12.8642964 35.4228294,11.353416 38.5460844,12.5367467 C41.4478974,13.63473 43.0879523,16.7118513 42.3844126,19.7313054 L40.2507266,28.8704017"
                          id="Stroke-19" stroke-width="3"></path>
                    <path d="M28.9087436,21.6370907 L40.9773332,25.7545281" id="Stroke-21" stroke-width="3"></path>
                    <path d="M14.588827,33.7721128 L17.3407053,26.4760599 C18.0119514,24.6952971 19.6127926,23.4312323 21.4973563,23.18211 C23.2412122,22.953748 24.9827613,23.6296074 26.1130382,24.9744063 L33.5221188,33.7721128"
                          id="Stroke-23" stroke-width="3"></path>
                    <path d="M20.7407628,22.3355557 L18.2403134,19.0208456" id="Stroke-25" stroke-width="3"></path>
                    <path d="M48.0357972,25.2189152 L52.0725005,27.9085129" id="Stroke-27" stroke-width="2"></path>
                    <path d="M39.3857187,30.7941791 L46.9793343,31.9106159" id="Stroke-29" stroke-width="2"></path>
                    <polyline id="Stroke-31" stroke-width="3"
                              points="36.4368493 11.4980453 40.521993 0.627830905 45.5205851 2.64618256 41.6315098 13.7562925"></polyline>
                </g>
            </g>
        </g>
    </g>
</svg>