<?xml version="1.0" encoding="UTF-8"?>
<svg width="52px" height="52px" viewBox="0 0 52 52" version="1.1" xmlns="http://www.w3.org/2000/svg" xmlns:xlink="http://www.w3.org/1999/xlink">
    <!-- Generator: sketchtool 45.1 (43504) - http://www.bohemiancoding.com/sketch -->
    <title>E9123AEC-2A85-48B7-AD40-80D29750C272</title>
    <desc>Created with sketchtool.</desc>
    <defs></defs>
    <g id="首页" stroke="none" stroke-width="1" fill="none" fill-rule="evenodd" stroke-linecap="round">
        <g transform="translate(-516.000000, -2109.000000)" id="Group-52" stroke="#FD4915" stroke-width="2">
            <g transform="translate(516.000000, 2109.000000)">
                <g id="Group-51" transform="translate(1.000000, 1.000000)">
                    <path d="M11.5053021,13 L37.9056496,13" id="Stroke-1"></path>
                    <path d="M11.5053021,19 L37.9056496,19" id="Stroke-2"></path>
                    <path d="M11.5053021,26 L30.1169633,26" id="Stroke-3"></path>
                    <path d="M44.1718705,41.8214033 L38.5724694,41.8214033 C37.6256035,41.8214033 36.8581374,42.5903897 36.8602659,43.5375597 L36.869692,47.6521997 C36.8730367,49.0697619 35.2788114,49.9035147 34.1163617,49.0922628 L24.9998131,42.7308689 C24.1514651,42.1388497 23.1416572,41.8214033 22.1069159,41.8214033 L5.23908122,41.8214033 C2.34557589,41.8214033 0,39.4758274 0,36.5823221 L0,5.97459403 C0,3.0810887 2.34557589,0.735512813 5.23908122,0.735512813 L44.1718705,0.735512813 C47.0653758,0.735512813 49.4109517,3.0810887 49.4109517,5.97459403 L49.4109517,36.5823221 C49.4109517,39.4758274 47.0653758,41.8214033 44.1718705,41.8214033 Z" id="Stroke-4"></path>
                </g>
            </g>
        </g>
    </g>
</svg>