<?xml version="1.0" encoding="UTF-8"?>
<svg width="42px" height="42px" viewBox="0 0 42 42" version="1.1" xmlns="http://www.w3.org/2000/svg">
    <!-- Generator: sketchtool 45.1 (43504) - http://www.bohemiancoding.com/sketch -->
    <title>43BB118F-A059-410F-8AC8-16420C1DFE92</title>
    <desc>Created with sketchtool.</desc>
    <defs></defs>
    <g id="首页" stroke="none" stroke-width="1" fill="none" fill-rule="evenodd" stroke-linecap="round">
        <g id="首页-最新" transform="translate(-187.000000, -1774.000000)" stroke="#FD4915" stroke-width="3">
            <g id="Group-38" transform="translate(187.000000, 1774.000000)">
                <g id="Group-9-Copy" transform="translate(2.000000, 2.000000)">
                    <path d="M8.9517228,9 L29.4925648,9" id="Stroke-1"></path>
                    <path d="M8.9517228,14 L29.4925648,14" id="Stroke-2"></path>
                    <path d="M8.9517228,20 L23.4325622,20" id="Stroke-3"></path>
                    <path d="M34.3680102,32.2100549 L30.0113853,32.2100549 C29.2746744,32.2100549 28.6775459,32.8083664 28.679202,33.5453138 L28.686536,36.7467175 C28.6891383,37.8496545 27.4487482,38.4983575 26.544302,37.8671614 L19.4511535,32.9176664 C18.7910946,32.4570447 18.0054117,32.2100549 17.2003291,32.2100549 L4.07627739,32.2100549 C1.82497991,32.2100549 0,30.385075 0,28.1337776 L0,4.31937489 C0,2.0680774 1.82497991,0.2430975 4.07627739,0.2430975 L34.3680102,0.2430975 C36.6193077,0.2430975 38.4442876,2.0680774 38.4442876,4.31937489 L38.4442876,28.1337776 C38.4442876,30.385075 36.6193077,32.2100549 34.3680102,32.2100549 Z"
                          id="Stroke-4"></path>
                </g>
            </g>
        </g>
    </g>
</svg>