<?xml version="1.0" encoding="UTF-8"?>
<svg width="54px" height="54px" viewBox="0 0 54 54" version="1.1" xmlns="http://www.w3.org/2000/svg" xmlns:xlink="http://www.w3.org/1999/xlink">
    <!-- Generator: sketchtool 45.1 (43504) - http://www.bohemiancoding.com/sketch -->
    <title>3A0F23E0-1028-4CBA-AA82-64DB5CFB5DD0</title>
    <desc>Created with sketchtool.</desc>
    <defs></defs>
    <g id="首页" stroke="none" stroke-width="1" fill="none" fill-rule="evenodd">
        <g transform="translate(-642.000000, -2108.000000)" id="Group-56" stroke="#FD4915" stroke-width="2">
            <g transform="translate(642.000000, 2108.000000)">
                <g id="Group-55" transform="translate(1.000000, 1.000000)">
                    <path d="M51.4596926,26.152888 C51.4596926,40.3631196 39.9397768,51.882488 25.7300926,51.882488 C11.5198611,51.882488 -5.47368422e-05,40.3631196 -5.47368422e-05,26.152888 C-5.47368422e-05,11.9426564 11.5198611,0.423287973 25.7300926,0.423287973 C39.9397768,0.423287973 51.4596926,11.9426564 51.4596926,26.152888 Z" id="Stroke-1"></path>
                    <path d="M34.9626653,17.5070943 C34.9626653,22.6063785 30.8289389,26.7401048 25.7296547,26.7401048 C20.6309179,26.7401048 16.4971916,22.6063785 16.4971916,17.5070943 C16.4971916,12.4078101 20.6309179,8.27408376 25.7296547,8.27408376 C30.8289389,8.27408376 34.9626653,12.4078101 34.9626653,17.5070943 Z" id="Stroke-3"></path>
                    <path d="M6.96061053,44.4712838 C7.81176842,34.8042101 15.9292421,27.2231574 25.8174526,27.2231574 C35.2250737,27.2231574 43.0305474,34.0860627 44.4991368,43.0787785" id="Stroke-5"></path>
                </g>
            </g>
        </g>
    </g>
</svg>