<?xml version="1.0" encoding="UTF-8"?>
<svg width="146px" height="146px" viewBox="0 0 146 146" version="1.1" xmlns="http://www.w3.org/2000/svg">
    <!-- Generator: sketchtool 45.1 (43504) - http://www.bohemiancoding.com/sketch -->
    <title>D83BC5D6-FC09-40C1-BCE1-26557A07EC94</title>
    <desc>Created with sketchtool.</desc>
    <defs></defs>
    <g id="添加银行卡" stroke="none" stroke-width="1" fill="none" fill-rule="evenodd">
        <g id="暂无银行卡" transform="translate(-302.000000, -243.000000)" stroke="#9B9B9B" stroke-width="2">
            <g id="Group" transform="translate(303.000000, 244.000000)">
                <path d="M143.071653,71.6023684 C143.071653,111.0738 111.073895,143.070613 71.6034081,143.070613 C32.1319762,143.070613 0.135163189,111.0738 0.135163189,71.6023684 C0.135163189,32.1318817 32.1319762,0.135068669 71.6034081,0.135068669 C111.073895,0.135068669 143.071653,32.1318817 143.071653,71.6023684 Z"
                      id="Stroke-1" stroke-linecap="round"></path>
                <path d="M67.9742293,107.336207 L107.797275,107.336207 C115.348454,107.336207 121.468606,101.215111 121.468606,93.6648761 L121.468606,49.541184 C121.468606,41.9900042 115.348454,35.8689076 107.797275,35.8689076 L35.4084076,35.8689076 C27.8581729,35.8689076 21.7380215,41.9900042 21.7380215,49.541184 L21.7380215,93.6648761 C21.7380215,101.215111 27.8581729,107.336207 35.4084076,107.336207 L46.8519091,107.336207 C49.4162289,107.336207 51.8434951,106.181176 53.4607274,104.191537 L63.3011747,92.0797806"
                      id="Stroke-3" stroke-linecap="round"></path>
                <path d="M21.7375489,58 L121.469078,58" id="Stroke-5"></path>
                <path d="M76.7200437,91 L84.6493024,91" id="Stroke-7" stroke-linecap="round"></path>
                <path d="M106.71578,76.3911151 L106.71578,88.3469136 C106.71578,90.4083885 105.043726,92.0804422 102.982251,92.0804422 L92.8223274,92.0804422"
                      id="Stroke-9" stroke-linecap="round"></path>
            </g>
        </g>
    </g>
</svg>