<?xml version="1.0" encoding="UTF-8"?>
<svg width="43px" height="54px" viewBox="0 0 43 54" version="1.1" xmlns="http://www.w3.org/2000/svg">
    <!-- Generator: sketchtool 45.1 (43504) - http://www.bohemiancoding.com/sketch -->
    <title>56E49611-97AD-4E72-BB10-A0DA6DB7A312</title>
    <desc>Created with sketchtool.</desc>
    <defs></defs>
    <g id="一键洗衣" stroke="none" stroke-width="1" fill="none" fill-rule="evenodd">
        <g id="一键洗衣-添加" transform="translate(-542.000000, -1226.000000)" stroke="#9F9F9F" stroke-width="3">
            <g id="Group-9" transform="translate(542.000000, 1226.000000)">
                <g id="Group-2" transform="translate(2.000000, 2.000000)">
                    <path d="M26.8702829,3.7648364 L34.968146,3.7648364 C37.0934517,3.7648364 38.8153975,5.48678223 38.8153975,7.61208797 L38.8153975,46.0020446 C38.8153975,48.1273503 37.0934517,49.8492962 34.968146,49.8492962 L4.02737417,49.8492962 C1.90206843,49.8492962 0.180122599,48.1273503 0.180122599,46.0020446 L0.180122599,7.61208797 C0.180122599,5.48678223 1.90206843,3.7648364 4.02737417,3.7648364 L12.1252372,3.7648364"
                          id="Stroke-1"></path>
                    <path d="M23.2909944,11.4510836 L15.7049975,11.4510836 C13.728298,11.4510836 12.1242937,9.84943813 12.1242937,7.87037984 L12.1242937,3.75893933 C12.1242937,1.78223987 13.728298,0.178235536 15.7049975,0.178235536 L23.2909944,0.178235536 C25.2676939,0.178235536 26.8716982,1.78223987 26.8716982,3.75893933 L26.8716982,7.87037984 C26.8716982,9.84943813 25.2676939,11.4510836 23.2909944,11.4510836 Z"
                          id="Stroke-3"></path>
                    <path d="M9.14438387,19.6240934 L29.8501927,19.6240934" id="Stroke-5" stroke-linecap="round"></path>
                    <path d="M9.14438387,28.1163671 L29.8501927,28.1163671" id="Stroke-7" stroke-linecap="round"></path>
                    <path d="M9.14438387,37.8218228 L29.8501927,37.8218228" id="Stroke-9" stroke-linecap="round"></path>
                </g>
            </g>
        </g>
    </g>
</svg>