<?xml version="1.0" encoding="UTF-8"?>
<svg width="72px" height="73px" viewBox="0 0 72 73" version="1.1" xmlns="http://www.w3.org/2000/svg">
    <!-- Generator: sketchtool 45.1 (43504) - http://www.bohemiancoding.com/sketch -->
    <title>C76E418A-1A41-44F6-B9B0-5B08E5C7B61A</title>
    <desc>Created with sketchtool.</desc>
    <defs></defs>
    <g id="最新页面" stroke="none" stroke-width="1" fill="none" fill-rule="evenodd">
        <g id="支付页面-最新" transform="translate(-40.000000, -812.000000)" fill="#61BB46">
            <g id="Group-12" transform="translate(40.000000, 812.000000)">
                <g id="Page-1">
                    <path d="M20.214,21.2160531 C18.6237,21.2160531 17.0181,22.2668926 17.0181,23.8701889 C17.0181,25.4635716 18.6237,26.5270284 20.214,26.5270284 C21.8043,26.5270284 22.8609,25.4635716 22.8609,23.8701889 C22.8609,22.2668926 21.8043,21.2160531 20.214,21.2160531"
                          id="Fill-1"></path>
                    <path d="M41.96205,36.6276148 C40.90545,36.6276148 39.83985,37.6928741 39.83985,38.7500222 C39.83985,39.8251951 40.90545,40.877837 41.96205,40.877837 C43.56585,40.877837 44.61705,39.8251951 44.61705,38.7500222 C44.61705,37.6928741 43.56585,36.6276148 41.96205,36.6276148"
                          id="Fill-3"></path>
                    <g id="Group-7" transform="translate(0.000000, 0.263160)">
                        <path d="M58.40199,55.5069469 L59.99679,60.8179222 L54.17739,57.6266506 C52.05699,58.158379 49.92399,58.6910086 47.81259,58.6910086 C37.71819,58.6910086 29.76759,51.7812432 29.76759,43.2726877 C29.76759,34.7812556 37.71819,27.8552679 47.81259,27.8552679 C57.34449,27.8552679 65.83329,34.7812556 65.83329,43.2726877 C65.83329,48.0645519 62.65989,52.3084654 58.40199,55.5069469 L58.40199,55.5069469 Z M27.10629,48.0645519 C24.45759,48.0645519 22.32909,47.5229099 19.67409,46.9974901 L12.25719,50.7204901 L14.37849,44.3316383 C9.06849,40.6149469 5.88879,35.8248852 5.88879,29.9884901 C5.88879,19.8784407 15.44229,11.9196383 27.10629,11.9196383 C37.53819,11.9196383 46.67859,18.2814531 48.51279,26.8377741 C47.83869,26.7656753 47.15739,26.7161074 46.46799,26.7161074 C36.39249,26.7161074 28.43199,34.2477247 28.43199,43.5286383 C28.43199,45.0751568 28.67049,46.5621938 29.08629,47.9798358 C28.43199,48.0312062 27.77049,48.0645519 27.10629,48.0645519 L27.10629,48.0645519 Z M71.36559,11.5176877 C71.36559,5.50465062 66.50289,0.637983951 60.50079,0.637983951 L10.86489,0.637983951 C4.86549,0.637983951 9e-05,5.50465062 9e-05,11.5176877 L9e-05,61.2198728 C9e-05,67.2320086 4.86549,72.0986753 10.86489,72.0986753 L60.50079,72.0986753 C66.50289,72.0986753 71.36559,67.2320086 71.36559,61.2198728 L71.36559,11.5176877 Z"
                              id="Fill-5"></path>
                    </g>
                    <path d="M53.63046,36.6276148 C52.58286,36.6276148 51.52536,37.6928741 51.52536,38.7500222 C51.52536,39.8251951 52.58286,40.877837 53.63046,40.877837 C55.22166,40.877837 56.28636,39.8251951 56.28636,38.7500222 C56.28636,37.6928741 55.22166,36.6276148 53.63046,36.6276148"
                          id="Fill-8"></path>
                    <path d="M35.0613,26.527479 C36.6588,26.527479 37.7181,25.463121 37.7181,23.8706395 C37.7181,22.2673432 36.6588,21.2165037 35.0613,21.2165037 C33.471,21.2165037 31.8753,22.2673432 31.8753,23.8706395 C31.8753,25.463121 33.471,26.527479 35.0613,26.527479"
                          id="Fill-10"></path>
                </g>
            </g>
        </g>
    </g>
</svg>