<?xml version="1.0" encoding="UTF-8"?>
<svg width="152px" height="152px" viewBox="0 0 152 152" version="1.1" xmlns="http://www.w3.org/2000/svg">
    <!-- Generator: sketchtool 45.1 (43504) - http://www.bohemiancoding.com/sketch -->
    <title>55160EE7-5FA9-4D2B-B8E9-0CBFAEA62AF4</title>
    <desc>Created with sketchtool.</desc>
    <defs></defs>
    <g id="报事报修" stroke="none" stroke-width="1" fill="none" fill-rule="evenodd">
        <g transform="translate(-48.000000, -194.000000)">
            <rect id="Rectangle" fill="#FFFFFF" x="0" y="145.989549" width="750" height="1188.01045"></rect>
            <g id="Group-2" transform="translate(49.000000, 195.000000)" stroke="#FD4915" stroke-width="2">
                <circle id="Oval" cx="75" cy="75" r="75"></circle>
                <g id="Group" transform="translate(41.615445, 37.278910)" stroke-linecap="round"
                   stroke-linejoin="round">
                    <path d="M19.7190177,62.0422376 C17.566252,64.1950033 14.0739611,64.1950033 11.9211954,62.0422376 C9.76842968,59.8894719 9.76842968,56.397181 11.9211954,54.2444153 C14.0739611,52.0916496 17.566252,52.0916496 19.7190177,54.2444153 C21.8717834,56.397181 21.8717834,59.8894719 19.7190177,62.0422376 Z"
                          id="Stroke-1"></path>
                    <path d="M27.4819528,54.8067777 L49.6037637,32.6849667 C54.1188564,34.157849 59.2757305,33.1124241 62.8644672,29.5236874 C66.7592109,25.627753 67.6605625,19.8826786 65.591145,15.1187319 L57.7706996,22.9391773 C56.9288825,23.7809944 55.5643529,23.7809944 54.7237265,22.9391773 L51.0242557,19.2397065 C50.1824386,18.3990801 50.1824386,17.0345505 51.0242557,16.1927334 L58.8447011,8.37228801 C54.0807544,6.30287052 48.33568,7.2042221 44.4397455,11.0989658 C40.8510089,14.6877025 39.8055839,19.8445765 41.2784662,24.3596692 L19.1566553,46.4814802 C15.0583037,45.3134143 10.4681976,46.3374068 7.24143041,49.564174 C2.50248819,54.3019256 2.50248819,61.984251 7.24143041,66.7220026 C11.979182,71.4609448 19.6615074,71.4609448 24.3992589,66.7220026 C27.6260261,63.4952354 28.6500187,58.9051293 27.4819528,54.8067777 Z"
                          id="Stroke-3"></path>
                    <path d="M31.7131852,29.0239553 L25.6632944,23.8385047 L25.2108326,22.6073322 C24.0832501,19.5389267 26.0193104,16.2002347 29.2425055,15.6548992 L30.4165249,15.4560541 L35.6019755,9.57881317 L25.9228646,0.245002085 L20.3921142,5.43045269 L20.4147373,6.66043443 C20.4635555,9.22160647 18.1571909,11.187434 15.6353116,10.7349722 L13.045563,10.2706035 L5.52755266,18.3077543 L6.82421299,20.9856138 L3.57839477,24.7350935 C-1.22484467,30.2872763 -1.11887335,38.5554207 3.82605808,43.9825812 L4.70716794,44.5564933 C5.69305844,45.2006561 6.92423086,45.3399667 8.02799957,44.932751 L8.23637015,44.8565469 C8.23637015,44.8565469 8.06729231,42.1858315 7.85058691,38.3172829 C7.63269082,34.4475437 11.5393414,30.5194607 15.7698595,30.7063988 L17.4689727,30.7826029 C18.2905481,30.8183236 19.0644959,31.1743396 19.6265011,31.7744469 L23.8486843,36.2835861"
                          id="Stroke-5"></path>
                    <path d="M38.3203185,49.7471829 L54.4458196,65.4642778 C56.0163384,66.9955038 58.5227388,66.9919318 60.0884948,65.455943 L62.5401235,63.0519419 C64.165414,61.4588 64.1523164,58.8392842 62.5127376,57.2616212 L46.5563143,41.9112586"
                          id="Stroke-7"></path>
                </g>
            </g>
        </g>
    </g>
</svg>