<?xml version="1.0" encoding="UTF-8"?>
<svg width="152px" height="152px" viewBox="0 0 152 152" version="1.1" xmlns="http://www.w3.org/2000/svg">
    <!-- Generator: sketchtool 45.1 (43504) - http://www.bohemiancoding.com/sketch -->
    <title>741090E0-D44F-47FA-A80C-A05945647E69</title>
    <desc>Created with sketchtool.</desc>
    <defs></defs>
    <g id="物业缴费" stroke="none" stroke-width="1" fill="none" fill-rule="evenodd">
        <g transform="translate(-47.000000, -193.000000)">
            <rect id="Rectangle" fill="#FFFFFF" x="0" y="145.989549" width="750" height="1188.01045"></rect>
            <g id="Group-5" transform="translate(48.000000, 194.000000)">
                <g id="Group-23">
                    <g id="Group-16">
                        <circle id="Oval-Copy-2" stroke="#FD4915" stroke-width="2" cx="75" cy="75" r="75"></circle>
                        <polygon id="Stroke-28" stroke="#FD4915" stroke-width="2" stroke-linecap="round"
                                 points="43.5865823 80.0994304 106.195538 80.0994304 106.195538 46.5693513 43.5865823 46.5693513"></polygon>
                        <path d="M43.5861788,67.2812421 L43.5861788,80.0998339 L56.4047706,80.0998339 C56.4047706,73.020356 50.6656566,67.2812421 43.5861788,67.2812421 Z"
                              id="Stroke-30" stroke="#FD4915" stroke-width="2" stroke-linecap="round"></path>
                        <path d="M106.195296,67.2812421 L106.195296,80.0998339 L93.3767041,80.0998339 C93.3767041,73.020356 99.115818,67.2812421 106.195296,67.2812421 Z"
                              id="Stroke-31" stroke="#FD4915" stroke-width="2" stroke-linecap="round"></path>
                        <path d="M43.5861788,59.3883465 L43.5861788,46.5697547 L56.4047706,46.5697547 C56.4047706,53.6492326 50.6656566,59.3883465 43.5861788,59.3883465 Z"
                              id="Stroke-32" stroke="#FD4915" stroke-width="2" stroke-linecap="round"></path>
                        <path d="M106.195296,59.3883465 L106.195296,46.5697547 L93.3767041,46.5697547 C93.3767041,53.6492326 99.115818,59.3883465 106.195296,59.3883465 Z"
                              id="Stroke-33" stroke="#FD4915" stroke-width="2" stroke-linecap="round"></path>
                        <path d="M82.791057,63.334875 C82.791057,69.5113623 79.2541424,74.5177547 74.8908987,74.5177547 C70.5276551,74.5177547 66.9907405,69.5113623 66.9907405,63.334875 C66.9907405,57.1583877 70.5276551,52.1519953 74.8908987,52.1519953 C79.2541424,52.1519953 82.791057,57.1583877 82.791057,63.334875 Z"
                              id="Stroke-34" stroke="#FD4915" stroke-width="2" stroke-linecap="round"></path>
                        <path d="M61.9169668,63.334875 C61.9169668,64.7462516 60.7726946,65.8905237 59.361318,65.8905237 C57.9507484,65.8905237 56.8064763,64.7462516 56.8064763,63.334875 C56.8064763,61.9234984 57.9507484,60.7792263 59.361318,60.7792263 C60.7726946,60.7792263 61.9169668,61.9234984 61.9169668,63.334875"
                              id="Fill-35" fill="#FD4915"></path>
                        <path d="M87.8646693,63.334875 C87.8646693,64.7462516 89.0089415,65.8905237 90.420318,65.8905237 C91.8308877,65.8905237 92.9751598,64.7462516 92.9751598,63.334875 C92.9751598,61.9234984 91.8308877,60.7792263 90.420318,60.7792263 C89.0089415,60.7792263 87.8646693,61.9234984 87.8646693,63.334875"
                              id="Fill-36" fill="#FD4915"></path>
                        <path d="M106.195296,87 L43.5863402,87" id="Stroke-37" stroke="#FD4915" stroke-width="2"
                              stroke-linecap="round"></path>
                        <path d="M106.195296,94.5 L43.5863402,94.5" id="Stroke-38" stroke="#FD4915" stroke-width="2"
                              stroke-linecap="round"></path>
                        <path d="M106.195296,102 L43.5863402,102" id="Stroke-39" stroke="#FD4915" stroke-width="2"
                              stroke-linecap="round"></path>
                    </g>
                </g>
            </g>
        </g>
    </g>
</svg>