<?xml version="1.0" encoding="UTF-8"?>
<svg width="152px" height="152px" viewBox="0 0 152 152" version="1.1" xmlns="http://www.w3.org/2000/svg">
    <!-- Generator: sketchtool 45.1 (43504) - http://www.bohemiancoding.com/sketch -->
    <title>CE7AD642-4189-49E4-893B-4343E7165F26</title>
    <desc>Created with sketchtool.</desc>
    <defs></defs>
    <g id="报事报修" stroke="none" stroke-width="1" fill="none" fill-rule="evenodd">
        <g transform="translate(-299.000000, -194.000000)">
            <rect id="Rectangle" fill="#FFFFFF" x="0" y="145.989549" width="750" height="1188.01045"></rect>
            <g id="Group-4" transform="translate(300.000000, 195.000000)" stroke-width="2" stroke="#FD4915">
                <g id="Group-3">
                    <circle id="Oval-Copy-4" cx="75" cy="75" r="75"></circle>
                    <path d="M85.2401897,89.351347 L74.0512241,89.351347 C72.6752974,89.351347 71.559931,88.2359806 71.559931,86.8600539 L71.559931,75.6710884 C71.559931,74.2951616 72.6752974,73.1789547 74.0512241,73.1789547 L85.2401897,73.1789547 C86.6161164,73.1789547 87.7314828,74.2951616 87.7314828,75.6710884 L87.7314828,86.8600539 C87.7314828,88.2359806 86.6161164,89.351347 85.2401897,89.351347 Z"
                          id="Stroke-48" stroke-linecap="round"></path>
                    <path d="M68.1161638,103.078759 L99.3439009,103.078759 C101.498987,103.078759 103.245582,101.332164 103.245582,99.1770776 L103.245582,72.285569 C103.245582,71.2206336 104.108793,70.3574224 105.173728,70.3574224 L109.273772,70.3574224 C111.022047,70.3574224 111.796164,68.1577888 110.432845,67.0634353 L82.1242241,44.3299655 C80.6768534,43.1675302 78.6150647,43.1675302 77.1668534,44.3299655 L70.857931,49.3966034"
                          id="Stroke-49" stroke-linecap="round"></path>
                    <path d="M60.1241897,52.5002974 L60.1241897,62.0199957 C60.1241897,63.3538966 59.042444,64.4348017 57.7085431,64.4348017 L50.5044698,64.4348017 C49.170569,64.4348017 48.0888233,63.3538966 48.0888233,62.0199957 L48.0888233,52.5002974 C48.0888233,51.8757931 47.4340603,51.4849526 46.8709138,51.7530776 C42.2993405,53.9283362 39.2037155,58.0939397 39.2037155,62.8840474 C39.2037155,67.9288319 42.6431121,72.2759871 47.6189741,74.3402974 L47.6189741,101.510017 C47.6189741,102.376591 48.3216466,103.078422 49.1882198,103.078422 L59.0256336,103.078422 C59.8922069,103.078422 60.5940388,102.376591 60.5940388,101.510017 L60.5940388,74.3402974 C65.5699009,72.2759871 69.0092974,67.9288319 69.0092974,62.8840474 C69.0092974,58.0939397 65.9136724,53.9283362 61.3429397,51.7530776 C60.7789526,51.4849526 60.1241897,51.8757931 60.1241897,52.5002974 Z"
                          id="Stroke-50" stroke-linecap="round"></path>
                </g>
            </g>
        </g>
    </g>
</svg>