<?xml version="1.0" encoding="UTF-8"?>
<svg width="152px" height="152px" viewBox="0 0 152 152" version="1.1" xmlns="http://www.w3.org/2000/svg">
    <!-- Generator: sketchtool 45.1 (43504) - http://www.bohemiancoding.com/sketch -->
    <title>2D12A4F4-1907-47A9-83B5-D35994669705</title>
    <desc>Created with sketchtool.</desc>
    <defs></defs>
    <g id="物业缴费" stroke="none" stroke-width="1" fill="none" fill-rule="evenodd">
        <g transform="translate(-550.000000, -194.000000)">
            <rect id="Rectangle" fill="#FFFFFF" x="0" y="145.989549" width="750" height="1188.01045"></rect>
            <g id="Group-3" transform="translate(551.000000, 195.000000)" stroke="#FD4915">
                <circle id="Oval-Copy-5" stroke-width="2" cx="75" cy="75" r="75"></circle>
                <g id="Group" transform="translate(36.611341, 50.869986)" stroke-width="2.053">
                    <path d="M13.5076081,10.7714936 L19.2477195,1.93619332 C19.6869995,1.26046955 20.433635,0.853338919 21.2364085,0.853338919 L56.2412642,0.853338919 C57.0805274,0.853338919 57.8580389,1.3000517 58.2860912,2.02808044 L63.4199121,10.7714936"
                          id="Stroke-1"></path>
                    <path d="M8.88225716,9.68298458 L2.1920099,9.68298458 C1.38923637,9.68298458 0.739438913,10.3375036 0.739438913,11.1461103 L0.739438913,15.4534959 C0.739438913,16.1164968 1.18152574,16.6960925 1.81728869,16.8671439 L6.88935783,18.2299006 C7.84089708,18.4843573 8.25351145,19.6138621 7.69213136,20.429537 L6.33920534,22.3987487 C5.85922536,23.0970908 5.60239396,23.9269022 5.60239396,24.7765047 L5.60239396,37.5926378 C5.60239396,38.9115715 6.66340234,39.981703 7.97282141,39.981703 L68.613099,39.981703 C69.9225181,39.981703 70.9849299,38.9115715 70.9849299,37.5926378 L70.9849299,24.2082182 C70.9849299,23.3741659 70.7351158,22.5570773 70.2705737,21.8658034 L69.2699137,20.3786457 C68.725375,19.5672117 69.1309721,18.4560843 70.0670734,18.1945594 L74.7840697,16.8742122 C75.4128154,16.6989198 75.847885,16.1221514 75.847885,15.4648051 L75.847885,11.1461103 C75.847885,10.3375036 75.196684,9.68298458 74.395314,9.68298458 L68.2510089,9.68298458 C67.10439,9.68298458 65.991454,10.0717378 65.0904389,10.7856301 L61.7782964,13.4121881 C59.3419068,15.344645 56.3286991,16.3963991 53.2270741,16.3963991 L24.3047718,16.3963991 C21.6255853,16.3963991 19.0081506,15.5793106 16.7977165,14.0539843 L11.7705577,10.5834784 C10.9200669,9.99681445 9.91379308,9.68298458 8.88225716,9.68298458 Z"
                          id="Stroke-3"></path>
                    <path d="M12.0652823,24.2756492 L13.7395984,25.8080437 C14.3360648,26.3551255 15.1149796,26.6576462 15.9219635,26.6576462 L21.902065,26.6576462"
                          id="Stroke-5" stroke-linecap="round"></path>
                    <path d="M65.0299502,24.2756492 L63.3556341,25.8080437 C62.7591677,26.3551255 61.9802529,26.6576462 61.173269,26.6576462 L55.1931676,26.6576462"
                          id="Stroke-7" stroke-linecap="round"></path>
                    <path d="M23.8837367,32.9045647 L54.2333479,32.9045647" id="Stroke-9" stroke-linecap="round"></path>
                    <path d="M69.8644152,41.1001814 L69.8644152,45.8768981 C69.8644152,47.1124265 68.869369,48.1147029 67.6427535,48.1147029 L54.8250426,48.1147029 C53.5984271,48.1147029 52.6033808,47.1124265 52.6033808,45.8768981 L52.6033808,41.1001814"
                          id="Stroke-11" stroke-linecap="round"></path>
                    <path d="M24.5446214,41.1001814 L24.5446214,45.8768981 C24.5446214,47.1124265 23.5495752,48.1147029 22.3229597,48.1147029 L9.50524871,48.1147029 C8.27863321,48.1147029 7.283587,47.1124265 7.283587,45.8768981 L7.283587,41.1001814"
                          id="Stroke-13" stroke-linecap="round"></path>
                    <path d="M56.0261153,39.4854776 L68.8424228,39.4854776" id="Stroke-15"
                          stroke-linecap="round"></path>
                </g>
            </g>
        </g>
    </g>
</svg>