<?xml version="1.0" encoding="UTF-8"?>
<svg width="31px" height="28px" viewBox="0 0 31 28" version="1.1" xmlns="http://www.w3.org/2000/svg">
    <!-- Generator: sketchtool 45.1 (43504) - http://www.bohemiancoding.com/sketch -->
    <title>F0E157CD-5365-4475-89C8-D9F6708ACF84</title>
    <desc>Created with sketchtool.</desc>
    <defs></defs>
    <g id="个人中心" stroke="none" stroke-width="1" fill="none" fill-rule="evenodd">
        <g id="个人中心首页-修改" transform="translate(-48.000000, -337.000000)" stroke="#464646" stroke-width="2">
            <g id="Group-23" transform="translate(48.000000, 337.000000)">
                <g id="Page-1" transform="translate(1.000000, 1.000000)">
                    <path d="M2.01037335,6.29801715 L26.654417,6.29801715 C27.7082016,6.29801715 28.5627561,7.15257168 28.5627561,8.20706779 L28.5627561,23.956202 C28.5627561,25.0106981 27.7082016,25.8652526 26.654417,25.8652526 L2.01037335,25.8652526 C0.956588778,25.8652526 0.101322703,25.0106981 0.101322703,23.956202 L0.101322703,8.20706779 C0.101322703,7.15257168 0.956588778,6.29801715 2.01037335,6.29801715 Z"
                          id="Stroke-1"></path>
                    <path d="M24.7089357,15.8443377 C24.7089357,17.7761575 23.1421338,19.3429594 21.210314,19.3429594 C19.2784942,19.3429594 17.7124039,17.7761575 17.7124039,15.8443377 C17.7124039,13.9125179 19.2784942,12.345716 21.210314,12.345716 C23.1421338,12.345716 24.7089357,13.9125179 24.7089357,15.8443377 Z"
                          id="Stroke-3"></path>
                    <path d="M1.70533794,6.29801715 L20.2557887,0.216520355 C21.7215525,-0.26447787 23.229297,0.827729638 23.229297,2.37033933 L23.229297,6.17919066"
                          id="Stroke-5" stroke-linecap="round"></path>
                </g>
            </g>
        </g>
    </g>
</svg>